G04 #@! TF.GenerationSoftware,KiCad,Pcbnew,8.0.7*
G04 #@! TF.CreationDate,2025-03-03T01:54:19+02:00*
G04 #@! TF.ProjectId,slug_v1_0,736c7567-5f76-4315-9f30-2e6b69636164,rev?*
G04 #@! TF.SameCoordinates,Original*
G04 #@! TF.FileFunction,Legend,Bot*
G04 #@! TF.FilePolarity,Positive*
%FSLAX46Y46*%
G04 Gerber Fmt 4.6, Leading zero omitted, Abs format (unit mm)*
G04 Created by KiCad (PCBNEW 8.0.7) date 2025-03-03 01:54:19*
%MOMM*%
%LPD*%
G01*
G04 APERTURE LIST*
%ADD10C,0.100000*%
%ADD11C,0.200000*%
%ADD12C,0.250000*%
%ADD13C,0.000000*%
%ADD14R,1.700000X1.700000*%
%ADD15O,1.700000X1.700000*%
%ADD16O,1.900000X1.200000*%
%ADD17C,1.450000*%
%ADD18C,1.000000*%
G04 APERTURE END LIST*
D10*
X98040000Y-125117300D02*
X121330000Y-125117300D01*
X121330000Y-128662700D01*
X98040000Y-128662700D01*
X98040000Y-125117300D01*
D11*
X120867945Y-126319656D02*
X120725088Y-126367275D01*
X120725088Y-126367275D02*
X120486993Y-126367275D01*
X120486993Y-126367275D02*
X120391755Y-126319656D01*
X120391755Y-126319656D02*
X120344136Y-126272036D01*
X120344136Y-126272036D02*
X120296517Y-126176798D01*
X120296517Y-126176798D02*
X120296517Y-126081560D01*
X120296517Y-126081560D02*
X120344136Y-125986322D01*
X120344136Y-125986322D02*
X120391755Y-125938703D01*
X120391755Y-125938703D02*
X120486993Y-125891084D01*
X120486993Y-125891084D02*
X120677469Y-125843465D01*
X120677469Y-125843465D02*
X120772707Y-125795846D01*
X120772707Y-125795846D02*
X120820326Y-125748227D01*
X120820326Y-125748227D02*
X120867945Y-125652989D01*
X120867945Y-125652989D02*
X120867945Y-125557751D01*
X120867945Y-125557751D02*
X120820326Y-125462513D01*
X120820326Y-125462513D02*
X120772707Y-125414894D01*
X120772707Y-125414894D02*
X120677469Y-125367275D01*
X120677469Y-125367275D02*
X120439374Y-125367275D01*
X120439374Y-125367275D02*
X120296517Y-125414894D01*
X119725088Y-126367275D02*
X119820326Y-126319656D01*
X119820326Y-126319656D02*
X119867945Y-126224417D01*
X119867945Y-126224417D02*
X119867945Y-125367275D01*
X118915564Y-125700608D02*
X118915564Y-126367275D01*
X119344135Y-125700608D02*
X119344135Y-126224417D01*
X119344135Y-126224417D02*
X119296516Y-126319656D01*
X119296516Y-126319656D02*
X119201278Y-126367275D01*
X119201278Y-126367275D02*
X119058421Y-126367275D01*
X119058421Y-126367275D02*
X118963183Y-126319656D01*
X118963183Y-126319656D02*
X118915564Y-126272036D01*
X118010802Y-125700608D02*
X118010802Y-126510132D01*
X118010802Y-126510132D02*
X118058421Y-126605370D01*
X118058421Y-126605370D02*
X118106040Y-126652989D01*
X118106040Y-126652989D02*
X118201278Y-126700608D01*
X118201278Y-126700608D02*
X118344135Y-126700608D01*
X118344135Y-126700608D02*
X118439373Y-126652989D01*
X118010802Y-126319656D02*
X118106040Y-126367275D01*
X118106040Y-126367275D02*
X118296516Y-126367275D01*
X118296516Y-126367275D02*
X118391754Y-126319656D01*
X118391754Y-126319656D02*
X118439373Y-126272036D01*
X118439373Y-126272036D02*
X118486992Y-126176798D01*
X118486992Y-126176798D02*
X118486992Y-125891084D01*
X118486992Y-125891084D02*
X118439373Y-125795846D01*
X118439373Y-125795846D02*
X118391754Y-125748227D01*
X118391754Y-125748227D02*
X118296516Y-125700608D01*
X118296516Y-125700608D02*
X118106040Y-125700608D01*
X118106040Y-125700608D02*
X118010802Y-125748227D01*
X117677468Y-125367275D02*
X117344135Y-126367275D01*
X117344135Y-126367275D02*
X117010802Y-125367275D01*
X116153659Y-126367275D02*
X116725087Y-126367275D01*
X116439373Y-126367275D02*
X116439373Y-125367275D01*
X116439373Y-125367275D02*
X116534611Y-125510132D01*
X116534611Y-125510132D02*
X116629849Y-125605370D01*
X116629849Y-125605370D02*
X116725087Y-125652989D01*
X115725087Y-126272036D02*
X115677468Y-126319656D01*
X115677468Y-126319656D02*
X115725087Y-126367275D01*
X115725087Y-126367275D02*
X115772706Y-126319656D01*
X115772706Y-126319656D02*
X115725087Y-126272036D01*
X115725087Y-126272036D02*
X115725087Y-126367275D01*
X115058421Y-125367275D02*
X114963183Y-125367275D01*
X114963183Y-125367275D02*
X114867945Y-125414894D01*
X114867945Y-125414894D02*
X114820326Y-125462513D01*
X114820326Y-125462513D02*
X114772707Y-125557751D01*
X114772707Y-125557751D02*
X114725088Y-125748227D01*
X114725088Y-125748227D02*
X114725088Y-125986322D01*
X114725088Y-125986322D02*
X114772707Y-126176798D01*
X114772707Y-126176798D02*
X114820326Y-126272036D01*
X114820326Y-126272036D02*
X114867945Y-126319656D01*
X114867945Y-126319656D02*
X114963183Y-126367275D01*
X114963183Y-126367275D02*
X115058421Y-126367275D01*
X115058421Y-126367275D02*
X115153659Y-126319656D01*
X115153659Y-126319656D02*
X115201278Y-126272036D01*
X115201278Y-126272036D02*
X115248897Y-126176798D01*
X115248897Y-126176798D02*
X115296516Y-125986322D01*
X115296516Y-125986322D02*
X115296516Y-125748227D01*
X115296516Y-125748227D02*
X115248897Y-125557751D01*
X115248897Y-125557751D02*
X115201278Y-125462513D01*
X115201278Y-125462513D02*
X115153659Y-125414894D01*
X115153659Y-125414894D02*
X115058421Y-125367275D01*
X114296516Y-125986322D02*
X113534612Y-125986322D01*
X113153659Y-125367275D02*
X112534612Y-125367275D01*
X112534612Y-125367275D02*
X112867945Y-125748227D01*
X112867945Y-125748227D02*
X112725088Y-125748227D01*
X112725088Y-125748227D02*
X112629850Y-125795846D01*
X112629850Y-125795846D02*
X112582231Y-125843465D01*
X112582231Y-125843465D02*
X112534612Y-125938703D01*
X112534612Y-125938703D02*
X112534612Y-126176798D01*
X112534612Y-126176798D02*
X112582231Y-126272036D01*
X112582231Y-126272036D02*
X112629850Y-126319656D01*
X112629850Y-126319656D02*
X112725088Y-126367275D01*
X112725088Y-126367275D02*
X113010802Y-126367275D01*
X113010802Y-126367275D02*
X113106040Y-126319656D01*
X113106040Y-126319656D02*
X113153659Y-126272036D01*
X111534612Y-126272036D02*
X111582231Y-126319656D01*
X111582231Y-126319656D02*
X111725088Y-126367275D01*
X111725088Y-126367275D02*
X111820326Y-126367275D01*
X111820326Y-126367275D02*
X111963183Y-126319656D01*
X111963183Y-126319656D02*
X112058421Y-126224417D01*
X112058421Y-126224417D02*
X112106040Y-126129179D01*
X112106040Y-126129179D02*
X112153659Y-125938703D01*
X112153659Y-125938703D02*
X112153659Y-125795846D01*
X112153659Y-125795846D02*
X112106040Y-125605370D01*
X112106040Y-125605370D02*
X112058421Y-125510132D01*
X112058421Y-125510132D02*
X111963183Y-125414894D01*
X111963183Y-125414894D02*
X111820326Y-125367275D01*
X111820326Y-125367275D02*
X111725088Y-125367275D01*
X111725088Y-125367275D02*
X111582231Y-125414894D01*
X111582231Y-125414894D02*
X111534612Y-125462513D01*
X111106040Y-126367275D02*
X111106040Y-125367275D01*
X111106040Y-125843465D02*
X110534612Y-125843465D01*
X110534612Y-126367275D02*
X110534612Y-125367275D01*
X109344135Y-126319656D02*
X109201278Y-126367275D01*
X109201278Y-126367275D02*
X108963183Y-126367275D01*
X108963183Y-126367275D02*
X108867945Y-126319656D01*
X108867945Y-126319656D02*
X108820326Y-126272036D01*
X108820326Y-126272036D02*
X108772707Y-126176798D01*
X108772707Y-126176798D02*
X108772707Y-126081560D01*
X108772707Y-126081560D02*
X108820326Y-125986322D01*
X108820326Y-125986322D02*
X108867945Y-125938703D01*
X108867945Y-125938703D02*
X108963183Y-125891084D01*
X108963183Y-125891084D02*
X109153659Y-125843465D01*
X109153659Y-125843465D02*
X109248897Y-125795846D01*
X109248897Y-125795846D02*
X109296516Y-125748227D01*
X109296516Y-125748227D02*
X109344135Y-125652989D01*
X109344135Y-125652989D02*
X109344135Y-125557751D01*
X109344135Y-125557751D02*
X109296516Y-125462513D01*
X109296516Y-125462513D02*
X109248897Y-125414894D01*
X109248897Y-125414894D02*
X109153659Y-125367275D01*
X109153659Y-125367275D02*
X108915564Y-125367275D01*
X108915564Y-125367275D02*
X108772707Y-125414894D01*
X107963183Y-126319656D02*
X108058421Y-126367275D01*
X108058421Y-126367275D02*
X108248897Y-126367275D01*
X108248897Y-126367275D02*
X108344135Y-126319656D01*
X108344135Y-126319656D02*
X108391754Y-126224417D01*
X108391754Y-126224417D02*
X108391754Y-125843465D01*
X108391754Y-125843465D02*
X108344135Y-125748227D01*
X108344135Y-125748227D02*
X108248897Y-125700608D01*
X108248897Y-125700608D02*
X108058421Y-125700608D01*
X108058421Y-125700608D02*
X107963183Y-125748227D01*
X107963183Y-125748227D02*
X107915564Y-125843465D01*
X107915564Y-125843465D02*
X107915564Y-125938703D01*
X107915564Y-125938703D02*
X108391754Y-126033941D01*
X107486992Y-126367275D02*
X107486992Y-125700608D01*
X107486992Y-125891084D02*
X107439373Y-125795846D01*
X107439373Y-125795846D02*
X107391754Y-125748227D01*
X107391754Y-125748227D02*
X107296516Y-125700608D01*
X107296516Y-125700608D02*
X107201278Y-125700608D01*
X106867944Y-126367275D02*
X106867944Y-125700608D01*
X106867944Y-125367275D02*
X106915563Y-125414894D01*
X106915563Y-125414894D02*
X106867944Y-125462513D01*
X106867944Y-125462513D02*
X106820325Y-125414894D01*
X106820325Y-125414894D02*
X106867944Y-125367275D01*
X106867944Y-125367275D02*
X106867944Y-125462513D01*
X105963183Y-126367275D02*
X105963183Y-125843465D01*
X105963183Y-125843465D02*
X106010802Y-125748227D01*
X106010802Y-125748227D02*
X106106040Y-125700608D01*
X106106040Y-125700608D02*
X106296516Y-125700608D01*
X106296516Y-125700608D02*
X106391754Y-125748227D01*
X105963183Y-126319656D02*
X106058421Y-126367275D01*
X106058421Y-126367275D02*
X106296516Y-126367275D01*
X106296516Y-126367275D02*
X106391754Y-126319656D01*
X106391754Y-126319656D02*
X106439373Y-126224417D01*
X106439373Y-126224417D02*
X106439373Y-126129179D01*
X106439373Y-126129179D02*
X106391754Y-126033941D01*
X106391754Y-126033941D02*
X106296516Y-125986322D01*
X106296516Y-125986322D02*
X106058421Y-125986322D01*
X106058421Y-125986322D02*
X105963183Y-125938703D01*
X105344135Y-126367275D02*
X105439373Y-126319656D01*
X105439373Y-126319656D02*
X105486992Y-126224417D01*
X105486992Y-126224417D02*
X105486992Y-125367275D01*
X103725087Y-126367275D02*
X104201277Y-126367275D01*
X104201277Y-126367275D02*
X104201277Y-125367275D01*
X103248896Y-126367275D02*
X103344134Y-126319656D01*
X103344134Y-126319656D02*
X103391753Y-126272036D01*
X103391753Y-126272036D02*
X103439372Y-126176798D01*
X103439372Y-126176798D02*
X103439372Y-125891084D01*
X103439372Y-125891084D02*
X103391753Y-125795846D01*
X103391753Y-125795846D02*
X103344134Y-125748227D01*
X103344134Y-125748227D02*
X103248896Y-125700608D01*
X103248896Y-125700608D02*
X103106039Y-125700608D01*
X103106039Y-125700608D02*
X103010801Y-125748227D01*
X103010801Y-125748227D02*
X102963182Y-125795846D01*
X102963182Y-125795846D02*
X102915563Y-125891084D01*
X102915563Y-125891084D02*
X102915563Y-126176798D01*
X102915563Y-126176798D02*
X102963182Y-126272036D01*
X102963182Y-126272036D02*
X103010801Y-126319656D01*
X103010801Y-126319656D02*
X103106039Y-126367275D01*
X103106039Y-126367275D02*
X103248896Y-126367275D01*
X102058420Y-125700608D02*
X102058420Y-126510132D01*
X102058420Y-126510132D02*
X102106039Y-126605370D01*
X102106039Y-126605370D02*
X102153658Y-126652989D01*
X102153658Y-126652989D02*
X102248896Y-126700608D01*
X102248896Y-126700608D02*
X102391753Y-126700608D01*
X102391753Y-126700608D02*
X102486991Y-126652989D01*
X102058420Y-126319656D02*
X102153658Y-126367275D01*
X102153658Y-126367275D02*
X102344134Y-126367275D01*
X102344134Y-126367275D02*
X102439372Y-126319656D01*
X102439372Y-126319656D02*
X102486991Y-126272036D01*
X102486991Y-126272036D02*
X102534610Y-126176798D01*
X102534610Y-126176798D02*
X102534610Y-125891084D01*
X102534610Y-125891084D02*
X102486991Y-125795846D01*
X102486991Y-125795846D02*
X102439372Y-125748227D01*
X102439372Y-125748227D02*
X102344134Y-125700608D01*
X102344134Y-125700608D02*
X102153658Y-125700608D01*
X102153658Y-125700608D02*
X102058420Y-125748227D01*
X101153658Y-125700608D02*
X101153658Y-126510132D01*
X101153658Y-126510132D02*
X101201277Y-126605370D01*
X101201277Y-126605370D02*
X101248896Y-126652989D01*
X101248896Y-126652989D02*
X101344134Y-126700608D01*
X101344134Y-126700608D02*
X101486991Y-126700608D01*
X101486991Y-126700608D02*
X101582229Y-126652989D01*
X101153658Y-126319656D02*
X101248896Y-126367275D01*
X101248896Y-126367275D02*
X101439372Y-126367275D01*
X101439372Y-126367275D02*
X101534610Y-126319656D01*
X101534610Y-126319656D02*
X101582229Y-126272036D01*
X101582229Y-126272036D02*
X101629848Y-126176798D01*
X101629848Y-126176798D02*
X101629848Y-125891084D01*
X101629848Y-125891084D02*
X101582229Y-125795846D01*
X101582229Y-125795846D02*
X101534610Y-125748227D01*
X101534610Y-125748227D02*
X101439372Y-125700608D01*
X101439372Y-125700608D02*
X101248896Y-125700608D01*
X101248896Y-125700608D02*
X101153658Y-125748227D01*
X100296515Y-126319656D02*
X100391753Y-126367275D01*
X100391753Y-126367275D02*
X100582229Y-126367275D01*
X100582229Y-126367275D02*
X100677467Y-126319656D01*
X100677467Y-126319656D02*
X100725086Y-126224417D01*
X100725086Y-126224417D02*
X100725086Y-125843465D01*
X100725086Y-125843465D02*
X100677467Y-125748227D01*
X100677467Y-125748227D02*
X100582229Y-125700608D01*
X100582229Y-125700608D02*
X100391753Y-125700608D01*
X100391753Y-125700608D02*
X100296515Y-125748227D01*
X100296515Y-125748227D02*
X100248896Y-125843465D01*
X100248896Y-125843465D02*
X100248896Y-125938703D01*
X100248896Y-125938703D02*
X100725086Y-126033941D01*
X99820324Y-126367275D02*
X99820324Y-125700608D01*
X99820324Y-125891084D02*
X99772705Y-125795846D01*
X99772705Y-125795846D02*
X99725086Y-125748227D01*
X99725086Y-125748227D02*
X99629848Y-125700608D01*
X99629848Y-125700608D02*
X99534610Y-125700608D01*
X99201276Y-126272036D02*
X99153657Y-126319656D01*
X99153657Y-126319656D02*
X99201276Y-126367275D01*
X99201276Y-126367275D02*
X99248895Y-126319656D01*
X99248895Y-126319656D02*
X99201276Y-126272036D01*
X99201276Y-126272036D02*
X99201276Y-126367275D01*
X120820326Y-127977219D02*
X120820326Y-126977219D01*
X120820326Y-126977219D02*
X120582231Y-126977219D01*
X120582231Y-126977219D02*
X120439374Y-127024838D01*
X120439374Y-127024838D02*
X120344136Y-127120076D01*
X120344136Y-127120076D02*
X120296517Y-127215314D01*
X120296517Y-127215314D02*
X120248898Y-127405790D01*
X120248898Y-127405790D02*
X120248898Y-127548647D01*
X120248898Y-127548647D02*
X120296517Y-127739123D01*
X120296517Y-127739123D02*
X120344136Y-127834361D01*
X120344136Y-127834361D02*
X120439374Y-127929600D01*
X120439374Y-127929600D02*
X120582231Y-127977219D01*
X120582231Y-127977219D02*
X120820326Y-127977219D01*
X119439374Y-127929600D02*
X119534612Y-127977219D01*
X119534612Y-127977219D02*
X119725088Y-127977219D01*
X119725088Y-127977219D02*
X119820326Y-127929600D01*
X119820326Y-127929600D02*
X119867945Y-127834361D01*
X119867945Y-127834361D02*
X119867945Y-127453409D01*
X119867945Y-127453409D02*
X119820326Y-127358171D01*
X119820326Y-127358171D02*
X119725088Y-127310552D01*
X119725088Y-127310552D02*
X119534612Y-127310552D01*
X119534612Y-127310552D02*
X119439374Y-127358171D01*
X119439374Y-127358171D02*
X119391755Y-127453409D01*
X119391755Y-127453409D02*
X119391755Y-127548647D01*
X119391755Y-127548647D02*
X119867945Y-127643885D01*
X119010802Y-127929600D02*
X118915564Y-127977219D01*
X118915564Y-127977219D02*
X118725088Y-127977219D01*
X118725088Y-127977219D02*
X118629850Y-127929600D01*
X118629850Y-127929600D02*
X118582231Y-127834361D01*
X118582231Y-127834361D02*
X118582231Y-127786742D01*
X118582231Y-127786742D02*
X118629850Y-127691504D01*
X118629850Y-127691504D02*
X118725088Y-127643885D01*
X118725088Y-127643885D02*
X118867945Y-127643885D01*
X118867945Y-127643885D02*
X118963183Y-127596266D01*
X118963183Y-127596266D02*
X119010802Y-127501028D01*
X119010802Y-127501028D02*
X119010802Y-127453409D01*
X119010802Y-127453409D02*
X118963183Y-127358171D01*
X118963183Y-127358171D02*
X118867945Y-127310552D01*
X118867945Y-127310552D02*
X118725088Y-127310552D01*
X118725088Y-127310552D02*
X118629850Y-127358171D01*
X118153659Y-127977219D02*
X118153659Y-127310552D01*
X118153659Y-126977219D02*
X118201278Y-127024838D01*
X118201278Y-127024838D02*
X118153659Y-127072457D01*
X118153659Y-127072457D02*
X118106040Y-127024838D01*
X118106040Y-127024838D02*
X118153659Y-126977219D01*
X118153659Y-126977219D02*
X118153659Y-127072457D01*
X117248898Y-127310552D02*
X117248898Y-128120076D01*
X117248898Y-128120076D02*
X117296517Y-128215314D01*
X117296517Y-128215314D02*
X117344136Y-128262933D01*
X117344136Y-128262933D02*
X117439374Y-128310552D01*
X117439374Y-128310552D02*
X117582231Y-128310552D01*
X117582231Y-128310552D02*
X117677469Y-128262933D01*
X117248898Y-127929600D02*
X117344136Y-127977219D01*
X117344136Y-127977219D02*
X117534612Y-127977219D01*
X117534612Y-127977219D02*
X117629850Y-127929600D01*
X117629850Y-127929600D02*
X117677469Y-127881980D01*
X117677469Y-127881980D02*
X117725088Y-127786742D01*
X117725088Y-127786742D02*
X117725088Y-127501028D01*
X117725088Y-127501028D02*
X117677469Y-127405790D01*
X117677469Y-127405790D02*
X117629850Y-127358171D01*
X117629850Y-127358171D02*
X117534612Y-127310552D01*
X117534612Y-127310552D02*
X117344136Y-127310552D01*
X117344136Y-127310552D02*
X117248898Y-127358171D01*
X116772707Y-127310552D02*
X116772707Y-127977219D01*
X116772707Y-127405790D02*
X116725088Y-127358171D01*
X116725088Y-127358171D02*
X116629850Y-127310552D01*
X116629850Y-127310552D02*
X116486993Y-127310552D01*
X116486993Y-127310552D02*
X116391755Y-127358171D01*
X116391755Y-127358171D02*
X116344136Y-127453409D01*
X116344136Y-127453409D02*
X116344136Y-127977219D01*
X114772707Y-127453409D02*
X114629850Y-127501028D01*
X114629850Y-127501028D02*
X114582231Y-127548647D01*
X114582231Y-127548647D02*
X114534612Y-127643885D01*
X114534612Y-127643885D02*
X114534612Y-127786742D01*
X114534612Y-127786742D02*
X114582231Y-127881980D01*
X114582231Y-127881980D02*
X114629850Y-127929600D01*
X114629850Y-127929600D02*
X114725088Y-127977219D01*
X114725088Y-127977219D02*
X115106040Y-127977219D01*
X115106040Y-127977219D02*
X115106040Y-126977219D01*
X115106040Y-126977219D02*
X114772707Y-126977219D01*
X114772707Y-126977219D02*
X114677469Y-127024838D01*
X114677469Y-127024838D02*
X114629850Y-127072457D01*
X114629850Y-127072457D02*
X114582231Y-127167695D01*
X114582231Y-127167695D02*
X114582231Y-127262933D01*
X114582231Y-127262933D02*
X114629850Y-127358171D01*
X114629850Y-127358171D02*
X114677469Y-127405790D01*
X114677469Y-127405790D02*
X114772707Y-127453409D01*
X114772707Y-127453409D02*
X115106040Y-127453409D01*
X114201278Y-127310552D02*
X113963183Y-127977219D01*
X113725088Y-127310552D02*
X113963183Y-127977219D01*
X113963183Y-127977219D02*
X114058421Y-128215314D01*
X114058421Y-128215314D02*
X114106040Y-128262933D01*
X114106040Y-128262933D02*
X114201278Y-128310552D01*
X113344135Y-127881980D02*
X113296516Y-127929600D01*
X113296516Y-127929600D02*
X113344135Y-127977219D01*
X113344135Y-127977219D02*
X113391754Y-127929600D01*
X113391754Y-127929600D02*
X113344135Y-127881980D01*
X113344135Y-127881980D02*
X113344135Y-127977219D01*
X113344135Y-127358171D02*
X113296516Y-127405790D01*
X113296516Y-127405790D02*
X113344135Y-127453409D01*
X113344135Y-127453409D02*
X113391754Y-127405790D01*
X113391754Y-127405790D02*
X113344135Y-127358171D01*
X113344135Y-127358171D02*
X113344135Y-127453409D01*
X112106040Y-127977219D02*
X112106040Y-126977219D01*
X112106040Y-126977219D02*
X111772707Y-127691504D01*
X111772707Y-127691504D02*
X111439374Y-126977219D01*
X111439374Y-126977219D02*
X111439374Y-127977219D01*
X110820326Y-127977219D02*
X110915564Y-127929600D01*
X110915564Y-127929600D02*
X110963183Y-127881980D01*
X110963183Y-127881980D02*
X111010802Y-127786742D01*
X111010802Y-127786742D02*
X111010802Y-127501028D01*
X111010802Y-127501028D02*
X110963183Y-127405790D01*
X110963183Y-127405790D02*
X110915564Y-127358171D01*
X110915564Y-127358171D02*
X110820326Y-127310552D01*
X110820326Y-127310552D02*
X110677469Y-127310552D01*
X110677469Y-127310552D02*
X110582231Y-127358171D01*
X110582231Y-127358171D02*
X110534612Y-127405790D01*
X110534612Y-127405790D02*
X110486993Y-127501028D01*
X110486993Y-127501028D02*
X110486993Y-127786742D01*
X110486993Y-127786742D02*
X110534612Y-127881980D01*
X110534612Y-127881980D02*
X110582231Y-127929600D01*
X110582231Y-127929600D02*
X110677469Y-127977219D01*
X110677469Y-127977219D02*
X110820326Y-127977219D01*
X110058421Y-127977219D02*
X110058421Y-126977219D01*
X109629850Y-127977219D02*
X109629850Y-127453409D01*
X109629850Y-127453409D02*
X109677469Y-127358171D01*
X109677469Y-127358171D02*
X109772707Y-127310552D01*
X109772707Y-127310552D02*
X109915564Y-127310552D01*
X109915564Y-127310552D02*
X110010802Y-127358171D01*
X110010802Y-127358171D02*
X110058421Y-127405790D01*
X108725088Y-127977219D02*
X108725088Y-127453409D01*
X108725088Y-127453409D02*
X108772707Y-127358171D01*
X108772707Y-127358171D02*
X108867945Y-127310552D01*
X108867945Y-127310552D02*
X109058421Y-127310552D01*
X109058421Y-127310552D02*
X109153659Y-127358171D01*
X108725088Y-127929600D02*
X108820326Y-127977219D01*
X108820326Y-127977219D02*
X109058421Y-127977219D01*
X109058421Y-127977219D02*
X109153659Y-127929600D01*
X109153659Y-127929600D02*
X109201278Y-127834361D01*
X109201278Y-127834361D02*
X109201278Y-127739123D01*
X109201278Y-127739123D02*
X109153659Y-127643885D01*
X109153659Y-127643885D02*
X109058421Y-127596266D01*
X109058421Y-127596266D02*
X108820326Y-127596266D01*
X108820326Y-127596266D02*
X108725088Y-127548647D01*
X108248897Y-127977219D02*
X108248897Y-127310552D01*
X108248897Y-127405790D02*
X108201278Y-127358171D01*
X108201278Y-127358171D02*
X108106040Y-127310552D01*
X108106040Y-127310552D02*
X107963183Y-127310552D01*
X107963183Y-127310552D02*
X107867945Y-127358171D01*
X107867945Y-127358171D02*
X107820326Y-127453409D01*
X107820326Y-127453409D02*
X107820326Y-127977219D01*
X107820326Y-127453409D02*
X107772707Y-127358171D01*
X107772707Y-127358171D02*
X107677469Y-127310552D01*
X107677469Y-127310552D02*
X107534612Y-127310552D01*
X107534612Y-127310552D02*
X107439373Y-127358171D01*
X107439373Y-127358171D02*
X107391754Y-127453409D01*
X107391754Y-127453409D02*
X107391754Y-127977219D01*
X106534612Y-127929600D02*
X106629850Y-127977219D01*
X106629850Y-127977219D02*
X106820326Y-127977219D01*
X106820326Y-127977219D02*
X106915564Y-127929600D01*
X106915564Y-127929600D02*
X106963183Y-127834361D01*
X106963183Y-127834361D02*
X106963183Y-127453409D01*
X106963183Y-127453409D02*
X106915564Y-127358171D01*
X106915564Y-127358171D02*
X106820326Y-127310552D01*
X106820326Y-127310552D02*
X106629850Y-127310552D01*
X106629850Y-127310552D02*
X106534612Y-127358171D01*
X106534612Y-127358171D02*
X106486993Y-127453409D01*
X106486993Y-127453409D02*
X106486993Y-127548647D01*
X106486993Y-127548647D02*
X106963183Y-127643885D01*
X105629850Y-127977219D02*
X105629850Y-126977219D01*
X105629850Y-127929600D02*
X105725088Y-127977219D01*
X105725088Y-127977219D02*
X105915564Y-127977219D01*
X105915564Y-127977219D02*
X106010802Y-127929600D01*
X106010802Y-127929600D02*
X106058421Y-127881980D01*
X106058421Y-127881980D02*
X106106040Y-127786742D01*
X106106040Y-127786742D02*
X106106040Y-127501028D01*
X106106040Y-127501028D02*
X106058421Y-127405790D01*
X106058421Y-127405790D02*
X106010802Y-127358171D01*
X106010802Y-127358171D02*
X105915564Y-127310552D01*
X105915564Y-127310552D02*
X105725088Y-127310552D01*
X105725088Y-127310552D02*
X105629850Y-127358171D01*
X103820326Y-127977219D02*
X104153659Y-127501028D01*
X104391754Y-127977219D02*
X104391754Y-126977219D01*
X104391754Y-126977219D02*
X104010802Y-126977219D01*
X104010802Y-126977219D02*
X103915564Y-127024838D01*
X103915564Y-127024838D02*
X103867945Y-127072457D01*
X103867945Y-127072457D02*
X103820326Y-127167695D01*
X103820326Y-127167695D02*
X103820326Y-127310552D01*
X103820326Y-127310552D02*
X103867945Y-127405790D01*
X103867945Y-127405790D02*
X103915564Y-127453409D01*
X103915564Y-127453409D02*
X104010802Y-127501028D01*
X104010802Y-127501028D02*
X104391754Y-127501028D01*
X102963183Y-127977219D02*
X102963183Y-127453409D01*
X102963183Y-127453409D02*
X103010802Y-127358171D01*
X103010802Y-127358171D02*
X103106040Y-127310552D01*
X103106040Y-127310552D02*
X103296516Y-127310552D01*
X103296516Y-127310552D02*
X103391754Y-127358171D01*
X102963183Y-127929600D02*
X103058421Y-127977219D01*
X103058421Y-127977219D02*
X103296516Y-127977219D01*
X103296516Y-127977219D02*
X103391754Y-127929600D01*
X103391754Y-127929600D02*
X103439373Y-127834361D01*
X103439373Y-127834361D02*
X103439373Y-127739123D01*
X103439373Y-127739123D02*
X103391754Y-127643885D01*
X103391754Y-127643885D02*
X103296516Y-127596266D01*
X103296516Y-127596266D02*
X103058421Y-127596266D01*
X103058421Y-127596266D02*
X102963183Y-127548647D01*
X102534611Y-127929600D02*
X102439373Y-127977219D01*
X102439373Y-127977219D02*
X102248897Y-127977219D01*
X102248897Y-127977219D02*
X102153659Y-127929600D01*
X102153659Y-127929600D02*
X102106040Y-127834361D01*
X102106040Y-127834361D02*
X102106040Y-127786742D01*
X102106040Y-127786742D02*
X102153659Y-127691504D01*
X102153659Y-127691504D02*
X102248897Y-127643885D01*
X102248897Y-127643885D02*
X102391754Y-127643885D01*
X102391754Y-127643885D02*
X102486992Y-127596266D01*
X102486992Y-127596266D02*
X102534611Y-127501028D01*
X102534611Y-127501028D02*
X102534611Y-127453409D01*
X102534611Y-127453409D02*
X102486992Y-127358171D01*
X102486992Y-127358171D02*
X102391754Y-127310552D01*
X102391754Y-127310552D02*
X102248897Y-127310552D01*
X102248897Y-127310552D02*
X102153659Y-127358171D01*
X101677468Y-127977219D02*
X101677468Y-126977219D01*
X101248897Y-127977219D02*
X101248897Y-127453409D01*
X101248897Y-127453409D02*
X101296516Y-127358171D01*
X101296516Y-127358171D02*
X101391754Y-127310552D01*
X101391754Y-127310552D02*
X101534611Y-127310552D01*
X101534611Y-127310552D02*
X101629849Y-127358171D01*
X101629849Y-127358171D02*
X101677468Y-127405790D01*
X100344135Y-127977219D02*
X100344135Y-127453409D01*
X100344135Y-127453409D02*
X100391754Y-127358171D01*
X100391754Y-127358171D02*
X100486992Y-127310552D01*
X100486992Y-127310552D02*
X100677468Y-127310552D01*
X100677468Y-127310552D02*
X100772706Y-127358171D01*
X100344135Y-127929600D02*
X100439373Y-127977219D01*
X100439373Y-127977219D02*
X100677468Y-127977219D01*
X100677468Y-127977219D02*
X100772706Y-127929600D01*
X100772706Y-127929600D02*
X100820325Y-127834361D01*
X100820325Y-127834361D02*
X100820325Y-127739123D01*
X100820325Y-127739123D02*
X100772706Y-127643885D01*
X100772706Y-127643885D02*
X100677468Y-127596266D01*
X100677468Y-127596266D02*
X100439373Y-127596266D01*
X100439373Y-127596266D02*
X100344135Y-127548647D01*
X99439373Y-127977219D02*
X99439373Y-126977219D01*
X99439373Y-127929600D02*
X99534611Y-127977219D01*
X99534611Y-127977219D02*
X99725087Y-127977219D01*
X99725087Y-127977219D02*
X99820325Y-127929600D01*
X99820325Y-127929600D02*
X99867944Y-127881980D01*
X99867944Y-127881980D02*
X99915563Y-127786742D01*
X99915563Y-127786742D02*
X99915563Y-127501028D01*
X99915563Y-127501028D02*
X99867944Y-127405790D01*
X99867944Y-127405790D02*
X99820325Y-127358171D01*
X99820325Y-127358171D02*
X99725087Y-127310552D01*
X99725087Y-127310552D02*
X99534611Y-127310552D01*
X99534611Y-127310552D02*
X99439373Y-127358171D01*
X98963182Y-127881980D02*
X98915563Y-127929600D01*
X98915563Y-127929600D02*
X98963182Y-127977219D01*
X98963182Y-127977219D02*
X99010801Y-127929600D01*
X99010801Y-127929600D02*
X98963182Y-127881980D01*
X98963182Y-127881980D02*
X98963182Y-127977219D01*
D12*
G36*
X108624305Y-124650000D02*
G01*
X108624305Y-124587473D01*
X108574025Y-124584802D01*
X108542484Y-124580635D01*
X108514396Y-124569399D01*
X108501939Y-124540579D01*
X108498330Y-124490886D01*
X108496269Y-124434581D01*
X108494804Y-124379489D01*
X108493635Y-124325157D01*
X108492971Y-124275408D01*
X108492445Y-124225265D01*
X108492055Y-124174727D01*
X108491803Y-124123794D01*
X108491689Y-124072465D01*
X108491681Y-124055268D01*
X108491708Y-123991818D01*
X108491788Y-123936658D01*
X108491963Y-123879363D01*
X108492284Y-123827706D01*
X108493391Y-123779762D01*
X108541751Y-123774633D01*
X108593363Y-123775058D01*
X108645771Y-123776527D01*
X108697413Y-123779356D01*
X108706127Y-123780006D01*
X108751067Y-123786601D01*
X108758883Y-123798325D01*
X108764722Y-123847917D01*
X108769502Y-123902123D01*
X108770607Y-123915317D01*
X108829713Y-123915317D01*
X108829658Y-123862682D01*
X108830562Y-123813343D01*
X108832767Y-123760991D01*
X108836745Y-123707240D01*
X108837285Y-123701605D01*
X108829713Y-123696475D01*
X108775797Y-123700139D01*
X108722247Y-123703314D01*
X108669063Y-123706001D01*
X108616245Y-123708199D01*
X108563794Y-123709909D01*
X108511709Y-123711130D01*
X108459991Y-123711863D01*
X108408639Y-123712107D01*
X108356890Y-123711863D01*
X108303614Y-123711130D01*
X108248812Y-123709909D01*
X108192484Y-123708199D01*
X108134629Y-123706001D01*
X108075247Y-123703314D01*
X108014339Y-123700139D01*
X107951905Y-123696475D01*
X107944333Y-123706978D01*
X107951035Y-123759402D01*
X107956019Y-123810055D01*
X107960087Y-123864525D01*
X107962896Y-123915317D01*
X108019804Y-123915317D01*
X108022872Y-123865568D01*
X108027532Y-123815044D01*
X108032260Y-123793440D01*
X108054242Y-123783426D01*
X108104838Y-123778420D01*
X108157732Y-123776084D01*
X108215134Y-123774942D01*
X108272595Y-123774633D01*
X108289204Y-123778785D01*
X108291891Y-123814933D01*
X108296043Y-124273621D01*
X108295959Y-124332147D01*
X108295709Y-124383158D01*
X108295188Y-124434455D01*
X108294119Y-124486021D01*
X108292623Y-124518353D01*
X108281999Y-124566072D01*
X108276015Y-124573063D01*
X108225661Y-124582024D01*
X108174398Y-124586956D01*
X108168304Y-124587473D01*
X108168304Y-124650000D01*
X108219518Y-124650000D01*
X108272290Y-124650000D01*
X108326619Y-124650000D01*
X108382505Y-124650000D01*
X108436400Y-124650000D01*
X108486346Y-124650000D01*
X108539624Y-124650000D01*
X108593930Y-124650000D01*
X108624305Y-124650000D01*
G37*
G36*
X107572702Y-123995429D02*
G01*
X107623913Y-124005687D01*
X107671758Y-124024738D01*
X107694332Y-124036499D01*
X107739768Y-124062864D01*
X107780446Y-124090439D01*
X107786234Y-124094813D01*
X107823018Y-124131993D01*
X107848101Y-124176901D01*
X107851177Y-124185063D01*
X107864548Y-124234696D01*
X107871493Y-124286779D01*
X107873503Y-124339323D01*
X107871398Y-124386096D01*
X107863315Y-124437753D01*
X107846223Y-124491856D01*
X107820880Y-124539320D01*
X107787285Y-124580146D01*
X107752712Y-124609198D01*
X107706712Y-124635494D01*
X107654611Y-124653610D01*
X107605098Y-124662626D01*
X107551102Y-124665631D01*
X107531354Y-124665232D01*
X107481627Y-124660453D01*
X107430690Y-124649267D01*
X107416635Y-124644863D01*
X107369184Y-124625482D01*
X107324445Y-124599930D01*
X107293670Y-124531786D01*
X107313454Y-124512247D01*
X107341950Y-124527073D01*
X107389902Y-124545219D01*
X107416351Y-124551477D01*
X107467327Y-124556210D01*
X107484577Y-124555693D01*
X107532849Y-124547933D01*
X107580366Y-124528389D01*
X107621444Y-124497348D01*
X107645442Y-124468742D01*
X107669255Y-124423892D01*
X107683772Y-124376402D01*
X107692030Y-124321737D01*
X107543042Y-124321737D01*
X107491091Y-124321389D01*
X107442023Y-124320187D01*
X107391856Y-124317341D01*
X107279260Y-124290474D01*
X107277062Y-124241625D01*
X107278119Y-124225505D01*
X107458534Y-124225505D01*
X107459267Y-124259211D01*
X107470437Y-124259211D01*
X107521261Y-124259211D01*
X107573328Y-124259211D01*
X107596501Y-124259211D01*
X107646708Y-124259211D01*
X107696915Y-124259211D01*
X107694629Y-124230647D01*
X107688550Y-124178428D01*
X107677131Y-124128541D01*
X107669697Y-124112284D01*
X107637320Y-124075052D01*
X107621396Y-124065843D01*
X107573328Y-124056001D01*
X107528524Y-124064910D01*
X107489553Y-124096545D01*
X107473195Y-124126560D01*
X107461563Y-124174920D01*
X107458534Y-124225505D01*
X107278119Y-124225505D01*
X107280580Y-124187989D01*
X107293215Y-124135076D01*
X107315041Y-124091108D01*
X107350579Y-124052337D01*
X107384612Y-124029402D01*
X107433866Y-124008190D01*
X107482836Y-123997154D01*
X107536692Y-123993475D01*
X107572702Y-123995429D01*
G37*
G36*
X106914546Y-123995611D02*
G01*
X106963698Y-124006420D01*
X106983078Y-124014634D01*
X107029358Y-124039061D01*
X107071753Y-124064439D01*
X107114884Y-124091905D01*
X107114152Y-124120481D01*
X107113419Y-124152233D01*
X107114884Y-124184473D01*
X107067501Y-124196685D01*
X107036482Y-124121702D01*
X106997159Y-124107536D01*
X106959057Y-124102896D01*
X106930833Y-124104536D01*
X106883091Y-124117656D01*
X106842065Y-124149546D01*
X106834360Y-124161175D01*
X106818614Y-124208298D01*
X106813977Y-124259211D01*
X106871229Y-124270076D01*
X106923184Y-124281300D01*
X106980679Y-124295834D01*
X107029897Y-124310928D01*
X107078034Y-124329782D01*
X107123677Y-124356175D01*
X107127013Y-124358813D01*
X107158784Y-124399548D01*
X107173610Y-124446298D01*
X107177899Y-124498325D01*
X107176499Y-124527717D01*
X107165302Y-124578206D01*
X107138087Y-124623133D01*
X107121999Y-124637576D01*
X107075443Y-124659655D01*
X107025491Y-124665631D01*
X107006162Y-124664749D01*
X106957592Y-124656594D01*
X106813977Y-124548150D01*
X106820816Y-124642428D01*
X106813977Y-124650000D01*
X106792113Y-124650000D01*
X106743031Y-124650000D01*
X106691612Y-124650000D01*
X106657637Y-124650000D01*
X106607836Y-124650000D01*
X106555080Y-124650000D01*
X106555080Y-124587473D01*
X106579957Y-124584814D01*
X106628353Y-124575505D01*
X106641542Y-124558653D01*
X106642133Y-124556167D01*
X106645849Y-124506956D01*
X106646137Y-124482205D01*
X106813977Y-124482205D01*
X106835232Y-124502043D01*
X106877227Y-124529406D01*
X106925352Y-124540579D01*
X106940369Y-124539480D01*
X106984459Y-124517620D01*
X106995675Y-124503353D01*
X107007662Y-124454605D01*
X107000696Y-124415269D01*
X106971270Y-124375959D01*
X106960851Y-124368700D01*
X106913750Y-124347749D01*
X106862827Y-124332847D01*
X106813977Y-124321737D01*
X106813977Y-124482205D01*
X106646137Y-124482205D01*
X106646427Y-124457292D01*
X106646140Y-124420875D01*
X106645041Y-124368485D01*
X106643496Y-124317585D01*
X106643016Y-124302238D01*
X106641567Y-124249911D01*
X106640809Y-124200593D01*
X106641381Y-124177081D01*
X106647426Y-124128097D01*
X106664256Y-124081646D01*
X106696768Y-124043134D01*
X106738506Y-124017166D01*
X106769478Y-124005714D01*
X106818228Y-123996274D01*
X106870397Y-123993475D01*
X106914546Y-123995611D01*
G37*
G36*
X106485959Y-124650000D02*
G01*
X106485959Y-124587473D01*
X106435289Y-124584468D01*
X106404626Y-124578681D01*
X106391926Y-124556454D01*
X106387896Y-124503332D01*
X106386809Y-124454452D01*
X106386552Y-124406978D01*
X106386659Y-124348436D01*
X106386980Y-124297008D01*
X106387681Y-124242726D01*
X106388963Y-124192259D01*
X106392563Y-124141307D01*
X106393391Y-124137822D01*
X106438887Y-124119810D01*
X106441507Y-124119748D01*
X106485959Y-124118527D01*
X106485959Y-124056001D01*
X106435574Y-124049570D01*
X106385771Y-124041395D01*
X106341856Y-124032065D01*
X106291740Y-124018287D01*
X106243025Y-124000932D01*
X106233900Y-123997138D01*
X106219490Y-123993475D01*
X106209965Y-124012037D01*
X106211919Y-124049651D01*
X106213384Y-124086775D01*
X106213384Y-124113398D01*
X106100788Y-124022295D01*
X106055664Y-124000680D01*
X106005423Y-123993728D01*
X105992100Y-123993475D01*
X105941221Y-123997768D01*
X105892628Y-124013630D01*
X105875352Y-124024005D01*
X105839331Y-124060677D01*
X105815406Y-124105483D01*
X105809406Y-124121702D01*
X105692658Y-124022295D01*
X105646316Y-123998991D01*
X105598625Y-123993475D01*
X105548219Y-123996696D01*
X105500052Y-124008019D01*
X105453461Y-124032931D01*
X105439867Y-124045010D01*
X105410943Y-124087892D01*
X105395067Y-124140099D01*
X105389511Y-124190932D01*
X105389064Y-124212072D01*
X105390530Y-124267515D01*
X105391829Y-124317745D01*
X105392773Y-124369885D01*
X105393206Y-124422776D01*
X105393217Y-124431891D01*
X105392620Y-124484994D01*
X105390062Y-124534346D01*
X105387110Y-124555478D01*
X105372944Y-124577215D01*
X105322265Y-124585647D01*
X105295519Y-124587473D01*
X105295519Y-124650000D01*
X105347082Y-124650000D01*
X105398788Y-124650000D01*
X105445240Y-124650000D01*
X105496254Y-124650000D01*
X105548879Y-124650000D01*
X105573712Y-124650000D01*
X105582016Y-124637543D01*
X105575708Y-124584377D01*
X105570705Y-124531675D01*
X105567007Y-124479437D01*
X105564614Y-124427662D01*
X105563526Y-124376351D01*
X105563454Y-124359351D01*
X105564364Y-124303325D01*
X105567727Y-124248685D01*
X105575691Y-124195401D01*
X105589344Y-124158583D01*
X105627759Y-124127328D01*
X105676165Y-124118566D01*
X105680202Y-124118527D01*
X105729413Y-124126446D01*
X105755184Y-124138799D01*
X105791180Y-124172276D01*
X105797683Y-124184961D01*
X105803393Y-124234009D01*
X105804495Y-124287357D01*
X105804521Y-124299023D01*
X105804402Y-124350162D01*
X105803944Y-124404682D01*
X105802976Y-124458846D01*
X105801297Y-124508298D01*
X105799637Y-124536671D01*
X105787180Y-124574284D01*
X105737538Y-124584356D01*
X105699497Y-124587473D01*
X105699497Y-124650000D01*
X105749804Y-124650000D01*
X105799609Y-124650000D01*
X105848911Y-124650000D01*
X105876085Y-124650000D01*
X105928582Y-124650000D01*
X105978361Y-124650000D01*
X106031116Y-124650000D01*
X106069769Y-124650000D01*
X106069769Y-124587473D01*
X106018457Y-124583395D01*
X105990146Y-124568911D01*
X105981353Y-124518841D01*
X105978983Y-124462985D01*
X105978422Y-124405757D01*
X105978663Y-124348312D01*
X105979551Y-124292363D01*
X105981368Y-124243018D01*
X105985261Y-124200593D01*
X106004015Y-124154415D01*
X106018722Y-124139532D01*
X106064574Y-124120578D01*
X106091751Y-124118527D01*
X106141685Y-124127770D01*
X106154277Y-124133670D01*
X106192798Y-124164552D01*
X106201660Y-124175924D01*
X106212651Y-124222086D01*
X106211919Y-124246755D01*
X106210195Y-124299092D01*
X106209965Y-124349092D01*
X106210697Y-124426029D01*
X106210438Y-124475702D01*
X106209234Y-124525557D01*
X106206545Y-124556943D01*
X106195066Y-124575750D01*
X106145979Y-124584909D01*
X106119839Y-124587473D01*
X106119839Y-124650000D01*
X106172857Y-124650000D01*
X106223265Y-124650000D01*
X106276223Y-124650000D01*
X106300579Y-124650000D01*
X106352892Y-124650000D01*
X106402893Y-124650000D01*
X106458640Y-124650000D01*
X106485959Y-124650000D01*
G37*
D13*
G04 #@! TO.C,G\u002A\u002A\u002A*
G36*
X114054015Y-121318898D02*
G01*
X114144021Y-121326825D01*
X114222865Y-121339287D01*
X114289236Y-121356121D01*
X114341824Y-121377162D01*
X114342717Y-121377616D01*
X114355417Y-121384027D01*
X114365921Y-121390146D01*
X114374437Y-121397420D01*
X114381173Y-121407297D01*
X114386337Y-121421223D01*
X114390138Y-121440646D01*
X114392784Y-121467012D01*
X114394481Y-121501768D01*
X114395439Y-121546362D01*
X114395866Y-121602241D01*
X114395970Y-121670851D01*
X114395958Y-121753639D01*
X114395958Y-122080046D01*
X114337361Y-122080046D01*
X114278763Y-122080046D01*
X114278763Y-121790966D01*
X114278763Y-121789965D01*
X114278728Y-121715169D01*
X114278572Y-121654419D01*
X114278216Y-121606155D01*
X114277584Y-121568815D01*
X114276599Y-121540837D01*
X114275181Y-121520663D01*
X114273255Y-121506729D01*
X114270742Y-121497476D01*
X114267564Y-121491342D01*
X114263645Y-121486767D01*
X114249915Y-121476286D01*
X114229456Y-121467093D01*
X114200339Y-121458937D01*
X114160251Y-121451171D01*
X114106878Y-121443154D01*
X114067499Y-121438560D01*
X113999523Y-121433848D01*
X113929264Y-121432434D01*
X113859262Y-121434122D01*
X113792060Y-121438714D01*
X113730199Y-121446015D01*
X113676220Y-121455827D01*
X113632666Y-121467955D01*
X113602077Y-121482201D01*
X113583598Y-121494308D01*
X113581550Y-121785224D01*
X113579502Y-122076140D01*
X113518951Y-122078422D01*
X113458400Y-122080704D01*
X113458400Y-121749685D01*
X113458400Y-121418667D01*
X113476077Y-121402060D01*
X113491720Y-121389441D01*
X113535752Y-121366067D01*
X113594716Y-121347106D01*
X113668573Y-121332569D01*
X113757282Y-121322465D01*
X113860801Y-121316801D01*
X113954157Y-121315672D01*
X114054015Y-121318898D01*
G37*
G36*
X112010563Y-122448902D02*
G01*
X112053112Y-122449441D01*
X112085940Y-122450327D01*
X112107079Y-122451523D01*
X112114561Y-122452994D01*
X112114553Y-122453259D01*
X112112859Y-122464291D01*
X112108791Y-122485894D01*
X112103173Y-122513667D01*
X112096071Y-122551651D01*
X112084970Y-122629838D01*
X112075688Y-122720751D01*
X112068212Y-122822608D01*
X112062530Y-122933628D01*
X112058630Y-123052029D01*
X112056499Y-123176028D01*
X112056127Y-123303844D01*
X112057499Y-123433696D01*
X112060606Y-123563801D01*
X112065434Y-123692377D01*
X112071971Y-123817644D01*
X112080205Y-123937818D01*
X112090124Y-124051119D01*
X112101717Y-124155764D01*
X112114970Y-124249972D01*
X112115404Y-124252703D01*
X112121164Y-124289211D01*
X112125864Y-124319596D01*
X112129032Y-124340755D01*
X112130194Y-124349588D01*
X112130056Y-124349684D01*
X112120489Y-124350393D01*
X112096804Y-124351059D01*
X112060331Y-124351673D01*
X112012401Y-124352222D01*
X111954345Y-124352697D01*
X111887494Y-124353086D01*
X111813178Y-124353377D01*
X111732728Y-124353560D01*
X111647474Y-124353624D01*
X111164755Y-124353624D01*
X111122860Y-124197207D01*
X111119267Y-124183717D01*
X111107389Y-124137904D01*
X111097523Y-124097970D01*
X111090205Y-124066210D01*
X111085970Y-124044922D01*
X111085354Y-124036400D01*
X111087312Y-124036647D01*
X111099433Y-124043581D01*
X111120451Y-124058010D01*
X111148113Y-124078350D01*
X111180165Y-124103018D01*
X111270587Y-124174026D01*
X111397638Y-124190424D01*
X111447526Y-124196278D01*
X111518697Y-124201862D01*
X111577192Y-124202372D01*
X111624327Y-124197795D01*
X111661415Y-124188119D01*
X111663563Y-124187316D01*
X111680343Y-124181146D01*
X111693223Y-124175367D01*
X111702813Y-124167983D01*
X111709719Y-124156994D01*
X111714549Y-124140401D01*
X111717909Y-124116207D01*
X111720406Y-124082411D01*
X111722649Y-124037017D01*
X111725244Y-123978024D01*
X111726627Y-123940674D01*
X111728184Y-123875122D01*
X111729233Y-123798196D01*
X111729795Y-123712353D01*
X111729891Y-123620046D01*
X111729541Y-123523728D01*
X111728768Y-123425855D01*
X111727591Y-123328881D01*
X111726032Y-123235259D01*
X111724113Y-123147443D01*
X111721852Y-123067889D01*
X111719273Y-122999050D01*
X111716396Y-122943381D01*
X111715987Y-122936980D01*
X111713237Y-122897718D01*
X111709546Y-122849323D01*
X111705154Y-122794541D01*
X111700296Y-122736118D01*
X111695213Y-122676800D01*
X111690141Y-122619332D01*
X111685319Y-122566460D01*
X111680984Y-122520931D01*
X111677376Y-122485490D01*
X111674732Y-122462882D01*
X111675586Y-122459813D01*
X111680743Y-122456948D01*
X111691901Y-122454695D01*
X111710664Y-122452955D01*
X111738637Y-122451625D01*
X111777422Y-122450604D01*
X111828626Y-122449792D01*
X111893851Y-122449088D01*
X111904171Y-122448997D01*
X111960260Y-122448742D01*
X112010563Y-122448902D01*
G37*
G36*
X113778734Y-122597572D02*
G01*
X113778733Y-122751794D01*
X113725995Y-122719350D01*
X113710015Y-122709746D01*
X113654908Y-122679494D01*
X113598523Y-122652364D01*
X113545441Y-122630457D01*
X113500244Y-122615871D01*
X113492316Y-122613963D01*
X113449271Y-122607108D01*
X113402320Y-122604302D01*
X113355311Y-122605335D01*
X113312092Y-122609997D01*
X113276511Y-122618079D01*
X113252418Y-122629371D01*
X113250289Y-122631984D01*
X113248125Y-122637823D01*
X113246199Y-122647722D01*
X113244471Y-122662735D01*
X113242903Y-122683910D01*
X113241455Y-122712301D01*
X113240091Y-122748957D01*
X113238771Y-122794931D01*
X113237458Y-122851274D01*
X113236111Y-122919037D01*
X113234694Y-122999270D01*
X113233167Y-123093026D01*
X113231492Y-123201356D01*
X113230277Y-123282496D01*
X113228788Y-123388757D01*
X113227682Y-123482109D01*
X113227010Y-123564164D01*
X113226826Y-123636531D01*
X113227181Y-123700822D01*
X113228127Y-123758646D01*
X113229717Y-123811615D01*
X113232002Y-123861340D01*
X113235036Y-123909430D01*
X113238869Y-123957496D01*
X113243555Y-124007150D01*
X113249145Y-124060001D01*
X113255691Y-124117660D01*
X113263247Y-124181738D01*
X113266680Y-124211100D01*
X113271420Y-124253620D01*
X113275210Y-124290062D01*
X113277727Y-124317282D01*
X113278650Y-124332138D01*
X113278702Y-124353624D01*
X113047197Y-124353624D01*
X112815691Y-124353624D01*
X112820692Y-124324325D01*
X112830393Y-124261541D01*
X112838903Y-124193094D01*
X112846216Y-124118145D01*
X112852404Y-124035392D01*
X112857541Y-123943535D01*
X112861698Y-123841273D01*
X112864948Y-123727303D01*
X112867365Y-123600325D01*
X112869020Y-123459037D01*
X112869633Y-123390065D01*
X112870454Y-123301255D01*
X112871311Y-123211966D01*
X112872175Y-123124881D01*
X112873020Y-123042685D01*
X112873819Y-122968062D01*
X112874545Y-122903695D01*
X112875169Y-122852271D01*
X112877843Y-122643966D01*
X112834117Y-122629601D01*
X112833677Y-122629457D01*
X112796164Y-122621115D01*
X112748674Y-122616118D01*
X112696256Y-122614466D01*
X112643956Y-122616158D01*
X112596824Y-122621196D01*
X112559908Y-122629580D01*
X112522216Y-122643381D01*
X112443232Y-122680427D01*
X112373277Y-122724586D01*
X112368756Y-122727900D01*
X112346137Y-122744082D01*
X112329294Y-122755471D01*
X112321590Y-122759776D01*
X112321422Y-122759634D01*
X112320245Y-122750288D01*
X112319224Y-122728003D01*
X112318420Y-122695145D01*
X112317894Y-122654081D01*
X112317705Y-122607177D01*
X112317752Y-122581178D01*
X112318252Y-122531422D01*
X112319378Y-122495087D01*
X112321226Y-122470639D01*
X112323892Y-122456543D01*
X112327471Y-122451265D01*
X112327837Y-122451195D01*
X112339053Y-122450685D01*
X112364627Y-122450150D01*
X112403452Y-122449599D01*
X112454418Y-122449042D01*
X112516415Y-122448485D01*
X112588337Y-122447939D01*
X112669073Y-122447410D01*
X112757514Y-122446909D01*
X112852553Y-122446443D01*
X112953080Y-122446021D01*
X113057986Y-122445651D01*
X113778735Y-122443350D01*
X113778734Y-122597572D01*
G37*
G36*
X117737258Y-121761127D02*
G01*
X117804931Y-121764955D01*
X117867186Y-121770916D01*
X117925350Y-121779027D01*
X117980746Y-121789308D01*
X118034701Y-121801776D01*
X118051458Y-121806134D01*
X118155226Y-121839333D01*
X118250665Y-121881769D01*
X118340447Y-121934994D01*
X118427244Y-122000561D01*
X118513731Y-122080021D01*
X118552627Y-122120576D01*
X118638154Y-122224874D01*
X118712392Y-122338929D01*
X118775524Y-122463127D01*
X118827730Y-122597851D01*
X118869190Y-122743484D01*
X118900086Y-122900409D01*
X118904253Y-122933132D01*
X118908685Y-122991717D01*
X118911060Y-123058764D01*
X118911379Y-123130085D01*
X118909642Y-123201486D01*
X118905851Y-123268778D01*
X118900005Y-123327770D01*
X118881501Y-123440348D01*
X118845654Y-123583166D01*
X118797214Y-123718667D01*
X118736618Y-123846067D01*
X118664306Y-123964576D01*
X118580715Y-124073409D01*
X118486284Y-124171779D01*
X118381450Y-124258898D01*
X118340157Y-124287632D01*
X118242472Y-124342480D01*
X118137819Y-124383737D01*
X118025088Y-124411880D01*
X118008957Y-124414351D01*
X117966060Y-124418236D01*
X117912823Y-124420580D01*
X117852739Y-124421435D01*
X117789303Y-124420853D01*
X117726010Y-124418885D01*
X117666354Y-124415583D01*
X117613831Y-124410998D01*
X117571935Y-124405183D01*
X117529879Y-124397197D01*
X117463286Y-124383068D01*
X117400449Y-124367999D01*
X117343708Y-124352638D01*
X117295402Y-124337636D01*
X117257872Y-124323639D01*
X117233456Y-124311299D01*
X117213135Y-124296576D01*
X117176210Y-124265703D01*
X117135186Y-124227686D01*
X117093264Y-124185764D01*
X117053643Y-124143179D01*
X117019526Y-124103169D01*
X116994111Y-124068976D01*
X116984524Y-124053978D01*
X116966029Y-124022179D01*
X116949975Y-123991076D01*
X116937821Y-123963807D01*
X116931027Y-123943512D01*
X116931053Y-123933330D01*
X116933948Y-123934359D01*
X116947134Y-123942369D01*
X116968352Y-123956605D01*
X116994771Y-123975206D01*
X117036477Y-124003498D01*
X117138384Y-124060167D01*
X117245183Y-124103155D01*
X117354640Y-124131494D01*
X117389239Y-124136598D01*
X117451389Y-124141070D01*
X117519170Y-124141487D01*
X117587360Y-124138019D01*
X117650736Y-124130836D01*
X117704077Y-124120109D01*
X117720858Y-124115417D01*
X117822005Y-124077912D01*
X117917937Y-124026574D01*
X118007836Y-123962436D01*
X118090884Y-123886529D01*
X118166265Y-123799887D01*
X118233161Y-123703541D01*
X118290753Y-123598525D01*
X118338226Y-123485870D01*
X118374760Y-123366609D01*
X118399540Y-123241775D01*
X118413238Y-123121138D01*
X118418731Y-122975677D01*
X118411616Y-122835912D01*
X118392084Y-122702577D01*
X118360329Y-122576406D01*
X118316544Y-122458134D01*
X118260922Y-122348494D01*
X118193655Y-122248221D01*
X118114937Y-122158049D01*
X118081581Y-122125931D01*
X118008588Y-122064766D01*
X117934347Y-122014227D01*
X117861003Y-121975685D01*
X117790698Y-121950514D01*
X117749566Y-121942009D01*
X117685785Y-121935079D01*
X117617671Y-121933376D01*
X117551211Y-121936991D01*
X117492391Y-121946013D01*
X117403846Y-121970447D01*
X117311651Y-122007772D01*
X117223386Y-122057068D01*
X117136994Y-122119499D01*
X117050418Y-122196230D01*
X116989868Y-122254642D01*
X116989868Y-122023925D01*
X116989868Y-121793208D01*
X117058231Y-121788094D01*
X117143267Y-121781893D01*
X117271266Y-121773318D01*
X117385899Y-121766764D01*
X117488489Y-121762249D01*
X117580363Y-121759792D01*
X117662844Y-121759412D01*
X117737258Y-121761127D01*
G37*
G36*
X116533584Y-123358469D02*
G01*
X116563745Y-123435598D01*
X116598355Y-123520014D01*
X116650837Y-123641972D01*
X116708034Y-123769006D01*
X116768063Y-123897120D01*
X116829042Y-124022318D01*
X116889089Y-124140605D01*
X116946323Y-124247984D01*
X116951639Y-124257703D01*
X116969706Y-124291261D01*
X116984325Y-124319219D01*
X116994111Y-124338894D01*
X116997681Y-124347600D01*
X116992822Y-124348935D01*
X116974326Y-124350450D01*
X116943980Y-124351741D01*
X116903879Y-124352744D01*
X116856117Y-124353393D01*
X116802788Y-124353624D01*
X116607896Y-124353624D01*
X116628922Y-124308699D01*
X116633535Y-124298616D01*
X116640993Y-124279738D01*
X116645785Y-124260985D01*
X116648491Y-124238422D01*
X116649695Y-124208109D01*
X116649976Y-124166112D01*
X116650003Y-124068450D01*
X116515750Y-123826247D01*
X116381496Y-123584045D01*
X116094310Y-123584045D01*
X115807124Y-123584045D01*
X115639425Y-123968834D01*
X115471725Y-124353624D01*
X115261987Y-124353624D01*
X115260836Y-124353624D01*
X115205513Y-124353511D01*
X115155721Y-124353201D01*
X115113480Y-124352724D01*
X115080808Y-124352109D01*
X115059725Y-124351385D01*
X115052248Y-124350581D01*
X115053443Y-124347747D01*
X115060551Y-124332807D01*
X115073342Y-124306562D01*
X115090991Y-124270688D01*
X115112672Y-124226861D01*
X115137558Y-124176757D01*
X115164825Y-124122051D01*
X115190639Y-124070123D01*
X115259620Y-123928850D01*
X115324693Y-123791484D01*
X115386871Y-123655653D01*
X115447168Y-123518990D01*
X115506598Y-123379125D01*
X115532213Y-123316594D01*
X115958554Y-123316594D01*
X115959786Y-123317284D01*
X115972857Y-123318890D01*
X115998401Y-123320272D01*
X116034168Y-123321354D01*
X116077907Y-123322058D01*
X116127369Y-123322310D01*
X116131295Y-123322310D01*
X116188091Y-123322096D01*
X116230881Y-123321436D01*
X116261191Y-123320242D01*
X116280544Y-123318422D01*
X116290466Y-123315886D01*
X116292479Y-123312544D01*
X116291630Y-123310302D01*
X116285962Y-123295335D01*
X116275759Y-123268388D01*
X116261729Y-123231332D01*
X116244579Y-123186033D01*
X116225016Y-123134360D01*
X116203747Y-123078181D01*
X116194317Y-123053335D01*
X116173770Y-122999666D01*
X116155200Y-122951788D01*
X116139309Y-122911470D01*
X116126797Y-122880480D01*
X116118365Y-122860587D01*
X116114715Y-122853558D01*
X116113658Y-122855436D01*
X116108274Y-122869224D01*
X116099116Y-122894581D01*
X116086916Y-122929338D01*
X116072405Y-122971325D01*
X116056315Y-123018373D01*
X116039378Y-123068312D01*
X116022325Y-123118972D01*
X116005888Y-123168185D01*
X115990799Y-123213780D01*
X115977789Y-123253588D01*
X115967591Y-123285439D01*
X115960935Y-123307165D01*
X115958554Y-123316594D01*
X115532213Y-123316594D01*
X115566174Y-123233687D01*
X115626911Y-123080307D01*
X115689821Y-122916615D01*
X115755919Y-122740243D01*
X115863089Y-122451163D01*
X116062149Y-122449080D01*
X116121565Y-122448529D01*
X116169726Y-122448332D01*
X116206082Y-122448625D01*
X116232575Y-122449515D01*
X116251150Y-122451113D01*
X116263750Y-122453528D01*
X116272320Y-122456868D01*
X116278802Y-122461243D01*
X116282882Y-122465202D01*
X116293695Y-122488331D01*
X116296368Y-122522123D01*
X116290640Y-122564297D01*
X116290072Y-122568847D01*
X116291759Y-122592342D01*
X116298382Y-122628486D01*
X116309477Y-122675793D01*
X116324575Y-122732776D01*
X116343213Y-122797947D01*
X116364922Y-122869819D01*
X116389237Y-122946903D01*
X116415692Y-123027714D01*
X116443820Y-123110763D01*
X116473156Y-123194564D01*
X116503233Y-123277628D01*
X116516342Y-123312544D01*
X116533584Y-123358469D01*
G37*
G36*
X116380455Y-120759007D02*
G01*
X116380455Y-120765041D01*
X116380422Y-120906804D01*
X116380330Y-121044308D01*
X116380183Y-121176740D01*
X116379983Y-121303289D01*
X116379734Y-121423143D01*
X116379439Y-121535490D01*
X116379101Y-121639518D01*
X116378724Y-121734416D01*
X116378310Y-121819371D01*
X116377864Y-121893571D01*
X116377387Y-121956205D01*
X116376884Y-122006460D01*
X116376357Y-122043526D01*
X116375810Y-122066589D01*
X116375246Y-122074838D01*
X116372995Y-122075177D01*
X116357256Y-122075842D01*
X116327356Y-122076478D01*
X116284277Y-122077080D01*
X116228996Y-122077643D01*
X116162494Y-122078160D01*
X116085749Y-122078627D01*
X115999741Y-122079037D01*
X115905449Y-122079386D01*
X115803854Y-122079666D01*
X115695933Y-122079874D01*
X115582667Y-122080002D01*
X115465034Y-122080046D01*
X114560031Y-122080046D01*
X114560523Y-120769419D01*
X114560658Y-120409234D01*
X115286638Y-120409234D01*
X115286638Y-120603393D01*
X115470243Y-120603393D01*
X115653848Y-120603393D01*
X115653848Y-120414835D01*
X115653805Y-120380269D01*
X115653325Y-120320459D01*
X115652035Y-120273134D01*
X115649591Y-120236189D01*
X115645653Y-120207519D01*
X115639878Y-120185019D01*
X115631923Y-120166585D01*
X115621446Y-120150112D01*
X115608105Y-120133494D01*
X115603891Y-120128709D01*
X115566237Y-120096861D01*
X115522269Y-120078371D01*
X115469824Y-120072282D01*
X115445671Y-120073555D01*
X115395229Y-120085875D01*
X115351944Y-120110108D01*
X115317987Y-120144804D01*
X115295530Y-120188518D01*
X115292664Y-120203961D01*
X115290081Y-120235251D01*
X115288192Y-120280483D01*
X115287032Y-120338772D01*
X115286638Y-120409234D01*
X114560658Y-120409234D01*
X114561016Y-119458791D01*
X114610938Y-119415820D01*
X114631706Y-119399152D01*
X114662931Y-119376973D01*
X114695733Y-119356114D01*
X114726630Y-119338641D01*
X114752144Y-119326619D01*
X114768794Y-119322114D01*
X114769446Y-119322196D01*
X114773680Y-119328652D01*
X114776824Y-119346431D01*
X114779046Y-119376963D01*
X114780514Y-119421680D01*
X114782701Y-119521295D01*
X114819324Y-119523656D01*
X114848846Y-119521841D01*
X114881788Y-119512456D01*
X114909566Y-119497390D01*
X114926980Y-119478812D01*
X114927337Y-119478046D01*
X114930347Y-119463250D01*
X114932799Y-119436734D01*
X114934449Y-119402010D01*
X114935054Y-119362592D01*
X114935054Y-119261460D01*
X114986741Y-119248476D01*
X115019513Y-119241591D01*
X115060923Y-119235042D01*
X115099795Y-119230761D01*
X115161161Y-119226028D01*
X115163349Y-119330690D01*
X115165537Y-119435352D01*
X115217702Y-119437649D01*
X115223076Y-119437846D01*
X115265757Y-119436052D01*
X115297785Y-119428282D01*
X115325703Y-119416617D01*
X115325703Y-119310743D01*
X115325703Y-119204869D01*
X115446804Y-119204869D01*
X115567905Y-119204869D01*
X115567905Y-119310070D01*
X115567905Y-119311142D01*
X115568048Y-119353307D01*
X115568736Y-119382583D01*
X115570367Y-119401649D01*
X115573340Y-119413183D01*
X115578053Y-119419863D01*
X115584905Y-119424368D01*
X115601543Y-119430170D01*
X115631135Y-119435209D01*
X115664706Y-119437513D01*
X115695886Y-119436698D01*
X115718305Y-119432382D01*
X115739791Y-119424020D01*
X115739791Y-119322257D01*
X115739792Y-119312094D01*
X115739936Y-119273690D01*
X115740635Y-119247874D01*
X115742336Y-119232146D01*
X115745482Y-119224007D01*
X115750518Y-119220957D01*
X115757888Y-119220495D01*
X115766423Y-119220873D01*
X115794665Y-119224205D01*
X115832479Y-119230430D01*
X115876020Y-119238879D01*
X115921443Y-119248886D01*
X115974180Y-119261243D01*
X115974180Y-119368422D01*
X115974180Y-119368777D01*
X115974334Y-119411801D01*
X115975060Y-119442056D01*
X115976763Y-119462379D01*
X115979845Y-119475605D01*
X115984709Y-119484570D01*
X115991759Y-119492111D01*
X116008144Y-119503106D01*
X116038249Y-119514516D01*
X116071448Y-119520688D01*
X116100683Y-119519824D01*
X116122627Y-119515435D01*
X116122627Y-119415304D01*
X116122636Y-119409662D01*
X116123209Y-119372404D01*
X116124537Y-119341561D01*
X116126440Y-119320202D01*
X116128737Y-119311397D01*
X116139335Y-119311989D01*
X116160659Y-119319297D01*
X116189691Y-119331989D01*
X116223594Y-119348612D01*
X116259530Y-119367711D01*
X116294661Y-119387834D01*
X116326149Y-119407526D01*
X116351156Y-119425334D01*
X116380455Y-119448385D01*
X116380455Y-120414835D01*
X116380455Y-120759007D01*
G37*
G36*
X113302141Y-120766529D02*
G01*
X113302110Y-120907863D01*
X113302020Y-121045152D01*
X113301874Y-121177401D01*
X113301676Y-121303796D01*
X113301427Y-121423521D01*
X113301133Y-121535763D01*
X113300795Y-121639707D01*
X113300417Y-121734540D01*
X113300003Y-121819446D01*
X113299556Y-121893612D01*
X113299078Y-121956223D01*
X113298574Y-122006466D01*
X113298046Y-122043525D01*
X113297498Y-122066587D01*
X113296932Y-122074838D01*
X113294680Y-122075177D01*
X113278941Y-122075842D01*
X113249042Y-122076478D01*
X113205962Y-122077080D01*
X113150682Y-122077643D01*
X113084179Y-122078160D01*
X113007434Y-122078627D01*
X112921427Y-122079037D01*
X112827135Y-122079386D01*
X112725539Y-122079666D01*
X112617619Y-122079874D01*
X112504352Y-122080002D01*
X112386720Y-122080046D01*
X111481716Y-122080046D01*
X111481716Y-120760405D01*
X111481716Y-120207733D01*
X112208323Y-120207733D01*
X112208323Y-120405563D01*
X112208323Y-120603393D01*
X112391929Y-120603393D01*
X112575534Y-120603393D01*
X112575534Y-120417299D01*
X112575432Y-120371555D01*
X112574688Y-120311060D01*
X112572888Y-120262908D01*
X112569645Y-120225097D01*
X112564572Y-120195622D01*
X112557281Y-120172479D01*
X112547384Y-120153665D01*
X112534493Y-120137176D01*
X112518222Y-120121008D01*
X112494670Y-120101653D01*
X112459982Y-120082897D01*
X112420674Y-120074011D01*
X112372019Y-120073458D01*
X112334084Y-120078515D01*
X112291405Y-120094890D01*
X112257324Y-120123401D01*
X112229809Y-120165362D01*
X112208323Y-120207733D01*
X111481716Y-120207733D01*
X111481716Y-119440763D01*
X111545508Y-119399843D01*
X111563383Y-119388784D01*
X111594961Y-119370507D01*
X111629124Y-119351848D01*
X111662657Y-119334459D01*
X111692343Y-119319994D01*
X111714967Y-119310102D01*
X111727313Y-119306438D01*
X111727646Y-119306727D01*
X111729245Y-119316743D01*
X111730543Y-119338926D01*
X111731413Y-119370378D01*
X111731732Y-119408200D01*
X111731733Y-119416506D01*
X111731882Y-119455546D01*
X111732615Y-119482108D01*
X111734397Y-119498873D01*
X111737697Y-119508519D01*
X111742981Y-119513729D01*
X111750715Y-119517180D01*
X111772394Y-119521354D01*
X111803979Y-119519124D01*
X111835968Y-119510230D01*
X111863058Y-119496248D01*
X111879947Y-119478756D01*
X111880345Y-119477887D01*
X111883329Y-119462943D01*
X111885759Y-119436307D01*
X111887393Y-119401475D01*
X111887991Y-119361944D01*
X111887991Y-119260163D01*
X111917290Y-119252467D01*
X111925578Y-119250418D01*
X111953624Y-119244400D01*
X111988231Y-119237802D01*
X112025025Y-119231369D01*
X112059634Y-119225849D01*
X112087684Y-119221984D01*
X112104802Y-119220520D01*
X112106136Y-119220523D01*
X112112898Y-119221316D01*
X112117463Y-119225242D01*
X112120262Y-119234802D01*
X112121727Y-119252492D01*
X112122289Y-119280811D01*
X112122381Y-119322257D01*
X112122381Y-119424020D01*
X112142422Y-119431639D01*
X112149823Y-119434066D01*
X112180301Y-119438700D01*
X112213799Y-119437679D01*
X112245711Y-119431751D01*
X112271433Y-119421667D01*
X112286361Y-119408179D01*
X112289356Y-119395515D01*
X112291907Y-119370571D01*
X112293632Y-119337222D01*
X112294266Y-119299139D01*
X112294266Y-119204869D01*
X112411461Y-119204869D01*
X112528656Y-119204869D01*
X112528656Y-119306258D01*
X112528656Y-119407647D01*
X112549773Y-119421499D01*
X112566778Y-119429307D01*
X112592553Y-119433953D01*
X112629856Y-119435352D01*
X112688822Y-119435352D01*
X112691002Y-119331830D01*
X112693182Y-119228308D01*
X112731157Y-119228308D01*
X112733527Y-119228328D01*
X112760932Y-119230185D01*
X112795375Y-119234505D01*
X112832336Y-119240490D01*
X112867299Y-119247341D01*
X112895746Y-119254261D01*
X112913159Y-119260452D01*
X112916252Y-119262457D01*
X112921037Y-119268734D01*
X112924188Y-119280193D01*
X112926034Y-119299444D01*
X112926901Y-119329096D01*
X112927118Y-119371761D01*
X112927240Y-119410175D01*
X112927921Y-119441069D01*
X112929584Y-119461811D01*
X112932652Y-119475295D01*
X112937549Y-119484415D01*
X112944697Y-119492067D01*
X112956854Y-119502016D01*
X112994189Y-119519488D01*
X113040915Y-119525202D01*
X113075564Y-119525202D01*
X113075564Y-119423633D01*
X113075572Y-119414246D01*
X113075935Y-119374829D01*
X113077034Y-119348239D01*
X113079146Y-119332139D01*
X113082546Y-119324193D01*
X113087507Y-119322064D01*
X113093528Y-119322772D01*
X113116268Y-119330766D01*
X113146360Y-119346079D01*
X113180458Y-119366739D01*
X113215214Y-119390774D01*
X113247281Y-119416213D01*
X113302141Y-119463429D01*
X113302141Y-120417299D01*
X113302141Y-120766529D01*
G37*
G36*
X114538908Y-122421099D02*
G01*
X114592621Y-122426315D01*
X114640592Y-122434670D01*
X114684496Y-122446284D01*
X114726008Y-122461277D01*
X114766802Y-122479766D01*
X114794304Y-122494498D01*
X114852294Y-122535208D01*
X114900680Y-122585030D01*
X114940433Y-122645323D01*
X114972525Y-122717443D01*
X114997927Y-122802747D01*
X114998932Y-122806994D01*
X115008917Y-122867201D01*
X115012680Y-122930788D01*
X115010141Y-122991886D01*
X115001220Y-123044625D01*
X114994171Y-123069019D01*
X114975019Y-123117245D01*
X114948546Y-123162932D01*
X114912631Y-123209442D01*
X114865153Y-123260134D01*
X114837807Y-123286703D01*
X114807506Y-123314009D01*
X114775605Y-123340085D01*
X114740071Y-123366360D01*
X114698873Y-123394262D01*
X114649978Y-123425219D01*
X114591353Y-123460660D01*
X114520966Y-123502014D01*
X114444891Y-123546946D01*
X114371218Y-123592241D01*
X114309971Y-123632239D01*
X114260226Y-123667638D01*
X114221064Y-123699137D01*
X114191562Y-123727434D01*
X114170800Y-123753226D01*
X114157857Y-123777212D01*
X114155031Y-123784932D01*
X114145485Y-123825127D01*
X114140288Y-123872310D01*
X114139911Y-123919859D01*
X114144822Y-123961153D01*
X114153101Y-123991930D01*
X114180027Y-124053154D01*
X114218177Y-124107829D01*
X114265397Y-124153176D01*
X114319531Y-124186418D01*
X114334533Y-124193174D01*
X114353656Y-124200526D01*
X114372388Y-124205120D01*
X114394733Y-124207557D01*
X114424695Y-124208434D01*
X114466275Y-124208349D01*
X114517591Y-124206665D01*
X114594270Y-124197591D01*
X114661691Y-124179672D01*
X114722813Y-124151734D01*
X114780596Y-124112606D01*
X114838002Y-124061115D01*
X114845939Y-124053014D01*
X114878177Y-124017412D01*
X114911048Y-123977716D01*
X114938537Y-123941106D01*
X114952201Y-123921852D01*
X114969177Y-123899006D01*
X114981361Y-123883950D01*
X114986753Y-123879249D01*
X114988431Y-123887059D01*
X114991487Y-123908025D01*
X114995565Y-123939624D01*
X115000343Y-123979359D01*
X115005500Y-124024733D01*
X115021263Y-124167233D01*
X115005265Y-124189699D01*
X114998428Y-124198650D01*
X114968159Y-124230631D01*
X114929543Y-124263637D01*
X114887262Y-124293905D01*
X114846002Y-124317671D01*
X114825319Y-124327222D01*
X114753840Y-124353148D01*
X114674461Y-124372859D01*
X114592548Y-124384929D01*
X114584587Y-124385611D01*
X114548050Y-124387651D01*
X114502370Y-124389017D01*
X114452594Y-124389593D01*
X114403771Y-124389263D01*
X114367188Y-124388481D01*
X114327040Y-124386918D01*
X114295788Y-124384357D01*
X114269516Y-124380307D01*
X114244312Y-124374279D01*
X114216260Y-124365782D01*
X114158092Y-124344436D01*
X114066401Y-124298982D01*
X113983319Y-124242435D01*
X113910573Y-124176044D01*
X113849891Y-124101056D01*
X113839709Y-124085393D01*
X113812339Y-124036381D01*
X113785978Y-123980432D01*
X113763362Y-123923651D01*
X113747229Y-123872139D01*
X113741738Y-123848511D01*
X113732586Y-123775319D01*
X113736972Y-123707011D01*
X113755241Y-123642889D01*
X113787739Y-123582256D01*
X113834810Y-123524415D01*
X113896801Y-123468669D01*
X113974057Y-123414320D01*
X113974480Y-123414052D01*
X113995323Y-123401507D01*
X114026846Y-123383311D01*
X114066054Y-123361155D01*
X114109953Y-123336733D01*
X114155546Y-123311739D01*
X114194985Y-123290198D01*
X114262961Y-123252427D01*
X114319795Y-123219687D01*
X114367378Y-123190706D01*
X114407600Y-123164208D01*
X114442351Y-123138920D01*
X114473522Y-123113568D01*
X114503003Y-123086878D01*
X114532685Y-123057575D01*
X114580304Y-123002216D01*
X114625764Y-122930093D01*
X114657299Y-122853738D01*
X114674071Y-122774827D01*
X114675349Y-122757407D01*
X114672331Y-122725105D01*
X114660401Y-122696454D01*
X114638057Y-122669376D01*
X114603798Y-122641796D01*
X114556124Y-122611636D01*
X114508273Y-122586176D01*
X114448678Y-122563298D01*
X114389680Y-122551846D01*
X114327041Y-122550693D01*
X114305565Y-122552163D01*
X114270036Y-122556526D01*
X114236229Y-122564022D01*
X114200317Y-122575800D01*
X114158475Y-122593009D01*
X114106878Y-122616797D01*
X114083808Y-122627677D01*
X114034086Y-122650478D01*
X113990261Y-122669683D01*
X113954356Y-122684447D01*
X113928390Y-122693925D01*
X113914385Y-122697272D01*
X113912197Y-122696747D01*
X113908100Y-122690379D01*
X113905502Y-122675022D01*
X113904137Y-122648469D01*
X113903740Y-122608513D01*
X113903986Y-122579181D01*
X113905013Y-122540065D01*
X113906654Y-122506493D01*
X113908709Y-122483505D01*
X113913677Y-122447256D01*
X113965353Y-122447157D01*
X113978846Y-122446897D01*
X114011823Y-122445460D01*
X114053989Y-122442982D01*
X114101335Y-122439708D01*
X114149849Y-122435883D01*
X114233142Y-122429253D01*
X114326570Y-122423101D01*
X114407557Y-122419611D01*
X114477778Y-122418905D01*
X114538908Y-122421099D01*
G37*
G36*
X110155528Y-121790973D02*
G01*
X110260809Y-121791047D01*
X110361122Y-121791199D01*
X110455400Y-121791421D01*
X110542577Y-121791709D01*
X110621589Y-121792057D01*
X110691368Y-121792458D01*
X110750851Y-121792907D01*
X110798970Y-121793399D01*
X110834660Y-121793926D01*
X110856855Y-121794484D01*
X110864491Y-121795067D01*
X110864279Y-121795994D01*
X110859510Y-121807293D01*
X110849747Y-121827964D01*
X110836694Y-121854367D01*
X110829534Y-121869316D01*
X110813338Y-121906719D01*
X110796607Y-121949126D01*
X110782003Y-121989935D01*
X110755109Y-122070306D01*
X110755153Y-122823269D01*
X110755155Y-122836676D01*
X110755263Y-122948081D01*
X110755528Y-123057926D01*
X110755936Y-123164803D01*
X110756477Y-123267306D01*
X110757138Y-123364029D01*
X110757907Y-123453564D01*
X110758773Y-123534507D01*
X110759723Y-123605449D01*
X110760745Y-123664985D01*
X110761828Y-123711708D01*
X110762960Y-123744211D01*
X110766197Y-123811893D01*
X110770863Y-123899028D01*
X110775661Y-123973262D01*
X110780841Y-124036215D01*
X110786656Y-124089506D01*
X110793358Y-124134752D01*
X110801200Y-124173573D01*
X110810431Y-124207588D01*
X110821306Y-124238415D01*
X110834075Y-124267672D01*
X110848991Y-124296979D01*
X110879470Y-124353624D01*
X110103028Y-124353624D01*
X109326586Y-124353624D01*
X109313732Y-124296979D01*
X109310361Y-124282346D01*
X109302794Y-124250056D01*
X109292707Y-124207409D01*
X109280781Y-124157275D01*
X109267698Y-124102526D01*
X109254139Y-124046031D01*
X109243178Y-123999988D01*
X109231941Y-123951649D01*
X109222618Y-123910277D01*
X109215659Y-123877923D01*
X109211518Y-123856641D01*
X109210645Y-123848482D01*
X109215831Y-123850860D01*
X109230662Y-123861610D01*
X109252553Y-123879106D01*
X109278995Y-123901405D01*
X109312780Y-123929674D01*
X109426122Y-124012314D01*
X109543890Y-124079971D01*
X109666111Y-124132656D01*
X109792810Y-124170378D01*
X109924016Y-124193148D01*
X110059754Y-124200975D01*
X110110657Y-124200542D01*
X110154117Y-124198363D01*
X110187527Y-124193817D01*
X110213774Y-124186301D01*
X110235748Y-124175211D01*
X110256339Y-124159946D01*
X110258209Y-124158377D01*
X110267098Y-124150795D01*
X110274694Y-124143271D01*
X110281098Y-124134601D01*
X110286412Y-124123576D01*
X110290738Y-124108991D01*
X110294176Y-124089639D01*
X110296830Y-124064314D01*
X110298800Y-124031808D01*
X110300188Y-123990915D01*
X110301095Y-123940430D01*
X110301624Y-123879144D01*
X110301877Y-123805852D01*
X110301953Y-123719348D01*
X110301956Y-123618424D01*
X110301956Y-123148363D01*
X110274054Y-123122048D01*
X110246153Y-123095734D01*
X110111935Y-123095911D01*
X110002644Y-123097654D01*
X109899128Y-123102935D01*
X109808838Y-123111686D01*
X109732291Y-123123841D01*
X109670004Y-123139335D01*
X109622493Y-123158102D01*
X109613842Y-123162432D01*
X109596303Y-123170616D01*
X109587380Y-123173864D01*
X109586601Y-123170689D01*
X109585494Y-123154270D01*
X109584548Y-123125770D01*
X109583811Y-123087341D01*
X109583332Y-123041135D01*
X109583162Y-122989306D01*
X109583162Y-122804748D01*
X109600741Y-122817728D01*
X109621576Y-122831148D01*
X109661833Y-122851755D01*
X109710331Y-122872262D01*
X109762860Y-122890932D01*
X109815210Y-122906034D01*
X109834789Y-122910835D01*
X109863545Y-122917166D01*
X109890321Y-122921641D01*
X109918637Y-122924584D01*
X109952013Y-122926319D01*
X109993972Y-122927171D01*
X110048034Y-122927463D01*
X110091067Y-122927468D01*
X110133132Y-122927097D01*
X110164310Y-122926086D01*
X110187240Y-122924198D01*
X110204561Y-122921196D01*
X110218909Y-122916846D01*
X110232924Y-122910910D01*
X110245227Y-122904504D01*
X110266328Y-122889955D01*
X110278845Y-122876358D01*
X110282646Y-122862661D01*
X110286736Y-122835227D01*
X110290799Y-122796713D01*
X110294706Y-122749448D01*
X110298329Y-122695760D01*
X110301539Y-122637978D01*
X110304207Y-122578428D01*
X110306205Y-122519440D01*
X110307403Y-122463342D01*
X110307674Y-122412461D01*
X110306888Y-122369127D01*
X110306820Y-122367201D01*
X110303767Y-122300078D01*
X110299478Y-122243779D01*
X110293390Y-122193636D01*
X110284939Y-122144983D01*
X110273562Y-122093153D01*
X110269378Y-122075913D01*
X110263187Y-122056419D01*
X110254681Y-122042877D01*
X110241220Y-122033727D01*
X110220162Y-122027409D01*
X110188868Y-122022365D01*
X110144698Y-122017033D01*
X110116936Y-122014225D01*
X109996643Y-122011223D01*
X109874434Y-122022203D01*
X109752908Y-122046533D01*
X109634664Y-122083583D01*
X109522300Y-122132723D01*
X109418415Y-122193320D01*
X109400049Y-122205437D01*
X109375772Y-122220820D01*
X109358632Y-122230867D01*
X109351509Y-122233833D01*
X109351404Y-122233523D01*
X109350978Y-122223037D01*
X109350928Y-122199251D01*
X109351230Y-122164167D01*
X109351862Y-122119783D01*
X109352801Y-122068101D01*
X109354025Y-122011121D01*
X109359099Y-121790966D01*
X110111795Y-121790966D01*
X110155528Y-121790973D01*
G37*
G36*
X114614722Y-119227486D02*
G01*
X114399865Y-119310904D01*
X114397881Y-120277481D01*
X114397630Y-120389832D01*
X114397624Y-120392054D01*
X114397324Y-120507306D01*
X114396987Y-120619498D01*
X114396624Y-120725468D01*
X114396238Y-120824277D01*
X114395836Y-120914983D01*
X114395422Y-120996646D01*
X114395000Y-121068325D01*
X114394576Y-121129081D01*
X114394155Y-121177972D01*
X114393740Y-121214059D01*
X114393337Y-121236401D01*
X114392951Y-121244057D01*
X114392833Y-121244048D01*
X114383873Y-121241218D01*
X114364523Y-121234319D01*
X114338759Y-121224768D01*
X114325125Y-121219728D01*
X114279576Y-121204521D01*
X114234806Y-121192625D01*
X114188087Y-121183678D01*
X114136691Y-121177319D01*
X114077893Y-121173185D01*
X114008965Y-121170914D01*
X113927179Y-121170145D01*
X113884542Y-121170124D01*
X113830181Y-121170366D01*
X113787090Y-121171087D01*
X113752630Y-121172453D01*
X113724162Y-121174628D01*
X113699048Y-121177780D01*
X113674648Y-121182074D01*
X113648323Y-121187676D01*
X113636093Y-121190463D01*
X113546827Y-121214083D01*
X113472104Y-121240173D01*
X113471602Y-121240348D01*
X113469633Y-121240221D01*
X113467865Y-121238101D01*
X113466288Y-121233187D01*
X113464886Y-121224677D01*
X113463648Y-121211769D01*
X113462560Y-121193661D01*
X113461609Y-121169550D01*
X113460782Y-121138635D01*
X113460067Y-121100115D01*
X113459450Y-121053186D01*
X113458917Y-120997047D01*
X113458457Y-120930896D01*
X113458056Y-120853931D01*
X113457700Y-120765350D01*
X113457378Y-120664351D01*
X113457075Y-120550132D01*
X113456780Y-120421891D01*
X113456709Y-120388148D01*
X113708416Y-120388148D01*
X113708416Y-120611206D01*
X113923273Y-120611206D01*
X114138130Y-120611206D01*
X114138130Y-120392054D01*
X114138091Y-120336900D01*
X114137725Y-120278233D01*
X114136649Y-120232031D01*
X114134481Y-120196513D01*
X114130836Y-120169897D01*
X114125334Y-120150401D01*
X114117591Y-120136246D01*
X114107223Y-120125650D01*
X114093849Y-120116831D01*
X114077085Y-120108008D01*
X114051688Y-120096818D01*
X113993722Y-120080585D01*
X113931330Y-120073369D01*
X113868792Y-120075198D01*
X113810385Y-120086096D01*
X113760387Y-120106090D01*
X113750164Y-120111898D01*
X113737926Y-120120177D01*
X113728348Y-120129933D01*
X113721105Y-120142935D01*
X113715870Y-120160951D01*
X113712317Y-120185750D01*
X113710122Y-120219101D01*
X113708957Y-120262772D01*
X113708497Y-120318531D01*
X113708416Y-120388148D01*
X113456709Y-120388148D01*
X113456478Y-120278826D01*
X113454730Y-119426767D01*
X113708416Y-119426767D01*
X113708416Y-119634583D01*
X113851756Y-119634583D01*
X113887597Y-119634727D01*
X113940508Y-119635392D01*
X113990892Y-119636504D01*
X114034382Y-119637961D01*
X114066613Y-119639660D01*
X114138130Y-119644736D01*
X114138130Y-119430523D01*
X114138130Y-119216310D01*
X114118760Y-119187805D01*
X114101412Y-119167589D01*
X114064373Y-119141288D01*
X114018301Y-119122226D01*
X113966318Y-119110755D01*
X113911547Y-119107224D01*
X113857109Y-119111984D01*
X113806129Y-119125384D01*
X113761729Y-119147776D01*
X113758032Y-119150288D01*
X113743809Y-119160881D01*
X113732596Y-119172144D01*
X113724037Y-119185946D01*
X113717776Y-119204157D01*
X113713453Y-119228645D01*
X113710714Y-119261281D01*
X113709199Y-119303933D01*
X113708552Y-119358472D01*
X113708416Y-119426767D01*
X113454730Y-119426767D01*
X113454494Y-119311947D01*
X113261402Y-119229110D01*
X113210389Y-119207044D01*
X113163278Y-119186317D01*
X113122662Y-119168089D01*
X113090515Y-119153258D01*
X113068811Y-119142721D01*
X113059524Y-119137375D01*
X113058008Y-119133789D01*
X113056147Y-119120374D01*
X113054847Y-119096604D01*
X113054098Y-119061603D01*
X113053893Y-119014494D01*
X113054225Y-118954398D01*
X113055086Y-118880439D01*
X113056467Y-118791741D01*
X113062196Y-118455004D01*
X113098428Y-118431753D01*
X113109821Y-118424818D01*
X113136198Y-118410214D01*
X113167045Y-118394357D01*
X113198721Y-118378990D01*
X113227587Y-118365854D01*
X113250004Y-118356695D01*
X113262330Y-118353254D01*
X113265340Y-118358098D01*
X113268562Y-118377103D01*
X113271034Y-118409168D01*
X113272609Y-118452870D01*
X113274795Y-118552485D01*
X113301114Y-118555003D01*
X113323228Y-118554424D01*
X113359352Y-118544657D01*
X113390037Y-118526549D01*
X113391911Y-118524807D01*
X113397011Y-118517114D01*
X113400421Y-118504596D01*
X113402461Y-118484554D01*
X113403451Y-118454289D01*
X113403710Y-118411102D01*
X113403733Y-118402392D01*
X113404418Y-118364722D01*
X113405906Y-118333596D01*
X113408006Y-118312042D01*
X113410528Y-118303085D01*
X113417014Y-118300709D01*
X113436712Y-118295369D01*
X113465791Y-118288297D01*
X113500818Y-118280248D01*
X113538358Y-118271973D01*
X113574977Y-118264227D01*
X113607240Y-118257762D01*
X113631713Y-118253330D01*
X113644962Y-118251686D01*
X113646243Y-118251695D01*
X113652522Y-118252681D01*
X113656795Y-118257035D01*
X113659448Y-118267208D01*
X113660866Y-118285653D01*
X113661434Y-118314820D01*
X113661538Y-118357161D01*
X113661538Y-118462636D01*
X113701116Y-118462636D01*
X113722862Y-118462417D01*
X113743018Y-118460293D01*
X113756565Y-118453978D01*
X113764815Y-118441186D01*
X113769082Y-118419629D01*
X113770679Y-118387019D01*
X113770920Y-118341071D01*
X113770920Y-118235682D01*
X113901787Y-118237824D01*
X114032654Y-118239966D01*
X114034830Y-118342801D01*
X114037005Y-118445636D01*
X114061388Y-118454136D01*
X114073403Y-118457517D01*
X114103586Y-118461840D01*
X114133978Y-118462064D01*
X114157023Y-118457894D01*
X114158136Y-118457398D01*
X114162929Y-118452391D01*
X114166171Y-118441555D01*
X114168141Y-118422442D01*
X114169118Y-118392605D01*
X114169382Y-118349596D01*
X114169384Y-118336789D01*
X114169538Y-118298761D01*
X114170241Y-118273292D01*
X114171915Y-118257970D01*
X114174979Y-118250380D01*
X114179854Y-118248112D01*
X114186961Y-118248753D01*
X114224040Y-118254581D01*
X114277584Y-118263402D01*
X114323565Y-118271478D01*
X114359344Y-118278341D01*
X114382285Y-118283521D01*
X114411584Y-118291353D01*
X114411584Y-118398695D01*
X114411662Y-118421674D01*
X114412745Y-118465128D01*
X114415780Y-118496446D01*
X114421627Y-118518057D01*
X114431141Y-118532392D01*
X114445181Y-118541880D01*
X114464604Y-118548952D01*
X114488963Y-118553556D01*
X114515106Y-118549374D01*
X114536592Y-118541153D01*
X114536592Y-118434648D01*
X114536702Y-118395825D01*
X114537268Y-118365308D01*
X114538600Y-118346103D01*
X114541004Y-118335935D01*
X114544790Y-118332530D01*
X114550264Y-118333613D01*
X114551014Y-118333910D01*
X114564797Y-118339149D01*
X114589589Y-118348415D01*
X114622115Y-118360489D01*
X114659105Y-118374151D01*
X114698188Y-118389263D01*
X114737821Y-118405904D01*
X114771907Y-118421508D01*
X114795832Y-118434051D01*
X114837391Y-118458882D01*
X114839399Y-118708821D01*
X114839536Y-118728277D01*
X114839729Y-118794762D01*
X114839531Y-118860041D01*
X114838976Y-118921229D01*
X114838096Y-118975442D01*
X114836924Y-119019799D01*
X114835492Y-119051414D01*
X114829578Y-119144068D01*
X114643508Y-119216310D01*
X114614722Y-119227486D01*
G37*
G04 #@! TD*
%LPC*%
D14*
G04 #@! TO.C,SW4*
X88240000Y-101540000D03*
D15*
X85700000Y-101540000D03*
X83160000Y-101540000D03*
G04 #@! TD*
D16*
G04 #@! TO.C,J4*
X64562500Y-106340000D03*
D17*
X67262500Y-107340000D03*
X67262500Y-112340000D03*
D16*
X64562500Y-113340000D03*
G04 #@! TD*
D18*
G04 #@! TO.C,J8*
X117050000Y-130250000D03*
X109070000Y-130250000D03*
G04 #@! TD*
D14*
G04 #@! TO.C,J6*
X70027800Y-133172200D03*
D15*
X67487800Y-133172200D03*
X64947800Y-133172200D03*
G04 #@! TD*
D14*
G04 #@! TO.C,J7*
X84668600Y-133166000D03*
D15*
X82128600Y-133166000D03*
X79588600Y-133166000D03*
G04 #@! TD*
D14*
G04 #@! TO.C,J1*
X120950000Y-113250000D03*
D15*
X120950000Y-115790000D03*
G04 #@! TD*
D14*
G04 #@! TO.C,J5*
X98069400Y-133248400D03*
D15*
X95529400Y-133248400D03*
X92989400Y-133248400D03*
G04 #@! TD*
D14*
G04 #@! TO.C,J3*
X92920000Y-101600000D03*
D15*
X95460000Y-101600000D03*
X98000000Y-101600000D03*
G04 #@! TD*
%LPD*%
M02*
