M48
; DRILL file {KiCad 8.0.7} date 2025-03-03T01:54:19+0200
; FORMAT={-:-/ absolute / metric / decimal}
; #@! TF.CreationDate,2025-03-03T01:54:19+02:00
; #@! TF.GenerationSoftware,Kicad,Pcbnew,8.0.7
; #@! TF.FileFunction,Plated,1,4,PTH
FMAT,2
METRIC
; #@! TA.AperFunction,Plated,PTH,ViaDrill
T1C0.300
; #@! TA.AperFunction,Plated,PTH,ComponentDrill
T2C0.600
; #@! TA.AperFunction,Plated,PTH,ComponentDrill
T3C0.850
; #@! TA.AperFunction,Plated,PTH,ComponentDrill
T4C1.000
%
G90
G05
T1
X64.694Y-122.682
X64.872Y-126.543
X64.922Y-129.692
X65.916Y-125.806
X66.09Y-111.19
X66.11Y-110.39
X66.89Y-120.88
X66.98Y-117.5
X66.99Y-119.16
X66.995Y-103.675
X67.12Y-100.938
X67.462Y-129.692
X68.047Y-105.029
X70.002Y-129.692
X70.917Y-122.326
X71.36Y-125.21
X72.19Y-130.82
X72.735Y-109.331
X72.813Y-108.5
X72.83Y-105.06
X73.17Y-111.19
X74.09Y-112.68
X74.325Y-109.125
X74.45Y-103.9
X74.6Y-106.45
X75.387Y-132.817
X75.59Y-122.504
X75.59Y-124.485
X75.768Y-125.679
X75.844Y-117.348
X75.87Y-119.659
X76.987Y-121.59
X77.425Y-113.425
X78.35Y-108.65
X78.575Y-112.15
X78.625Y-103.9
X79.4Y-126.568
X79.604Y-129.845
X79.654Y-124.229
X79.72Y-125.37
X80.874Y-109.88
X80.975Y-115.265
X81.509Y-119.659
X82.042Y-120.447
X82.144Y-129.896
X82.169Y-116.688
X83.109Y-110.007
X83.13Y-103.2
X83.134Y-112.649
X83.896Y-108.712
X84.684Y-129.845
X85.057Y-119.982
X85.193Y-105.896
X85.531Y-116.388
X85.582Y-107.498
X85.68Y-106.531
X85.72Y-103.11
X85.885Y-105.306
X86.05Y-125.35
X86.5Y-113.449
X86.56Y-110.46
X87.004Y-130.55
X87.206Y-109.853
X87.274Y-113.665
X87.478Y-114.579
X87.605Y-118.313
X87.757Y-125.222
X88.26Y-103.91
X88.265Y-122.072
X88.4Y-104.91
X89.002Y-125.171
X89.078Y-108.814
X89.096Y-107.96
X89.357Y-122.479
X89.789Y-103.2
X89.916Y-133.147
X90.221Y-113.97
X90.451Y-113.204
X90.678Y-119.253
X90.8Y-101.6
X91.415Y-126.263
X91.49Y-103.33
X91.694Y-125.273
X91.798Y-123.351
X92.036Y-112.748
X92.354Y-122.291
X92.431Y-107.137
X92.913Y-130.099
X92.989Y-112.148
X93.396Y-108.331
X94.438Y-108.44
X94.615Y-109.22
X95.148Y-105.044
X95.417Y-115.113
X95.43Y-102.92
X95.485Y-130.232
X95.961Y-111.404
X96.423Y-116.364
X96.452Y-117.583
X96.825Y-119.05
X97.993Y-130.048
X98.26Y-125.46
X98.501Y-107.391
X98.806Y-111.506
X98.958Y-114.376
X99.297Y-126.087
X99.746Y-108.407
X99.847Y-130.75
X100.254Y-113.411
X102.03Y-132.42
X102.387Y-124.028
X103.0Y-125.044
X103.226Y-116.789
X104.292Y-108.839
X105.105Y-116.865
X105.512Y-101.067
X106.91Y-121.79
X107.29Y-131.86
X109.474Y-116.51
X109.521Y-101.041
X110.515Y-110.16
X112.116Y-112.217
X112.42Y-115.164
X113.656Y-100.897
X113.716Y-113.487
X114.402Y-112.547
X114.478Y-117.729
X118.669Y-110.515
X118.999Y-120.955
X119.177Y-115.79
X119.38Y-112.573
X120.015Y-129.286
X120.4Y-105.054
T3
X67.263Y-107.34
X67.263Y-112.34
T4
X64.948Y-133.172
X67.488Y-133.172
X70.028Y-133.172
X79.589Y-133.166
X82.129Y-133.166
X83.16Y-101.54
X84.669Y-133.166
X85.7Y-101.54
X88.24Y-101.54
X92.92Y-101.6
X92.989Y-133.248
X95.46Y-101.6
X95.529Y-133.248
X98.0Y-101.6
X98.069Y-133.248
X120.95Y-113.25
X120.95Y-115.79
T2
G00X64.212Y-106.34
M15
G01X64.912Y-106.34
M16
G05
G00X64.912Y-113.34
M15
G01X64.212Y-113.34
M16
G05
M30
