G04 #@! TF.GenerationSoftware,KiCad,Pcbnew,8.0.7*
G04 #@! TF.CreationDate,2025-03-03T01:54:19+02:00*
G04 #@! TF.ProjectId,slug_v1_0,736c7567-5f76-4315-9f30-2e6b69636164,rev?*
G04 #@! TF.SameCoordinates,Original*
G04 #@! TF.FileFunction,Legend,Top*
G04 #@! TF.FilePolarity,Positive*
%FSLAX46Y46*%
G04 Gerber Fmt 4.6, Leading zero omitted, Abs format (unit mm)*
G04 Created by KiCad (PCBNEW 8.0.7) date 2025-03-03 01:54:19*
%MOMM*%
%LPD*%
G01*
G04 APERTURE LIST*
G04 Aperture macros list*
%AMRoundRect*
0 Rectangle with rounded corners*
0 $1 Rounding radius*
0 $2 $3 $4 $5 $6 $7 $8 $9 X,Y pos of 4 corners*
0 Add a 4 corners polygon primitive as box body*
4,1,4,$2,$3,$4,$5,$6,$7,$8,$9,$2,$3,0*
0 Add four circle primitives for the rounded corners*
1,1,$1+$1,$2,$3*
1,1,$1+$1,$4,$5*
1,1,$1+$1,$6,$7*
1,1,$1+$1,$8,$9*
0 Add four rect primitives between the rounded corners*
20,1,$1+$1,$2,$3,$4,$5,0*
20,1,$1+$1,$4,$5,$6,$7,0*
20,1,$1+$1,$6,$7,$8,$9,0*
20,1,$1+$1,$8,$9,$2,$3,0*%
G04 Aperture macros list end*
%ADD10C,0.100000*%
%ADD11C,0.300000*%
%ADD12C,0.150000*%
%ADD13C,0.120000*%
%ADD14C,0.200000*%
%ADD15R,1.700000X1.700000*%
%ADD16O,1.700000X1.700000*%
%ADD17R,1.350000X0.400000*%
%ADD18O,1.900000X1.200000*%
%ADD19R,1.900000X1.200000*%
%ADD20C,1.450000*%
%ADD21R,1.900000X1.500000*%
%ADD22RoundRect,0.250000X-0.262500X-0.450000X0.262500X-0.450000X0.262500X0.450000X-0.262500X0.450000X0*%
%ADD23RoundRect,0.218750X0.381250X-0.218750X0.381250X0.218750X-0.381250X0.218750X-0.381250X-0.218750X0*%
%ADD24RoundRect,0.243750X-0.243750X-0.456250X0.243750X-0.456250X0.243750X0.456250X-0.243750X0.456250X0*%
%ADD25RoundRect,0.250000X-0.250000X-0.475000X0.250000X-0.475000X0.250000X0.475000X-0.250000X0.475000X0*%
%ADD26RoundRect,0.243750X-0.456250X0.243750X-0.456250X-0.243750X0.456250X-0.243750X0.456250X0.243750X0*%
%ADD27RoundRect,0.250000X0.512652X0.159099X0.159099X0.512652X-0.512652X-0.159099X-0.159099X-0.512652X0*%
%ADD28RoundRect,0.250000X0.450000X-0.262500X0.450000X0.262500X-0.450000X0.262500X-0.450000X-0.262500X0*%
%ADD29RoundRect,0.250000X0.250000X0.475000X-0.250000X0.475000X-0.250000X-0.475000X0.250000X-0.475000X0*%
%ADD30R,2.100000X1.700000*%
%ADD31RoundRect,0.087500X-0.537500X-0.087500X0.537500X-0.087500X0.537500X0.087500X-0.537500X0.087500X0*%
%ADD32RoundRect,0.150000X0.150000X-0.512500X0.150000X0.512500X-0.150000X0.512500X-0.150000X-0.512500X0*%
%ADD33RoundRect,0.250000X0.262500X0.450000X-0.262500X0.450000X-0.262500X-0.450000X0.262500X-0.450000X0*%
%ADD34RoundRect,0.250000X-0.512652X-0.159099X-0.159099X-0.512652X0.512652X0.159099X0.159099X0.512652X0*%
%ADD35RoundRect,0.250000X-0.159099X0.512652X-0.512652X0.159099X0.159099X-0.512652X0.512652X-0.159099X0*%
%ADD36R,1.200000X2.200000*%
%ADD37R,1.600000X1.400000*%
%ADD38R,1.200000X1.400000*%
%ADD39R,0.700000X1.600000*%
%ADD40C,1.000000*%
%ADD41RoundRect,0.250000X0.475000X-0.250000X0.475000X0.250000X-0.475000X0.250000X-0.475000X-0.250000X0*%
%ADD42R,2.000000X1.100000*%
%ADD43R,1.100000X1.800000*%
%ADD44RoundRect,0.250000X-0.475000X0.250000X-0.475000X-0.250000X0.475000X-0.250000X0.475000X0.250000X0*%
%ADD45R,1.300000X1.900000*%
%ADD46RoundRect,0.075000X-0.415425X-0.521491X0.521491X0.415425X0.415425X0.521491X-0.521491X-0.415425X0*%
%ADD47RoundRect,0.075000X0.415425X-0.521491X0.521491X-0.415425X-0.415425X0.521491X-0.521491X0.415425X0*%
G04 APERTURE END LIST*
D10*
X95495312Y-131732419D02*
X95161979Y-131256228D01*
X94923884Y-131732419D02*
X94923884Y-130732419D01*
X94923884Y-130732419D02*
X95304836Y-130732419D01*
X95304836Y-130732419D02*
X95400074Y-130780038D01*
X95400074Y-130780038D02*
X95447693Y-130827657D01*
X95447693Y-130827657D02*
X95495312Y-130922895D01*
X95495312Y-130922895D02*
X95495312Y-131065752D01*
X95495312Y-131065752D02*
X95447693Y-131160990D01*
X95447693Y-131160990D02*
X95400074Y-131208609D01*
X95400074Y-131208609D02*
X95304836Y-131256228D01*
X95304836Y-131256228D02*
X94923884Y-131256228D01*
X95828646Y-130732419D02*
X96495312Y-131732419D01*
X96495312Y-130732419D02*
X95828646Y-131732419D01*
X64207693Y-130800038D02*
X64112455Y-130752419D01*
X64112455Y-130752419D02*
X63969598Y-130752419D01*
X63969598Y-130752419D02*
X63826741Y-130800038D01*
X63826741Y-130800038D02*
X63731503Y-130895276D01*
X63731503Y-130895276D02*
X63683884Y-130990514D01*
X63683884Y-130990514D02*
X63636265Y-131180990D01*
X63636265Y-131180990D02*
X63636265Y-131323847D01*
X63636265Y-131323847D02*
X63683884Y-131514323D01*
X63683884Y-131514323D02*
X63731503Y-131609561D01*
X63731503Y-131609561D02*
X63826741Y-131704800D01*
X63826741Y-131704800D02*
X63969598Y-131752419D01*
X63969598Y-131752419D02*
X64064836Y-131752419D01*
X64064836Y-131752419D02*
X64207693Y-131704800D01*
X64207693Y-131704800D02*
X64255312Y-131657180D01*
X64255312Y-131657180D02*
X64255312Y-131323847D01*
X64255312Y-131323847D02*
X64064836Y-131323847D01*
X64683884Y-131752419D02*
X64683884Y-130752419D01*
X64683884Y-130752419D02*
X65255312Y-131752419D01*
X65255312Y-131752419D02*
X65255312Y-130752419D01*
X65731503Y-131752419D02*
X65731503Y-130752419D01*
X65731503Y-130752419D02*
X65969598Y-130752419D01*
X65969598Y-130752419D02*
X66112455Y-130800038D01*
X66112455Y-130800038D02*
X66207693Y-130895276D01*
X66207693Y-130895276D02*
X66255312Y-130990514D01*
X66255312Y-130990514D02*
X66302931Y-131180990D01*
X66302931Y-131180990D02*
X66302931Y-131323847D01*
X66302931Y-131323847D02*
X66255312Y-131514323D01*
X66255312Y-131514323D02*
X66207693Y-131609561D01*
X66207693Y-131609561D02*
X66112455Y-131704800D01*
X66112455Y-131704800D02*
X65969598Y-131752419D01*
X65969598Y-131752419D02*
X65731503Y-131752419D01*
X115797180Y-106194687D02*
X115844800Y-106242306D01*
X115844800Y-106242306D02*
X115892419Y-106385163D01*
X115892419Y-106385163D02*
X115892419Y-106480401D01*
X115892419Y-106480401D02*
X115844800Y-106623258D01*
X115844800Y-106623258D02*
X115749561Y-106718496D01*
X115749561Y-106718496D02*
X115654323Y-106766115D01*
X115654323Y-106766115D02*
X115463847Y-106813734D01*
X115463847Y-106813734D02*
X115320990Y-106813734D01*
X115320990Y-106813734D02*
X115130514Y-106766115D01*
X115130514Y-106766115D02*
X115035276Y-106718496D01*
X115035276Y-106718496D02*
X114940038Y-106623258D01*
X114940038Y-106623258D02*
X114892419Y-106480401D01*
X114892419Y-106480401D02*
X114892419Y-106385163D01*
X114892419Y-106385163D02*
X114940038Y-106242306D01*
X114940038Y-106242306D02*
X114987657Y-106194687D01*
X115892419Y-105766115D02*
X114892419Y-105766115D01*
X115368609Y-105766115D02*
X115368609Y-105194687D01*
X115892419Y-105194687D02*
X114892419Y-105194687D01*
X115892419Y-104194687D02*
X115892419Y-104766115D01*
X115892419Y-104480401D02*
X114892419Y-104480401D01*
X114892419Y-104480401D02*
X115035276Y-104575639D01*
X115035276Y-104575639D02*
X115130514Y-104670877D01*
X115130514Y-104670877D02*
X115178133Y-104766115D01*
X115987657Y-104004211D02*
X115987657Y-103242306D01*
X115368609Y-103004210D02*
X115368609Y-102670877D01*
X115892419Y-102528020D02*
X115892419Y-103004210D01*
X115892419Y-103004210D02*
X114892419Y-103004210D01*
X114892419Y-103004210D02*
X114892419Y-102528020D01*
X115892419Y-102099448D02*
X114892419Y-102099448D01*
X114892419Y-102099448D02*
X115892419Y-101528020D01*
X115892419Y-101528020D02*
X114892419Y-101528020D01*
X87125312Y-133717180D02*
X87077693Y-133764800D01*
X87077693Y-133764800D02*
X86934836Y-133812419D01*
X86934836Y-133812419D02*
X86839598Y-133812419D01*
X86839598Y-133812419D02*
X86696741Y-133764800D01*
X86696741Y-133764800D02*
X86601503Y-133669561D01*
X86601503Y-133669561D02*
X86553884Y-133574323D01*
X86553884Y-133574323D02*
X86506265Y-133383847D01*
X86506265Y-133383847D02*
X86506265Y-133240990D01*
X86506265Y-133240990D02*
X86553884Y-133050514D01*
X86553884Y-133050514D02*
X86601503Y-132955276D01*
X86601503Y-132955276D02*
X86696741Y-132860038D01*
X86696741Y-132860038D02*
X86839598Y-132812419D01*
X86839598Y-132812419D02*
X86934836Y-132812419D01*
X86934836Y-132812419D02*
X87077693Y-132860038D01*
X87077693Y-132860038D02*
X87125312Y-132907657D01*
X87553884Y-133812419D02*
X87553884Y-132812419D01*
X87553884Y-133288609D02*
X88125312Y-133288609D01*
X88125312Y-133812419D02*
X88125312Y-132812419D01*
X88553884Y-132907657D02*
X88601503Y-132860038D01*
X88601503Y-132860038D02*
X88696741Y-132812419D01*
X88696741Y-132812419D02*
X88934836Y-132812419D01*
X88934836Y-132812419D02*
X89030074Y-132860038D01*
X89030074Y-132860038D02*
X89077693Y-132907657D01*
X89077693Y-132907657D02*
X89125312Y-133002895D01*
X89125312Y-133002895D02*
X89125312Y-133098133D01*
X89125312Y-133098133D02*
X89077693Y-133240990D01*
X89077693Y-133240990D02*
X88506265Y-133812419D01*
X88506265Y-133812419D02*
X89125312Y-133812419D01*
X100565312Y-133667180D02*
X100517693Y-133714800D01*
X100517693Y-133714800D02*
X100374836Y-133762419D01*
X100374836Y-133762419D02*
X100279598Y-133762419D01*
X100279598Y-133762419D02*
X100136741Y-133714800D01*
X100136741Y-133714800D02*
X100041503Y-133619561D01*
X100041503Y-133619561D02*
X99993884Y-133524323D01*
X99993884Y-133524323D02*
X99946265Y-133333847D01*
X99946265Y-133333847D02*
X99946265Y-133190990D01*
X99946265Y-133190990D02*
X99993884Y-133000514D01*
X99993884Y-133000514D02*
X100041503Y-132905276D01*
X100041503Y-132905276D02*
X100136741Y-132810038D01*
X100136741Y-132810038D02*
X100279598Y-132762419D01*
X100279598Y-132762419D02*
X100374836Y-132762419D01*
X100374836Y-132762419D02*
X100517693Y-132810038D01*
X100517693Y-132810038D02*
X100565312Y-132857657D01*
X100993884Y-133762419D02*
X100993884Y-132762419D01*
X100993884Y-133238609D02*
X101565312Y-133238609D01*
X101565312Y-133762419D02*
X101565312Y-132762419D01*
X102565312Y-133762419D02*
X101993884Y-133762419D01*
X102279598Y-133762419D02*
X102279598Y-132762419D01*
X102279598Y-132762419D02*
X102184360Y-132905276D01*
X102184360Y-132905276D02*
X102089122Y-133000514D01*
X102089122Y-133000514D02*
X101993884Y-133048133D01*
X64736265Y-115874800D02*
X64879122Y-115922419D01*
X64879122Y-115922419D02*
X65117217Y-115922419D01*
X65117217Y-115922419D02*
X65212455Y-115874800D01*
X65212455Y-115874800D02*
X65260074Y-115827180D01*
X65260074Y-115827180D02*
X65307693Y-115731942D01*
X65307693Y-115731942D02*
X65307693Y-115636704D01*
X65307693Y-115636704D02*
X65260074Y-115541466D01*
X65260074Y-115541466D02*
X65212455Y-115493847D01*
X65212455Y-115493847D02*
X65117217Y-115446228D01*
X65117217Y-115446228D02*
X64926741Y-115398609D01*
X64926741Y-115398609D02*
X64831503Y-115350990D01*
X64831503Y-115350990D02*
X64783884Y-115303371D01*
X64783884Y-115303371D02*
X64736265Y-115208133D01*
X64736265Y-115208133D02*
X64736265Y-115112895D01*
X64736265Y-115112895D02*
X64783884Y-115017657D01*
X64783884Y-115017657D02*
X64831503Y-114970038D01*
X64831503Y-114970038D02*
X64926741Y-114922419D01*
X64926741Y-114922419D02*
X65164836Y-114922419D01*
X65164836Y-114922419D02*
X65307693Y-114970038D01*
X65593408Y-115255752D02*
X65974360Y-115255752D01*
X65736265Y-114922419D02*
X65736265Y-115779561D01*
X65736265Y-115779561D02*
X65783884Y-115874800D01*
X65783884Y-115874800D02*
X65879122Y-115922419D01*
X65879122Y-115922419D02*
X65974360Y-115922419D01*
X66736265Y-115922419D02*
X66736265Y-115398609D01*
X66736265Y-115398609D02*
X66688646Y-115303371D01*
X66688646Y-115303371D02*
X66593408Y-115255752D01*
X66593408Y-115255752D02*
X66402932Y-115255752D01*
X66402932Y-115255752D02*
X66307694Y-115303371D01*
X66736265Y-115874800D02*
X66641027Y-115922419D01*
X66641027Y-115922419D02*
X66402932Y-115922419D01*
X66402932Y-115922419D02*
X66307694Y-115874800D01*
X66307694Y-115874800D02*
X66260075Y-115779561D01*
X66260075Y-115779561D02*
X66260075Y-115684323D01*
X66260075Y-115684323D02*
X66307694Y-115589085D01*
X66307694Y-115589085D02*
X66402932Y-115541466D01*
X66402932Y-115541466D02*
X66641027Y-115541466D01*
X66641027Y-115541466D02*
X66736265Y-115493847D01*
X67069599Y-115255752D02*
X67450551Y-115255752D01*
X67212456Y-114922419D02*
X67212456Y-115779561D01*
X67212456Y-115779561D02*
X67260075Y-115874800D01*
X67260075Y-115874800D02*
X67355313Y-115922419D01*
X67355313Y-115922419D02*
X67450551Y-115922419D01*
X68212456Y-115255752D02*
X68212456Y-115922419D01*
X67783885Y-115255752D02*
X67783885Y-115779561D01*
X67783885Y-115779561D02*
X67831504Y-115874800D01*
X67831504Y-115874800D02*
X67926742Y-115922419D01*
X67926742Y-115922419D02*
X68069599Y-115922419D01*
X68069599Y-115922419D02*
X68164837Y-115874800D01*
X68164837Y-115874800D02*
X68212456Y-115827180D01*
X68641028Y-115874800D02*
X68736266Y-115922419D01*
X68736266Y-115922419D02*
X68926742Y-115922419D01*
X68926742Y-115922419D02*
X69021980Y-115874800D01*
X69021980Y-115874800D02*
X69069599Y-115779561D01*
X69069599Y-115779561D02*
X69069599Y-115731942D01*
X69069599Y-115731942D02*
X69021980Y-115636704D01*
X69021980Y-115636704D02*
X68926742Y-115589085D01*
X68926742Y-115589085D02*
X68783885Y-115589085D01*
X68783885Y-115589085D02*
X68688647Y-115541466D01*
X68688647Y-115541466D02*
X68641028Y-115446228D01*
X68641028Y-115446228D02*
X68641028Y-115398609D01*
X68641028Y-115398609D02*
X68688647Y-115303371D01*
X68688647Y-115303371D02*
X68783885Y-115255752D01*
X68783885Y-115255752D02*
X68926742Y-115255752D01*
X68926742Y-115255752D02*
X69021980Y-115303371D01*
X78797693Y-130680038D02*
X78702455Y-130632419D01*
X78702455Y-130632419D02*
X78559598Y-130632419D01*
X78559598Y-130632419D02*
X78416741Y-130680038D01*
X78416741Y-130680038D02*
X78321503Y-130775276D01*
X78321503Y-130775276D02*
X78273884Y-130870514D01*
X78273884Y-130870514D02*
X78226265Y-131060990D01*
X78226265Y-131060990D02*
X78226265Y-131203847D01*
X78226265Y-131203847D02*
X78273884Y-131394323D01*
X78273884Y-131394323D02*
X78321503Y-131489561D01*
X78321503Y-131489561D02*
X78416741Y-131584800D01*
X78416741Y-131584800D02*
X78559598Y-131632419D01*
X78559598Y-131632419D02*
X78654836Y-131632419D01*
X78654836Y-131632419D02*
X78797693Y-131584800D01*
X78797693Y-131584800D02*
X78845312Y-131537180D01*
X78845312Y-131537180D02*
X78845312Y-131203847D01*
X78845312Y-131203847D02*
X78654836Y-131203847D01*
X79273884Y-131632419D02*
X79273884Y-130632419D01*
X79273884Y-130632419D02*
X79845312Y-131632419D01*
X79845312Y-131632419D02*
X79845312Y-130632419D01*
X80321503Y-131632419D02*
X80321503Y-130632419D01*
X80321503Y-130632419D02*
X80559598Y-130632419D01*
X80559598Y-130632419D02*
X80702455Y-130680038D01*
X80702455Y-130680038D02*
X80797693Y-130775276D01*
X80797693Y-130775276D02*
X80845312Y-130870514D01*
X80845312Y-130870514D02*
X80892931Y-131060990D01*
X80892931Y-131060990D02*
X80892931Y-131203847D01*
X80892931Y-131203847D02*
X80845312Y-131394323D01*
X80845312Y-131394323D02*
X80797693Y-131489561D01*
X80797693Y-131489561D02*
X80702455Y-131584800D01*
X80702455Y-131584800D02*
X80559598Y-131632419D01*
X80559598Y-131632419D02*
X80321503Y-131632419D01*
X93823884Y-104282419D02*
X93823884Y-103282419D01*
X93823884Y-103282419D02*
X94061979Y-103282419D01*
X94061979Y-103282419D02*
X94204836Y-103330038D01*
X94204836Y-103330038D02*
X94300074Y-103425276D01*
X94300074Y-103425276D02*
X94347693Y-103520514D01*
X94347693Y-103520514D02*
X94395312Y-103710990D01*
X94395312Y-103710990D02*
X94395312Y-103853847D01*
X94395312Y-103853847D02*
X94347693Y-104044323D01*
X94347693Y-104044323D02*
X94300074Y-104139561D01*
X94300074Y-104139561D02*
X94204836Y-104234800D01*
X94204836Y-104234800D02*
X94061979Y-104282419D01*
X94061979Y-104282419D02*
X93823884Y-104282419D01*
X94823884Y-103758609D02*
X95157217Y-103758609D01*
X95300074Y-104282419D02*
X94823884Y-104282419D01*
X94823884Y-104282419D02*
X94823884Y-103282419D01*
X94823884Y-103282419D02*
X95300074Y-103282419D01*
X96061979Y-103758609D02*
X96204836Y-103806228D01*
X96204836Y-103806228D02*
X96252455Y-103853847D01*
X96252455Y-103853847D02*
X96300074Y-103949085D01*
X96300074Y-103949085D02*
X96300074Y-104091942D01*
X96300074Y-104091942D02*
X96252455Y-104187180D01*
X96252455Y-104187180D02*
X96204836Y-104234800D01*
X96204836Y-104234800D02*
X96109598Y-104282419D01*
X96109598Y-104282419D02*
X95728646Y-104282419D01*
X95728646Y-104282419D02*
X95728646Y-103282419D01*
X95728646Y-103282419D02*
X96061979Y-103282419D01*
X96061979Y-103282419D02*
X96157217Y-103330038D01*
X96157217Y-103330038D02*
X96204836Y-103377657D01*
X96204836Y-103377657D02*
X96252455Y-103472895D01*
X96252455Y-103472895D02*
X96252455Y-103568133D01*
X96252455Y-103568133D02*
X96204836Y-103663371D01*
X96204836Y-103663371D02*
X96157217Y-103710990D01*
X96157217Y-103710990D02*
X96061979Y-103758609D01*
X96061979Y-103758609D02*
X95728646Y-103758609D01*
X96728646Y-103282419D02*
X96728646Y-104091942D01*
X96728646Y-104091942D02*
X96776265Y-104187180D01*
X96776265Y-104187180D02*
X96823884Y-104234800D01*
X96823884Y-104234800D02*
X96919122Y-104282419D01*
X96919122Y-104282419D02*
X97109598Y-104282419D01*
X97109598Y-104282419D02*
X97204836Y-104234800D01*
X97204836Y-104234800D02*
X97252455Y-104187180D01*
X97252455Y-104187180D02*
X97300074Y-104091942D01*
X97300074Y-104091942D02*
X97300074Y-103282419D01*
X98300074Y-103330038D02*
X98204836Y-103282419D01*
X98204836Y-103282419D02*
X98061979Y-103282419D01*
X98061979Y-103282419D02*
X97919122Y-103330038D01*
X97919122Y-103330038D02*
X97823884Y-103425276D01*
X97823884Y-103425276D02*
X97776265Y-103520514D01*
X97776265Y-103520514D02*
X97728646Y-103710990D01*
X97728646Y-103710990D02*
X97728646Y-103853847D01*
X97728646Y-103853847D02*
X97776265Y-104044323D01*
X97776265Y-104044323D02*
X97823884Y-104139561D01*
X97823884Y-104139561D02*
X97919122Y-104234800D01*
X97919122Y-104234800D02*
X98061979Y-104282419D01*
X98061979Y-104282419D02*
X98157217Y-104282419D01*
X98157217Y-104282419D02*
X98300074Y-104234800D01*
X98300074Y-104234800D02*
X98347693Y-104187180D01*
X98347693Y-104187180D02*
X98347693Y-103853847D01*
X98347693Y-103853847D02*
X98157217Y-103853847D01*
X119087217Y-118248609D02*
X119230074Y-118296228D01*
X119230074Y-118296228D02*
X119277693Y-118343847D01*
X119277693Y-118343847D02*
X119325312Y-118439085D01*
X119325312Y-118439085D02*
X119325312Y-118581942D01*
X119325312Y-118581942D02*
X119277693Y-118677180D01*
X119277693Y-118677180D02*
X119230074Y-118724800D01*
X119230074Y-118724800D02*
X119134836Y-118772419D01*
X119134836Y-118772419D02*
X118753884Y-118772419D01*
X118753884Y-118772419D02*
X118753884Y-117772419D01*
X118753884Y-117772419D02*
X119087217Y-117772419D01*
X119087217Y-117772419D02*
X119182455Y-117820038D01*
X119182455Y-117820038D02*
X119230074Y-117867657D01*
X119230074Y-117867657D02*
X119277693Y-117962895D01*
X119277693Y-117962895D02*
X119277693Y-118058133D01*
X119277693Y-118058133D02*
X119230074Y-118153371D01*
X119230074Y-118153371D02*
X119182455Y-118200990D01*
X119182455Y-118200990D02*
X119087217Y-118248609D01*
X119087217Y-118248609D02*
X118753884Y-118248609D01*
X119944360Y-117772419D02*
X120134836Y-117772419D01*
X120134836Y-117772419D02*
X120230074Y-117820038D01*
X120230074Y-117820038D02*
X120325312Y-117915276D01*
X120325312Y-117915276D02*
X120372931Y-118105752D01*
X120372931Y-118105752D02*
X120372931Y-118439085D01*
X120372931Y-118439085D02*
X120325312Y-118629561D01*
X120325312Y-118629561D02*
X120230074Y-118724800D01*
X120230074Y-118724800D02*
X120134836Y-118772419D01*
X120134836Y-118772419D02*
X119944360Y-118772419D01*
X119944360Y-118772419D02*
X119849122Y-118724800D01*
X119849122Y-118724800D02*
X119753884Y-118629561D01*
X119753884Y-118629561D02*
X119706265Y-118439085D01*
X119706265Y-118439085D02*
X119706265Y-118105752D01*
X119706265Y-118105752D02*
X119753884Y-117915276D01*
X119753884Y-117915276D02*
X119849122Y-117820038D01*
X119849122Y-117820038D02*
X119944360Y-117772419D01*
X120991979Y-117772419D02*
X121182455Y-117772419D01*
X121182455Y-117772419D02*
X121277693Y-117820038D01*
X121277693Y-117820038D02*
X121372931Y-117915276D01*
X121372931Y-117915276D02*
X121420550Y-118105752D01*
X121420550Y-118105752D02*
X121420550Y-118439085D01*
X121420550Y-118439085D02*
X121372931Y-118629561D01*
X121372931Y-118629561D02*
X121277693Y-118724800D01*
X121277693Y-118724800D02*
X121182455Y-118772419D01*
X121182455Y-118772419D02*
X120991979Y-118772419D01*
X120991979Y-118772419D02*
X120896741Y-118724800D01*
X120896741Y-118724800D02*
X120801503Y-118629561D01*
X120801503Y-118629561D02*
X120753884Y-118439085D01*
X120753884Y-118439085D02*
X120753884Y-118105752D01*
X120753884Y-118105752D02*
X120801503Y-117915276D01*
X120801503Y-117915276D02*
X120896741Y-117820038D01*
X120896741Y-117820038D02*
X120991979Y-117772419D01*
X121706265Y-117772419D02*
X122277693Y-117772419D01*
X121991979Y-118772419D02*
X121991979Y-117772419D01*
X74440074Y-101032419D02*
X73963884Y-101032419D01*
X73963884Y-101032419D02*
X73916265Y-101508609D01*
X73916265Y-101508609D02*
X73963884Y-101460990D01*
X73963884Y-101460990D02*
X74059122Y-101413371D01*
X74059122Y-101413371D02*
X74297217Y-101413371D01*
X74297217Y-101413371D02*
X74392455Y-101460990D01*
X74392455Y-101460990D02*
X74440074Y-101508609D01*
X74440074Y-101508609D02*
X74487693Y-101603847D01*
X74487693Y-101603847D02*
X74487693Y-101841942D01*
X74487693Y-101841942D02*
X74440074Y-101937180D01*
X74440074Y-101937180D02*
X74392455Y-101984800D01*
X74392455Y-101984800D02*
X74297217Y-102032419D01*
X74297217Y-102032419D02*
X74059122Y-102032419D01*
X74059122Y-102032419D02*
X73963884Y-101984800D01*
X73963884Y-101984800D02*
X73916265Y-101937180D01*
X74773408Y-101032419D02*
X75106741Y-102032419D01*
X75106741Y-102032419D02*
X75440074Y-101032419D01*
X75773408Y-101651466D02*
X76535313Y-101651466D01*
X76916265Y-101032419D02*
X77535312Y-101032419D01*
X77535312Y-101032419D02*
X77201979Y-101413371D01*
X77201979Y-101413371D02*
X77344836Y-101413371D01*
X77344836Y-101413371D02*
X77440074Y-101460990D01*
X77440074Y-101460990D02*
X77487693Y-101508609D01*
X77487693Y-101508609D02*
X77535312Y-101603847D01*
X77535312Y-101603847D02*
X77535312Y-101841942D01*
X77535312Y-101841942D02*
X77487693Y-101937180D01*
X77487693Y-101937180D02*
X77440074Y-101984800D01*
X77440074Y-101984800D02*
X77344836Y-102032419D01*
X77344836Y-102032419D02*
X77059122Y-102032419D01*
X77059122Y-102032419D02*
X76963884Y-101984800D01*
X76963884Y-101984800D02*
X76916265Y-101937180D01*
X77963884Y-101937180D02*
X78011503Y-101984800D01*
X78011503Y-101984800D02*
X77963884Y-102032419D01*
X77963884Y-102032419D02*
X77916265Y-101984800D01*
X77916265Y-101984800D02*
X77963884Y-101937180D01*
X77963884Y-101937180D02*
X77963884Y-102032419D01*
X78344836Y-101032419D02*
X78963883Y-101032419D01*
X78963883Y-101032419D02*
X78630550Y-101413371D01*
X78630550Y-101413371D02*
X78773407Y-101413371D01*
X78773407Y-101413371D02*
X78868645Y-101460990D01*
X78868645Y-101460990D02*
X78916264Y-101508609D01*
X78916264Y-101508609D02*
X78963883Y-101603847D01*
X78963883Y-101603847D02*
X78963883Y-101841942D01*
X78963883Y-101841942D02*
X78916264Y-101937180D01*
X78916264Y-101937180D02*
X78868645Y-101984800D01*
X78868645Y-101984800D02*
X78773407Y-102032419D01*
X78773407Y-102032419D02*
X78487693Y-102032419D01*
X78487693Y-102032419D02*
X78392455Y-101984800D01*
X78392455Y-101984800D02*
X78344836Y-101937180D01*
X79249598Y-101032419D02*
X79582931Y-102032419D01*
X79582931Y-102032419D02*
X79916264Y-101032419D01*
X67495312Y-131752419D02*
X67161979Y-131276228D01*
X66923884Y-131752419D02*
X66923884Y-130752419D01*
X66923884Y-130752419D02*
X67304836Y-130752419D01*
X67304836Y-130752419D02*
X67400074Y-130800038D01*
X67400074Y-130800038D02*
X67447693Y-130847657D01*
X67447693Y-130847657D02*
X67495312Y-130942895D01*
X67495312Y-130942895D02*
X67495312Y-131085752D01*
X67495312Y-131085752D02*
X67447693Y-131180990D01*
X67447693Y-131180990D02*
X67400074Y-131228609D01*
X67400074Y-131228609D02*
X67304836Y-131276228D01*
X67304836Y-131276228D02*
X66923884Y-131276228D01*
X67828646Y-130752419D02*
X68495312Y-131752419D01*
X68495312Y-130752419D02*
X67828646Y-131752419D01*
X83801027Y-130612419D02*
X84372455Y-130612419D01*
X84086741Y-131612419D02*
X84086741Y-130612419D01*
X84610551Y-130612419D02*
X85277217Y-131612419D01*
X85277217Y-130612419D02*
X84610551Y-131612419D01*
X72615312Y-133627180D02*
X72567693Y-133674800D01*
X72567693Y-133674800D02*
X72424836Y-133722419D01*
X72424836Y-133722419D02*
X72329598Y-133722419D01*
X72329598Y-133722419D02*
X72186741Y-133674800D01*
X72186741Y-133674800D02*
X72091503Y-133579561D01*
X72091503Y-133579561D02*
X72043884Y-133484323D01*
X72043884Y-133484323D02*
X71996265Y-133293847D01*
X71996265Y-133293847D02*
X71996265Y-133150990D01*
X71996265Y-133150990D02*
X72043884Y-132960514D01*
X72043884Y-132960514D02*
X72091503Y-132865276D01*
X72091503Y-132865276D02*
X72186741Y-132770038D01*
X72186741Y-132770038D02*
X72329598Y-132722419D01*
X72329598Y-132722419D02*
X72424836Y-132722419D01*
X72424836Y-132722419D02*
X72567693Y-132770038D01*
X72567693Y-132770038D02*
X72615312Y-132817657D01*
X73043884Y-133722419D02*
X73043884Y-132722419D01*
X73043884Y-133198609D02*
X73615312Y-133198609D01*
X73615312Y-133722419D02*
X73615312Y-132722419D01*
X73996265Y-132722419D02*
X74615312Y-132722419D01*
X74615312Y-132722419D02*
X74281979Y-133103371D01*
X74281979Y-133103371D02*
X74424836Y-133103371D01*
X74424836Y-133103371D02*
X74520074Y-133150990D01*
X74520074Y-133150990D02*
X74567693Y-133198609D01*
X74567693Y-133198609D02*
X74615312Y-133293847D01*
X74615312Y-133293847D02*
X74615312Y-133531942D01*
X74615312Y-133531942D02*
X74567693Y-133627180D01*
X74567693Y-133627180D02*
X74520074Y-133674800D01*
X74520074Y-133674800D02*
X74424836Y-133722419D01*
X74424836Y-133722419D02*
X74139122Y-133722419D01*
X74139122Y-133722419D02*
X74043884Y-133674800D01*
X74043884Y-133674800D02*
X73996265Y-133627180D01*
X107837180Y-106214687D02*
X107884800Y-106262306D01*
X107884800Y-106262306D02*
X107932419Y-106405163D01*
X107932419Y-106405163D02*
X107932419Y-106500401D01*
X107932419Y-106500401D02*
X107884800Y-106643258D01*
X107884800Y-106643258D02*
X107789561Y-106738496D01*
X107789561Y-106738496D02*
X107694323Y-106786115D01*
X107694323Y-106786115D02*
X107503847Y-106833734D01*
X107503847Y-106833734D02*
X107360990Y-106833734D01*
X107360990Y-106833734D02*
X107170514Y-106786115D01*
X107170514Y-106786115D02*
X107075276Y-106738496D01*
X107075276Y-106738496D02*
X106980038Y-106643258D01*
X106980038Y-106643258D02*
X106932419Y-106500401D01*
X106932419Y-106500401D02*
X106932419Y-106405163D01*
X106932419Y-106405163D02*
X106980038Y-106262306D01*
X106980038Y-106262306D02*
X107027657Y-106214687D01*
X107932419Y-105786115D02*
X106932419Y-105786115D01*
X107408609Y-105786115D02*
X107408609Y-105214687D01*
X107932419Y-105214687D02*
X106932419Y-105214687D01*
X106932419Y-104833734D02*
X106932419Y-104214687D01*
X106932419Y-104214687D02*
X107313371Y-104548020D01*
X107313371Y-104548020D02*
X107313371Y-104405163D01*
X107313371Y-104405163D02*
X107360990Y-104309925D01*
X107360990Y-104309925D02*
X107408609Y-104262306D01*
X107408609Y-104262306D02*
X107503847Y-104214687D01*
X107503847Y-104214687D02*
X107741942Y-104214687D01*
X107741942Y-104214687D02*
X107837180Y-104262306D01*
X107837180Y-104262306D02*
X107884800Y-104309925D01*
X107884800Y-104309925D02*
X107932419Y-104405163D01*
X107932419Y-104405163D02*
X107932419Y-104690877D01*
X107932419Y-104690877D02*
X107884800Y-104786115D01*
X107884800Y-104786115D02*
X107837180Y-104833734D01*
X108027657Y-104024211D02*
X108027657Y-103262306D01*
X107408609Y-103024210D02*
X107408609Y-102690877D01*
X107932419Y-102548020D02*
X107932419Y-103024210D01*
X107932419Y-103024210D02*
X106932419Y-103024210D01*
X106932419Y-103024210D02*
X106932419Y-102548020D01*
X107932419Y-102119448D02*
X106932419Y-102119448D01*
X106932419Y-102119448D02*
X107932419Y-101548020D01*
X107932419Y-101548020D02*
X106932419Y-101548020D01*
X69211027Y-130732419D02*
X69782455Y-130732419D01*
X69496741Y-131732419D02*
X69496741Y-130732419D01*
X70020551Y-130732419D02*
X70687217Y-131732419D01*
X70687217Y-130732419D02*
X70020551Y-131732419D01*
X63763884Y-105362419D02*
X63763884Y-104362419D01*
X63763884Y-104362419D02*
X64144836Y-104362419D01*
X64144836Y-104362419D02*
X64240074Y-104410038D01*
X64240074Y-104410038D02*
X64287693Y-104457657D01*
X64287693Y-104457657D02*
X64335312Y-104552895D01*
X64335312Y-104552895D02*
X64335312Y-104695752D01*
X64335312Y-104695752D02*
X64287693Y-104790990D01*
X64287693Y-104790990D02*
X64240074Y-104838609D01*
X64240074Y-104838609D02*
X64144836Y-104886228D01*
X64144836Y-104886228D02*
X63763884Y-104886228D01*
X64668646Y-104362419D02*
X64906741Y-105362419D01*
X64906741Y-105362419D02*
X65097217Y-104648133D01*
X65097217Y-104648133D02*
X65287693Y-105362419D01*
X65287693Y-105362419D02*
X65525789Y-104362419D01*
X66478169Y-105362419D02*
X66144836Y-104886228D01*
X65906741Y-105362419D02*
X65906741Y-104362419D01*
X65906741Y-104362419D02*
X66287693Y-104362419D01*
X66287693Y-104362419D02*
X66382931Y-104410038D01*
X66382931Y-104410038D02*
X66430550Y-104457657D01*
X66430550Y-104457657D02*
X66478169Y-104552895D01*
X66478169Y-104552895D02*
X66478169Y-104695752D01*
X66478169Y-104695752D02*
X66430550Y-104790990D01*
X66430550Y-104790990D02*
X66382931Y-104838609D01*
X66382931Y-104838609D02*
X66287693Y-104886228D01*
X66287693Y-104886228D02*
X65906741Y-104886228D01*
X97211027Y-130712419D02*
X97782455Y-130712419D01*
X97496741Y-131712419D02*
X97496741Y-130712419D01*
X98020551Y-130712419D02*
X98687217Y-131712419D01*
X98687217Y-130712419D02*
X98020551Y-131712419D01*
X82085312Y-131632419D02*
X81751979Y-131156228D01*
X81513884Y-131632419D02*
X81513884Y-130632419D01*
X81513884Y-130632419D02*
X81894836Y-130632419D01*
X81894836Y-130632419D02*
X81990074Y-130680038D01*
X81990074Y-130680038D02*
X82037693Y-130727657D01*
X82037693Y-130727657D02*
X82085312Y-130822895D01*
X82085312Y-130822895D02*
X82085312Y-130965752D01*
X82085312Y-130965752D02*
X82037693Y-131060990D01*
X82037693Y-131060990D02*
X81990074Y-131108609D01*
X81990074Y-131108609D02*
X81894836Y-131156228D01*
X81894836Y-131156228D02*
X81513884Y-131156228D01*
X82418646Y-130632419D02*
X83085312Y-131632419D01*
X83085312Y-130632419D02*
X82418646Y-131632419D01*
X120265312Y-110702419D02*
X119931979Y-110226228D01*
X119693884Y-110702419D02*
X119693884Y-109702419D01*
X119693884Y-109702419D02*
X120074836Y-109702419D01*
X120074836Y-109702419D02*
X120170074Y-109750038D01*
X120170074Y-109750038D02*
X120217693Y-109797657D01*
X120217693Y-109797657D02*
X120265312Y-109892895D01*
X120265312Y-109892895D02*
X120265312Y-110035752D01*
X120265312Y-110035752D02*
X120217693Y-110130990D01*
X120217693Y-110130990D02*
X120170074Y-110178609D01*
X120170074Y-110178609D02*
X120074836Y-110226228D01*
X120074836Y-110226228D02*
X119693884Y-110226228D01*
X120646265Y-110654800D02*
X120789122Y-110702419D01*
X120789122Y-110702419D02*
X121027217Y-110702419D01*
X121027217Y-110702419D02*
X121122455Y-110654800D01*
X121122455Y-110654800D02*
X121170074Y-110607180D01*
X121170074Y-110607180D02*
X121217693Y-110511942D01*
X121217693Y-110511942D02*
X121217693Y-110416704D01*
X121217693Y-110416704D02*
X121170074Y-110321466D01*
X121170074Y-110321466D02*
X121122455Y-110273847D01*
X121122455Y-110273847D02*
X121027217Y-110226228D01*
X121027217Y-110226228D02*
X120836741Y-110178609D01*
X120836741Y-110178609D02*
X120741503Y-110130990D01*
X120741503Y-110130990D02*
X120693884Y-110083371D01*
X120693884Y-110083371D02*
X120646265Y-109988133D01*
X120646265Y-109988133D02*
X120646265Y-109892895D01*
X120646265Y-109892895D02*
X120693884Y-109797657D01*
X120693884Y-109797657D02*
X120741503Y-109750038D01*
X120741503Y-109750038D02*
X120836741Y-109702419D01*
X120836741Y-109702419D02*
X121074836Y-109702419D01*
X121074836Y-109702419D02*
X121217693Y-109750038D01*
X121503408Y-109702419D02*
X122074836Y-109702419D01*
X121789122Y-110702419D02*
X121789122Y-109702419D01*
D11*
G36*
X96483070Y-120982842D02*
G01*
X96503754Y-121062679D01*
X96534794Y-121134632D01*
X96574515Y-121189960D01*
X96642379Y-121236443D01*
X96718766Y-121255567D01*
X96763265Y-121257958D01*
X96842686Y-121248365D01*
X96879720Y-121235683D01*
X96943375Y-121188969D01*
X96962568Y-121162996D01*
X96990136Y-121086060D01*
X96993831Y-121037162D01*
X96983908Y-120957386D01*
X96968429Y-120916408D01*
X96922139Y-120851405D01*
X96887145Y-120819102D01*
X96820223Y-120771524D01*
X96749590Y-120730708D01*
X96731221Y-120721014D01*
X96659210Y-120682728D01*
X96589195Y-120640212D01*
X96576078Y-120631524D01*
X96511988Y-120582675D01*
X96458060Y-120529137D01*
X96410029Y-120462930D01*
X96382247Y-120406820D01*
X96361207Y-120331491D01*
X96355282Y-120257148D01*
X96361808Y-120176159D01*
X96384061Y-120096327D01*
X96422107Y-120026192D01*
X96475383Y-119966086D01*
X96542789Y-119916878D01*
X96616329Y-119881600D01*
X96690923Y-119857798D01*
X96771823Y-119841786D01*
X96859029Y-119833563D01*
X96910202Y-119832361D01*
X96988350Y-119834167D01*
X97069048Y-119840151D01*
X97096999Y-119843303D01*
X97179823Y-119855677D01*
X97258555Y-119871284D01*
X97300600Y-119880819D01*
X97300600Y-120207518D01*
X97150146Y-120207518D01*
X97128153Y-120130032D01*
X97096999Y-120062145D01*
X97044827Y-120001476D01*
X97016106Y-119982815D01*
X96937655Y-119959894D01*
X96894180Y-119957413D01*
X96813949Y-119968126D01*
X96781632Y-119980079D01*
X96717337Y-120028241D01*
X96703866Y-120046513D01*
X96677121Y-120123303D01*
X96675338Y-120153589D01*
X96685941Y-120231327D01*
X96699958Y-120266136D01*
X96750047Y-120330583D01*
X96783196Y-120359144D01*
X96849290Y-120404476D01*
X96918734Y-120444822D01*
X96952016Y-120462703D01*
X97023498Y-120502494D01*
X97092192Y-120546198D01*
X97154707Y-120593655D01*
X97164605Y-120602214D01*
X97221019Y-120659526D01*
X97266625Y-120725862D01*
X97279106Y-120750714D01*
X97304217Y-120826165D01*
X97314944Y-120905202D01*
X97315840Y-120937902D01*
X97309696Y-121019632D01*
X97288744Y-121101424D01*
X97252923Y-121174720D01*
X97203149Y-121238272D01*
X97139798Y-121290834D01*
X97070425Y-121329081D01*
X96992023Y-121357520D01*
X96915197Y-121374110D01*
X96832435Y-121382167D01*
X96793747Y-121383010D01*
X96715531Y-121381440D01*
X96635099Y-121376730D01*
X96560055Y-121369723D01*
X96478477Y-121359426D01*
X96400316Y-121346265D01*
X96332226Y-121331817D01*
X96332226Y-120982842D01*
X96483070Y-120982842D01*
G37*
G36*
X97894598Y-121039898D02*
G01*
X97895870Y-121119046D01*
X97901242Y-121184099D01*
X97928206Y-121247406D01*
X97997563Y-121283470D01*
X98004410Y-121285313D01*
X98004410Y-121358000D01*
X97465903Y-121358000D01*
X97465903Y-121285313D01*
X97517487Y-121267337D01*
X97546406Y-121243108D01*
X97564773Y-121208327D01*
X97574542Y-121149318D01*
X97576775Y-121070531D01*
X97576887Y-121041461D01*
X97576887Y-120189151D01*
X97576496Y-120107769D01*
X97575324Y-120051203D01*
X97568681Y-119976953D01*
X97551877Y-119928886D01*
X97519441Y-119899577D01*
X97452616Y-119880037D01*
X97452616Y-119807351D01*
X97757041Y-119782340D01*
X97894598Y-119782340D01*
X97894598Y-121039898D01*
G37*
G36*
X98148611Y-120257539D02*
G01*
X98576133Y-120257539D01*
X98576133Y-120875766D01*
X98577230Y-120955155D01*
X98581972Y-121036005D01*
X98582777Y-121043806D01*
X98599337Y-121120595D01*
X98607787Y-121139939D01*
X98653510Y-121191524D01*
X98722288Y-121207937D01*
X98799483Y-121187396D01*
X98807871Y-121182926D01*
X98870115Y-121130834D01*
X98884466Y-121111803D01*
X98914233Y-121036784D01*
X98915729Y-121014496D01*
X98915729Y-120580721D01*
X98914616Y-120501751D01*
X98912212Y-120458795D01*
X98899706Y-120396660D01*
X98870397Y-120359144D01*
X98805917Y-120330226D01*
X98805917Y-120257539D01*
X99234612Y-120257539D01*
X99234612Y-121034036D01*
X99235478Y-121114654D01*
X99237348Y-121157525D01*
X99249853Y-121219660D01*
X99281507Y-121257567D01*
X99355366Y-121283750D01*
X99355366Y-121358000D01*
X99056413Y-121358000D01*
X98923545Y-121358000D01*
X98933314Y-121214580D01*
X98920027Y-121211454D01*
X98858379Y-121265645D01*
X98795414Y-121312209D01*
X98737529Y-121345103D01*
X98662167Y-121372312D01*
X98581213Y-121382973D01*
X98576133Y-121383010D01*
X98495332Y-121376800D01*
X98417594Y-121353858D01*
X98389727Y-121338851D01*
X98329839Y-121284434D01*
X98291262Y-121214784D01*
X98289295Y-121209500D01*
X98269306Y-121131709D01*
X98260352Y-121052989D01*
X98258422Y-120988314D01*
X98258422Y-120579549D01*
X98257468Y-120499502D01*
X98256859Y-120483415D01*
X98251779Y-120431440D01*
X98242400Y-120397832D01*
X98225987Y-120370477D01*
X98197459Y-120348202D01*
X98148611Y-120330226D01*
X98148611Y-120257539D01*
G37*
G36*
X100072321Y-120237299D02*
G01*
X100091612Y-120240344D01*
X100170151Y-120256373D01*
X100175240Y-120257539D01*
X100572281Y-120257539D01*
X100572281Y-120407602D01*
X100384312Y-120386499D01*
X100379623Y-120397050D01*
X100424208Y-120462306D01*
X100430816Y-120478725D01*
X100448279Y-120555326D01*
X100451137Y-120609639D01*
X100445583Y-120690770D01*
X100425635Y-120772408D01*
X100385851Y-120850121D01*
X100335073Y-120906639D01*
X100270373Y-120950920D01*
X100191946Y-120982549D01*
X100112063Y-120999847D01*
X100021671Y-121007458D01*
X99993914Y-121007853D01*
X99912159Y-121004499D01*
X99834015Y-120992295D01*
X99816106Y-120987532D01*
X99768753Y-121053111D01*
X99761004Y-121095390D01*
X99774682Y-121146583D01*
X99821186Y-121173547D01*
X99900259Y-121182780D01*
X99914975Y-121182926D01*
X100187355Y-121182926D01*
X100273401Y-121187445D01*
X100356366Y-121203330D01*
X100431364Y-121234395D01*
X100462079Y-121255222D01*
X100514142Y-121314123D01*
X100544593Y-121391957D01*
X100553434Y-121469721D01*
X100553524Y-121479144D01*
X100544181Y-121563280D01*
X100516154Y-121638073D01*
X100487090Y-121682745D01*
X100429131Y-121741217D01*
X100361712Y-121784774D01*
X100296385Y-121813268D01*
X100214212Y-121836967D01*
X100132557Y-121850792D01*
X100053849Y-121857112D01*
X100001730Y-121858209D01*
X99919018Y-121856870D01*
X99835002Y-121852354D01*
X99776245Y-121846876D01*
X99698910Y-121834890D01*
X99621859Y-121813366D01*
X99603517Y-121806234D01*
X99533642Y-121765897D01*
X99493314Y-121724950D01*
X99459731Y-121649967D01*
X99454235Y-121594427D01*
X99456336Y-121584657D01*
X99710593Y-121584657D01*
X99732355Y-121663063D01*
X99779371Y-121705411D01*
X99854737Y-121732392D01*
X99935258Y-121742991D01*
X99996259Y-121744880D01*
X100076439Y-121740186D01*
X100155428Y-121722161D01*
X100206894Y-121696813D01*
X100260823Y-121639465D01*
X100278799Y-121562773D01*
X100265512Y-121496729D01*
X100213928Y-121451007D01*
X100134530Y-121433891D01*
X100105289Y-121433031D01*
X99916147Y-121433031D01*
X99837026Y-121431671D01*
X99790704Y-121428732D01*
X99737731Y-121486321D01*
X99730914Y-121497902D01*
X99710771Y-121575594D01*
X99710593Y-121584657D01*
X99456336Y-121584657D01*
X99471234Y-121515374D01*
X99493705Y-121477190D01*
X99552199Y-121419124D01*
X99605080Y-121385745D01*
X99549832Y-121330424D01*
X99537864Y-121309542D01*
X99518143Y-121230449D01*
X99517152Y-121204029D01*
X99531083Y-121124213D01*
X99538255Y-121107113D01*
X99582469Y-121039125D01*
X99595310Y-121025048D01*
X99654719Y-120970676D01*
X99688318Y-120943764D01*
X99621362Y-120894428D01*
X99570263Y-120833274D01*
X99558576Y-120813631D01*
X99528656Y-120737955D01*
X99515876Y-120658309D01*
X99514808Y-120625271D01*
X99515843Y-120611593D01*
X99830174Y-120611593D01*
X99833990Y-120693850D01*
X99848645Y-120773717D01*
X99869253Y-120824573D01*
X99927312Y-120881135D01*
X99991960Y-120894524D01*
X100069314Y-120871793D01*
X100107634Y-120830044D01*
X100136525Y-120754287D01*
X100146902Y-120672166D01*
X100147885Y-120632305D01*
X100144069Y-120551392D01*
X100129414Y-120471525D01*
X100108806Y-120419325D01*
X100051859Y-120359919D01*
X99989616Y-120345857D01*
X99911525Y-120366506D01*
X99869253Y-120411119D01*
X99841203Y-120487672D01*
X99831128Y-120571047D01*
X99830174Y-120611593D01*
X99515843Y-120611593D01*
X99520870Y-120545143D01*
X99542932Y-120465029D01*
X99551542Y-120445899D01*
X99595115Y-120377804D01*
X99652365Y-120323582D01*
X99722609Y-120282647D01*
X99798933Y-120255805D01*
X99804382Y-120254413D01*
X99883520Y-120239453D01*
X99961559Y-120233063D01*
X99992742Y-120232528D01*
X100072321Y-120237299D01*
G37*
G36*
X101621158Y-120216115D02*
G01*
X101644495Y-120139905D01*
X101646950Y-120129751D01*
X101656292Y-120050158D01*
X101656329Y-120044559D01*
X101633220Y-119968383D01*
X101628192Y-119962884D01*
X101556299Y-119931511D01*
X101542219Y-119930058D01*
X101542219Y-119857371D01*
X102015854Y-119857371D01*
X102015854Y-119930058D01*
X101944731Y-119957023D01*
X101891974Y-120014859D01*
X101855855Y-120089162D01*
X101836873Y-120137958D01*
X101376133Y-121358000D01*
X101122121Y-121358000D01*
X100759469Y-120133268D01*
X100734685Y-120056345D01*
X100718827Y-120017204D01*
X100675840Y-119961321D01*
X100602372Y-119930058D01*
X100602372Y-119857371D01*
X101210048Y-119857371D01*
X101210048Y-119930058D01*
X101134912Y-119954345D01*
X101125638Y-119961712D01*
X101098283Y-120032445D01*
X101104926Y-120103177D01*
X101123893Y-120181717D01*
X101132281Y-120212598D01*
X101349951Y-120996129D01*
X101621158Y-120216115D01*
G37*
G36*
X102881842Y-121050058D02*
G01*
X102885799Y-121128607D01*
X102888876Y-121146974D01*
X102913886Y-121200121D01*
X102966252Y-121232166D01*
X103045455Y-121248950D01*
X103051835Y-121249751D01*
X103134021Y-121255930D01*
X103188220Y-121257958D01*
X103188220Y-121358000D01*
X102239776Y-121358000D01*
X102239776Y-121257958D01*
X102321439Y-121253305D01*
X102399890Y-121245391D01*
X102414068Y-121243108D01*
X102488440Y-121218018D01*
X102493789Y-121214580D01*
X102533649Y-121161042D01*
X102545928Y-121080461D01*
X102546545Y-121048495D01*
X102546545Y-120242689D01*
X102529351Y-120177036D01*
X102482847Y-120156715D01*
X102408184Y-120180187D01*
X102405080Y-120181726D01*
X102333845Y-120222443D01*
X102261781Y-120268715D01*
X102240949Y-120282549D01*
X102173733Y-120157497D01*
X102747801Y-119832361D01*
X102888485Y-119832361D01*
X102884703Y-119914867D01*
X102882776Y-119996797D01*
X102881946Y-120080524D01*
X102881842Y-120126234D01*
X102881842Y-121050058D01*
G37*
G36*
X103734542Y-121032863D02*
G01*
X103734542Y-121358000D01*
X103439106Y-121358000D01*
X103439106Y-121032863D01*
X103734542Y-121032863D01*
G37*
G36*
X104598442Y-119836902D02*
G01*
X104686955Y-119854341D01*
X104765797Y-119884859D01*
X104834966Y-119928457D01*
X104894464Y-119985133D01*
X104920586Y-120018376D01*
X104965873Y-120095043D01*
X104996455Y-120169489D01*
X105020530Y-120253533D01*
X105038098Y-120347176D01*
X105047468Y-120429000D01*
X105052673Y-120516967D01*
X105053845Y-120586974D01*
X105051634Y-120682265D01*
X105045003Y-120771572D01*
X105033951Y-120854896D01*
X105018478Y-120932235D01*
X104992920Y-121020495D01*
X104960455Y-121099404D01*
X104921083Y-121168964D01*
X104912379Y-121181754D01*
X104854819Y-121250149D01*
X104787943Y-121304394D01*
X104711753Y-121344488D01*
X104626249Y-121370431D01*
X104547879Y-121381241D01*
X104497752Y-121383010D01*
X104415443Y-121378272D01*
X104331135Y-121361614D01*
X104255607Y-121332962D01*
X104210132Y-121307197D01*
X104149239Y-121256944D01*
X104096692Y-121191916D01*
X104056990Y-121121708D01*
X104031542Y-121061391D01*
X104007178Y-120982251D01*
X103988799Y-120893573D01*
X103977808Y-120809974D01*
X103971214Y-120719367D01*
X103969077Y-120638509D01*
X103969016Y-120621754D01*
X103969800Y-120589318D01*
X104303140Y-120589318D01*
X104303895Y-120677260D01*
X104306162Y-120758194D01*
X104310717Y-120843762D01*
X104318441Y-120929876D01*
X104324633Y-120977371D01*
X104340471Y-121060093D01*
X104365823Y-121139814D01*
X104392240Y-121189960D01*
X104449948Y-121243017D01*
X104515338Y-121257958D01*
X104588415Y-121237637D01*
X104641195Y-121178537D01*
X104644298Y-121173157D01*
X104675178Y-121099307D01*
X104686894Y-121056702D01*
X104701939Y-120975222D01*
X104710423Y-120896071D01*
X104711905Y-120876157D01*
X104716667Y-120791509D01*
X104719102Y-120707832D01*
X104719720Y-120635041D01*
X104719010Y-120551217D01*
X104716457Y-120462838D01*
X104712049Y-120382372D01*
X104704870Y-120301307D01*
X104694330Y-120222661D01*
X104678356Y-120144406D01*
X104662274Y-120092626D01*
X104626208Y-120020726D01*
X104597404Y-119988676D01*
X104523160Y-119957902D01*
X104511039Y-119957413D01*
X104433810Y-119979395D01*
X104412561Y-119996492D01*
X104366631Y-120064437D01*
X104348080Y-120113729D01*
X104329498Y-120190163D01*
X104317738Y-120267942D01*
X104313300Y-120311077D01*
X104307942Y-120389296D01*
X104304569Y-120475452D01*
X104303229Y-120559780D01*
X104303140Y-120589318D01*
X103969800Y-120589318D01*
X103971255Y-120529114D01*
X103977973Y-120441997D01*
X103989170Y-120360403D01*
X104007894Y-120272191D01*
X104032714Y-120191496D01*
X104063443Y-120118598D01*
X104105569Y-120045179D01*
X104155169Y-119982311D01*
X104219902Y-119924196D01*
X104293510Y-119879803D01*
X104374970Y-119849939D01*
X104453970Y-119835590D01*
X104517292Y-119832361D01*
X104598442Y-119836902D01*
G37*
D10*
X92207693Y-130780038D02*
X92112455Y-130732419D01*
X92112455Y-130732419D02*
X91969598Y-130732419D01*
X91969598Y-130732419D02*
X91826741Y-130780038D01*
X91826741Y-130780038D02*
X91731503Y-130875276D01*
X91731503Y-130875276D02*
X91683884Y-130970514D01*
X91683884Y-130970514D02*
X91636265Y-131160990D01*
X91636265Y-131160990D02*
X91636265Y-131303847D01*
X91636265Y-131303847D02*
X91683884Y-131494323D01*
X91683884Y-131494323D02*
X91731503Y-131589561D01*
X91731503Y-131589561D02*
X91826741Y-131684800D01*
X91826741Y-131684800D02*
X91969598Y-131732419D01*
X91969598Y-131732419D02*
X92064836Y-131732419D01*
X92064836Y-131732419D02*
X92207693Y-131684800D01*
X92207693Y-131684800D02*
X92255312Y-131637180D01*
X92255312Y-131637180D02*
X92255312Y-131303847D01*
X92255312Y-131303847D02*
X92064836Y-131303847D01*
X92683884Y-131732419D02*
X92683884Y-130732419D01*
X92683884Y-130732419D02*
X93255312Y-131732419D01*
X93255312Y-131732419D02*
X93255312Y-130732419D01*
X93731503Y-131732419D02*
X93731503Y-130732419D01*
X93731503Y-130732419D02*
X93969598Y-130732419D01*
X93969598Y-130732419D02*
X94112455Y-130780038D01*
X94112455Y-130780038D02*
X94207693Y-130875276D01*
X94207693Y-130875276D02*
X94255312Y-130970514D01*
X94255312Y-130970514D02*
X94302931Y-131160990D01*
X94302931Y-131160990D02*
X94302931Y-131303847D01*
X94302931Y-131303847D02*
X94255312Y-131494323D01*
X94255312Y-131494323D02*
X94207693Y-131589561D01*
X94207693Y-131589561D02*
X94112455Y-131684800D01*
X94112455Y-131684800D02*
X93969598Y-131732419D01*
X93969598Y-131732419D02*
X93731503Y-131732419D01*
X111767180Y-106284687D02*
X111814800Y-106332306D01*
X111814800Y-106332306D02*
X111862419Y-106475163D01*
X111862419Y-106475163D02*
X111862419Y-106570401D01*
X111862419Y-106570401D02*
X111814800Y-106713258D01*
X111814800Y-106713258D02*
X111719561Y-106808496D01*
X111719561Y-106808496D02*
X111624323Y-106856115D01*
X111624323Y-106856115D02*
X111433847Y-106903734D01*
X111433847Y-106903734D02*
X111290990Y-106903734D01*
X111290990Y-106903734D02*
X111100514Y-106856115D01*
X111100514Y-106856115D02*
X111005276Y-106808496D01*
X111005276Y-106808496D02*
X110910038Y-106713258D01*
X110910038Y-106713258D02*
X110862419Y-106570401D01*
X110862419Y-106570401D02*
X110862419Y-106475163D01*
X110862419Y-106475163D02*
X110910038Y-106332306D01*
X110910038Y-106332306D02*
X110957657Y-106284687D01*
X111862419Y-105856115D02*
X110862419Y-105856115D01*
X111338609Y-105856115D02*
X111338609Y-105284687D01*
X111862419Y-105284687D02*
X110862419Y-105284687D01*
X110957657Y-104856115D02*
X110910038Y-104808496D01*
X110910038Y-104808496D02*
X110862419Y-104713258D01*
X110862419Y-104713258D02*
X110862419Y-104475163D01*
X110862419Y-104475163D02*
X110910038Y-104379925D01*
X110910038Y-104379925D02*
X110957657Y-104332306D01*
X110957657Y-104332306D02*
X111052895Y-104284687D01*
X111052895Y-104284687D02*
X111148133Y-104284687D01*
X111148133Y-104284687D02*
X111290990Y-104332306D01*
X111290990Y-104332306D02*
X111862419Y-104903734D01*
X111862419Y-104903734D02*
X111862419Y-104284687D01*
X111957657Y-104094211D02*
X111957657Y-103332306D01*
X111338609Y-103094210D02*
X111338609Y-102760877D01*
X111862419Y-102618020D02*
X111862419Y-103094210D01*
X111862419Y-103094210D02*
X110862419Y-103094210D01*
X110862419Y-103094210D02*
X110862419Y-102618020D01*
X111862419Y-102189448D02*
X110862419Y-102189448D01*
X110862419Y-102189448D02*
X111862419Y-101618020D01*
X111862419Y-101618020D02*
X110862419Y-101618020D01*
D12*
X90977200Y-102873332D02*
X91024819Y-102730475D01*
X91024819Y-102730475D02*
X91024819Y-102492380D01*
X91024819Y-102492380D02*
X90977200Y-102397142D01*
X90977200Y-102397142D02*
X90929580Y-102349523D01*
X90929580Y-102349523D02*
X90834342Y-102301904D01*
X90834342Y-102301904D02*
X90739104Y-102301904D01*
X90739104Y-102301904D02*
X90643866Y-102349523D01*
X90643866Y-102349523D02*
X90596247Y-102397142D01*
X90596247Y-102397142D02*
X90548628Y-102492380D01*
X90548628Y-102492380D02*
X90501009Y-102682856D01*
X90501009Y-102682856D02*
X90453390Y-102778094D01*
X90453390Y-102778094D02*
X90405771Y-102825713D01*
X90405771Y-102825713D02*
X90310533Y-102873332D01*
X90310533Y-102873332D02*
X90215295Y-102873332D01*
X90215295Y-102873332D02*
X90120057Y-102825713D01*
X90120057Y-102825713D02*
X90072438Y-102778094D01*
X90072438Y-102778094D02*
X90024819Y-102682856D01*
X90024819Y-102682856D02*
X90024819Y-102444761D01*
X90024819Y-102444761D02*
X90072438Y-102301904D01*
X90024819Y-101968570D02*
X91024819Y-101730475D01*
X91024819Y-101730475D02*
X90310533Y-101539999D01*
X90310533Y-101539999D02*
X91024819Y-101349523D01*
X91024819Y-101349523D02*
X90024819Y-101111428D01*
X90358152Y-100301904D02*
X91024819Y-100301904D01*
X89977200Y-100539999D02*
X90691485Y-100778094D01*
X90691485Y-100778094D02*
X90691485Y-100159047D01*
X68367319Y-110173333D02*
X69081604Y-110173333D01*
X69081604Y-110173333D02*
X69224461Y-110220952D01*
X69224461Y-110220952D02*
X69319700Y-110316190D01*
X69319700Y-110316190D02*
X69367319Y-110459047D01*
X69367319Y-110459047D02*
X69367319Y-110554285D01*
X68700652Y-109268571D02*
X69367319Y-109268571D01*
X68319700Y-109506666D02*
X69033985Y-109744761D01*
X69033985Y-109744761D02*
X69033985Y-109125714D01*
D13*
G04 #@! TO.C,SW4*
X89570000Y-100210000D02*
X89570000Y-101540000D01*
X88240000Y-100210000D02*
X89570000Y-100210000D01*
X86970000Y-100210000D02*
X81830000Y-100210000D01*
X86970000Y-100210000D02*
X86970000Y-102870000D01*
X81830000Y-100210000D02*
X81830000Y-102870000D01*
X86970000Y-102870000D02*
X81830000Y-102870000D01*
G04 #@! TO.C,J4*
X67562500Y-105940000D02*
X67562500Y-106390000D01*
X65712500Y-105940000D02*
X67562500Y-105940000D01*
X63162500Y-105940000D02*
X63412500Y-105940000D01*
X68112500Y-108140000D02*
X67662500Y-108140000D01*
X68112500Y-108140000D02*
X68112500Y-108590000D01*
X67562500Y-113740000D02*
X67562500Y-113290000D01*
X65712500Y-113740000D02*
X67562500Y-113740000D01*
X63162500Y-113740000D02*
X63412500Y-113740000D01*
G04 #@! TO.C,R28*
X64873136Y-102770000D02*
X65327264Y-102770000D01*
X64873136Y-104240000D02*
X65327264Y-104240000D01*
G04 #@! TO.C,FB1*
X71440000Y-102962122D02*
X71440000Y-102162878D01*
X72560000Y-102962122D02*
X72560000Y-102162878D01*
G04 #@! TO.C,D8*
X63516800Y-100538400D02*
X63516800Y-102458400D01*
X63516800Y-102458400D02*
X66201800Y-102458400D01*
X66201800Y-100538400D02*
X63516800Y-100538400D01*
G04 #@! TO.C,C10*
X76238748Y-103165000D02*
X76761252Y-103165000D01*
X76238748Y-104635000D02*
X76761252Y-104635000D01*
G04 #@! TO.C,D9*
X112679600Y-104696700D02*
X112679600Y-107381700D01*
X114599600Y-104696700D02*
X112679600Y-104696700D01*
X114599600Y-107381700D02*
X114599600Y-104696700D01*
G04 #@! TO.C,C9*
X82240410Y-115715657D02*
X81870943Y-115346190D01*
X83279857Y-114676210D02*
X82910390Y-114306743D01*
G04 #@! TO.C,R23*
X86765000Y-127227064D02*
X86765000Y-126772936D01*
X88235000Y-127227064D02*
X88235000Y-126772936D01*
G04 #@! TO.C,R3*
X113765000Y-115814564D02*
X113765000Y-115360436D01*
X115235000Y-115814564D02*
X115235000Y-115360436D01*
G04 #@! TO.C,C18*
X73238748Y-121765000D02*
X73761252Y-121765000D01*
X73238748Y-123235000D02*
X73761252Y-123235000D01*
G04 #@! TO.C,D6*
X86540000Y-128815000D02*
X86540000Y-131500000D01*
X88460000Y-128815000D02*
X86540000Y-128815000D01*
X88460000Y-131500000D02*
X88460000Y-128815000D01*
G04 #@! TO.C,C2*
X90761252Y-103765000D02*
X90238748Y-103765000D01*
X90761252Y-105235000D02*
X90238748Y-105235000D01*
G04 #@! TO.C,C6*
X111761252Y-115765000D02*
X111238748Y-115765000D01*
X111761252Y-117235000D02*
X111238748Y-117235000D01*
G04 #@! TO.C,X1*
X95800000Y-104800000D02*
X95800000Y-105100000D01*
X95800000Y-107800000D02*
X95800000Y-107200000D01*
X95800000Y-110200000D02*
X95800000Y-109900000D01*
X103200000Y-104800000D02*
X95800000Y-104800000D01*
X103200000Y-105100000D02*
X103200000Y-104800000D01*
X103200000Y-107200000D02*
X103200000Y-107800000D01*
X103200000Y-109900000D02*
X103200000Y-110200000D01*
X103200000Y-110200000D02*
X95800000Y-110200000D01*
X103700000Y-105100000D02*
X103200000Y-105100000D01*
X103700000Y-107200000D02*
X103200000Y-107200000D01*
G04 #@! TO.C,U4*
X83000000Y-123815000D02*
X81850000Y-123815000D01*
X83000000Y-123815000D02*
X84150000Y-123815000D01*
X83000000Y-126185000D02*
X81850000Y-126185000D01*
X83000000Y-126185000D02*
X84150000Y-126185000D01*
X80715000Y-124250000D02*
X80385000Y-124490000D01*
X80385000Y-124010000D01*
X80715000Y-124250000D01*
G36*
X80715000Y-124250000D02*
G01*
X80385000Y-124490000D01*
X80385000Y-124010000D01*
X80715000Y-124250000D01*
G37*
G04 #@! TO.C,R32*
X70712936Y-113975000D02*
X71167064Y-113975000D01*
X70712936Y-115445000D02*
X71167064Y-115445000D01*
G04 #@! TO.C,R18*
X71782000Y-127379464D02*
X71782000Y-126925336D01*
X73252000Y-127379464D02*
X73252000Y-126925336D01*
G04 #@! TO.C,IC1*
X74915000Y-107700000D02*
X74915000Y-106900000D01*
X74915000Y-107700000D02*
X74915000Y-108500000D01*
X78035000Y-107700000D02*
X78035000Y-106900000D01*
X78035000Y-107700000D02*
X78035000Y-108500000D01*
X74965000Y-109000000D02*
X74635000Y-109240000D01*
X74635000Y-108760000D01*
X74965000Y-109000000D01*
G36*
X74965000Y-109000000D02*
G01*
X74635000Y-109240000D01*
X74635000Y-108760000D01*
X74965000Y-109000000D01*
G37*
G04 #@! TO.C,R16*
X96727064Y-127265000D02*
X96272936Y-127265000D01*
X96727064Y-128735000D02*
X96272936Y-128735000D01*
G04 #@! TO.C,R8*
X101227064Y-110765000D02*
X100772936Y-110765000D01*
X101227064Y-112235000D02*
X100772936Y-112235000D01*
G04 #@! TO.C,C4*
X84795543Y-118334990D02*
X85165010Y-118704457D01*
X85834990Y-117295543D02*
X86204457Y-117665010D01*
G04 #@! TO.C,C1*
X82240410Y-106915343D02*
X81870943Y-107284810D01*
X83279857Y-107954790D02*
X82910390Y-108324257D01*
G04 #@! TO.C,R2*
X116813064Y-111990200D02*
X116358936Y-111990200D01*
X116813064Y-113460200D02*
X116358936Y-113460200D01*
G04 #@! TO.C,R26*
X84227064Y-127265000D02*
X83772936Y-127265000D01*
X84227064Y-128735000D02*
X83772936Y-128735000D01*
G04 #@! TO.C,R19*
X73257036Y-123765000D02*
X73711164Y-123765000D01*
X73257036Y-125235000D02*
X73711164Y-125235000D01*
G04 #@! TO.C,R5*
X107264564Y-111253600D02*
X106810436Y-111253600D01*
X107264564Y-112723600D02*
X106810436Y-112723600D01*
D10*
G04 #@! TO.C,J8*
X116250000Y-118500000D02*
G75*
G02*
X116250000Y-118400000I0J50000D01*
G01*
X116250000Y-118400000D02*
G75*
G02*
X116250000Y-118500000I0J-50000D01*
G01*
D14*
X121375000Y-134250000D02*
X118050000Y-134250000D01*
X121375000Y-131350000D02*
X121375000Y-134250000D01*
X121375000Y-121350000D02*
X121375000Y-128350000D01*
X118050000Y-134250000D02*
X117050000Y-133750000D01*
X117050000Y-133750000D02*
X106625000Y-133750000D01*
X116800000Y-119750000D02*
X119800000Y-119750000D01*
D10*
X116250000Y-118500000D02*
X116250000Y-118500000D01*
X116250000Y-118400000D02*
X116250000Y-118400000D01*
D14*
X106625000Y-133750000D02*
X106625000Y-131350000D01*
X106625000Y-128350000D02*
X106625000Y-121350000D01*
D13*
G04 #@! TO.C,R12*
X70692936Y-111775000D02*
X71147064Y-111775000D01*
X70692936Y-113245000D02*
X71147064Y-113245000D01*
G04 #@! TO.C,R4*
X115765000Y-115727064D02*
X115765000Y-115272936D01*
X117235000Y-115727064D02*
X117235000Y-115272936D01*
G04 #@! TO.C,C20*
X85738748Y-121265000D02*
X86261252Y-121265000D01*
X85738748Y-122735000D02*
X86261252Y-122735000D01*
G04 #@! TO.C,R14*
X100265000Y-127227064D02*
X100265000Y-126772936D01*
X101735000Y-127227064D02*
X101735000Y-126772936D01*
G04 #@! TO.C,R33*
X74302936Y-113815000D02*
X74757064Y-113815000D01*
X74302936Y-115285000D02*
X74757064Y-115285000D01*
G04 #@! TO.C,D3*
X102040000Y-128815000D02*
X102040000Y-131500000D01*
X103960000Y-128815000D02*
X102040000Y-128815000D01*
X103960000Y-131500000D02*
X103960000Y-128815000D01*
G04 #@! TO.C,R25*
X88765000Y-127227064D02*
X88765000Y-126772936D01*
X90235000Y-127227064D02*
X90235000Y-126772936D01*
G04 #@! TO.C,R6*
X106754664Y-113742800D02*
X106300536Y-113742800D01*
X106754664Y-115212800D02*
X106300536Y-115212800D01*
G04 #@! TO.C,R31*
X104765000Y-103164564D02*
X104765000Y-102710436D01*
X106235000Y-103164564D02*
X106235000Y-102710436D01*
G04 #@! TO.C,C7*
X93245000Y-106255452D02*
X93245000Y-105732948D01*
X94715000Y-106255452D02*
X94715000Y-105732948D01*
G04 #@! TO.C,R24*
X88227064Y-123265000D02*
X87772936Y-123265000D01*
X88227064Y-124735000D02*
X87772936Y-124735000D01*
G04 #@! TO.C,D5*
X74020800Y-128949500D02*
X74020800Y-131634500D01*
X75940800Y-128949500D02*
X74020800Y-128949500D01*
X75940800Y-131634500D02*
X75940800Y-128949500D01*
G04 #@! TO.C,J6*
X63617800Y-134612200D02*
X63617800Y-137272200D01*
X63617800Y-137272200D02*
X71357800Y-137272200D01*
X64567800Y-134215129D02*
X64567800Y-134612200D01*
X64567800Y-143272200D02*
X64567800Y-137272200D01*
X65327800Y-134215129D02*
X65327800Y-134612200D01*
X65327800Y-137272200D02*
X65327800Y-143272200D01*
X65327800Y-143272200D02*
X64567800Y-143272200D01*
X66217800Y-134612200D02*
X66217800Y-137272200D01*
X67107800Y-134215129D02*
X67107800Y-134612200D01*
X67107800Y-143272200D02*
X67107800Y-137272200D01*
X67867800Y-134215129D02*
X67867800Y-134612200D01*
X67867800Y-137272200D02*
X67867800Y-143272200D01*
X67867800Y-143272200D02*
X67107800Y-143272200D01*
X68757800Y-134612200D02*
X68757800Y-137272200D01*
X69647800Y-134282200D02*
X69647800Y-134612200D01*
X69647800Y-143272200D02*
X69647800Y-137272200D01*
X69747800Y-137272200D02*
X69747800Y-143272200D01*
X69867800Y-137272200D02*
X69867800Y-143272200D01*
X69987800Y-137272200D02*
X69987800Y-143272200D01*
X70027800Y-131902200D02*
X71297800Y-131902200D01*
X70107800Y-137272200D02*
X70107800Y-143272200D01*
X70227800Y-137272200D02*
X70227800Y-143272200D01*
X70347800Y-137272200D02*
X70347800Y-143272200D01*
X70407800Y-134282200D02*
X70407800Y-134612200D01*
X70407800Y-137272200D02*
X70407800Y-143272200D01*
X70407800Y-143272200D02*
X69647800Y-143272200D01*
X71297800Y-131902200D02*
X71297800Y-133172200D01*
X71357800Y-134612200D02*
X63617800Y-134612200D01*
X71357800Y-137272200D02*
X71357800Y-134612200D01*
G04 #@! TO.C,J7*
X78258600Y-134606000D02*
X78258600Y-137266000D01*
X78258600Y-137266000D02*
X85998600Y-137266000D01*
X79208600Y-134208929D02*
X79208600Y-134606000D01*
X79208600Y-143266000D02*
X79208600Y-137266000D01*
X79968600Y-134208929D02*
X79968600Y-134606000D01*
X79968600Y-137266000D02*
X79968600Y-143266000D01*
X79968600Y-143266000D02*
X79208600Y-143266000D01*
X80858600Y-134606000D02*
X80858600Y-137266000D01*
X81748600Y-134208929D02*
X81748600Y-134606000D01*
X81748600Y-143266000D02*
X81748600Y-137266000D01*
X82508600Y-134208929D02*
X82508600Y-134606000D01*
X82508600Y-137266000D02*
X82508600Y-143266000D01*
X82508600Y-143266000D02*
X81748600Y-143266000D01*
X83398600Y-134606000D02*
X83398600Y-137266000D01*
X84288600Y-134276000D02*
X84288600Y-134606000D01*
X84288600Y-143266000D02*
X84288600Y-137266000D01*
X84388600Y-137266000D02*
X84388600Y-143266000D01*
X84508600Y-137266000D02*
X84508600Y-143266000D01*
X84628600Y-137266000D02*
X84628600Y-143266000D01*
X84668600Y-131896000D02*
X85938600Y-131896000D01*
X84748600Y-137266000D02*
X84748600Y-143266000D01*
X84868600Y-137266000D02*
X84868600Y-143266000D01*
X84988600Y-137266000D02*
X84988600Y-143266000D01*
X85048600Y-134276000D02*
X85048600Y-134606000D01*
X85048600Y-137266000D02*
X85048600Y-143266000D01*
X85048600Y-143266000D02*
X84288600Y-143266000D01*
X85938600Y-131896000D02*
X85938600Y-133166000D01*
X85998600Y-134606000D02*
X78258600Y-134606000D01*
X85998600Y-137266000D02*
X85998600Y-134606000D01*
G04 #@! TO.C,C16*
X94561252Y-120975000D02*
X94038748Y-120975000D01*
X94561252Y-122445000D02*
X94038748Y-122445000D01*
G04 #@! TO.C,R30*
X108739000Y-103251964D02*
X108739000Y-102797836D01*
X110209000Y-103251964D02*
X110209000Y-102797836D01*
G04 #@! TO.C,C12*
X69261252Y-103049400D02*
X68738748Y-103049400D01*
X69261252Y-104519400D02*
X68738748Y-104519400D01*
G04 #@! TO.C,C11*
X76213748Y-111390000D02*
X76736252Y-111390000D01*
X76213748Y-112860000D02*
X76736252Y-112860000D01*
G04 #@! TO.C,J1*
X119620000Y-111920000D02*
X120950000Y-111920000D01*
X119620000Y-113250000D02*
X119620000Y-111920000D01*
X119620000Y-114520000D02*
X119620000Y-117120000D01*
X119620000Y-114520000D02*
X122280000Y-114520000D01*
X119620000Y-117120000D02*
X122280000Y-117120000D01*
X122280000Y-114520000D02*
X122280000Y-117120000D01*
G04 #@! TO.C,D12*
X65010000Y-116470000D02*
X70010000Y-116470000D01*
X70010000Y-121870000D02*
X65010000Y-121870000D01*
X64510000Y-116670000D02*
X64270000Y-116340000D01*
X64750000Y-116340000D01*
X64510000Y-116670000D01*
G36*
X64510000Y-116670000D02*
G01*
X64270000Y-116340000D01*
X64750000Y-116340000D01*
X64510000Y-116670000D01*
G37*
G04 #@! TO.C,C8*
X82556743Y-118902190D02*
X82926210Y-119271657D01*
X83596190Y-117862743D02*
X83965657Y-118232210D01*
G04 #@! TO.C,R13*
X100185436Y-123265000D02*
X100639564Y-123265000D01*
X100185436Y-124735000D02*
X100639564Y-124735000D01*
G04 #@! TO.C,R9*
X71139564Y-109765000D02*
X70685436Y-109765000D01*
X71139564Y-111235000D02*
X70685436Y-111235000D01*
G04 #@! TO.C,C3*
X97201010Y-113658257D02*
X96831543Y-113288790D01*
X98240457Y-112618810D02*
X97870990Y-112249343D01*
G04 #@! TO.C,D2*
X100040000Y-128815000D02*
X100040000Y-131500000D01*
X101960000Y-128815000D02*
X100040000Y-128815000D01*
X101960000Y-131500000D02*
X101960000Y-128815000D01*
G04 #@! TO.C,J5*
X91659400Y-134688400D02*
X91659400Y-137348400D01*
X91659400Y-137348400D02*
X99399400Y-137348400D01*
X92609400Y-134291329D02*
X92609400Y-134688400D01*
X92609400Y-143348400D02*
X92609400Y-137348400D01*
X93369400Y-134291329D02*
X93369400Y-134688400D01*
X93369400Y-137348400D02*
X93369400Y-143348400D01*
X93369400Y-143348400D02*
X92609400Y-143348400D01*
X94259400Y-134688400D02*
X94259400Y-137348400D01*
X95149400Y-134291329D02*
X95149400Y-134688400D01*
X95149400Y-143348400D02*
X95149400Y-137348400D01*
X95909400Y-134291329D02*
X95909400Y-134688400D01*
X95909400Y-137348400D02*
X95909400Y-143348400D01*
X95909400Y-143348400D02*
X95149400Y-143348400D01*
X96799400Y-134688400D02*
X96799400Y-137348400D01*
X97689400Y-134358400D02*
X97689400Y-134688400D01*
X97689400Y-143348400D02*
X97689400Y-137348400D01*
X97789400Y-137348400D02*
X97789400Y-143348400D01*
X97909400Y-137348400D02*
X97909400Y-143348400D01*
X98029400Y-137348400D02*
X98029400Y-143348400D01*
X98069400Y-131978400D02*
X99339400Y-131978400D01*
X98149400Y-137348400D02*
X98149400Y-143348400D01*
X98269400Y-137348400D02*
X98269400Y-143348400D01*
X98389400Y-137348400D02*
X98389400Y-143348400D01*
X98449400Y-134358400D02*
X98449400Y-134688400D01*
X98449400Y-137348400D02*
X98449400Y-143348400D01*
X98449400Y-143348400D02*
X97689400Y-143348400D01*
X99339400Y-131978400D02*
X99339400Y-133248400D01*
X99399400Y-134688400D02*
X91659400Y-134688400D01*
X99399400Y-137348400D02*
X99399400Y-134688400D01*
G04 #@! TO.C,SW5*
X116280000Y-103550000D02*
X116280000Y-106450000D01*
X116280000Y-103550000D02*
X116770000Y-103060000D01*
X116280000Y-106450000D02*
X116770000Y-106940000D01*
X117960000Y-102280000D02*
X120040000Y-102280000D01*
X117960000Y-107720000D02*
X120040000Y-107720000D01*
X121720000Y-103550000D02*
X121230000Y-103060000D01*
X121720000Y-103550000D02*
X121720000Y-106450000D01*
X121720000Y-106450000D02*
X121230000Y-106940000D01*
G04 #@! TO.C,R10*
X71139564Y-107765000D02*
X70685436Y-107765000D01*
X71139564Y-109235000D02*
X70685436Y-109235000D01*
G04 #@! TO.C,R27*
X80727064Y-127265000D02*
X80272936Y-127265000D01*
X80727064Y-128735000D02*
X80272936Y-128735000D01*
G04 #@! TO.C,D11*
X104540000Y-104815000D02*
X104540000Y-107500000D01*
X106460000Y-104815000D02*
X104540000Y-104815000D01*
X106460000Y-107500000D02*
X106460000Y-104815000D01*
G04 #@! TO.C,R7*
X107313464Y-116105000D02*
X106859336Y-116105000D01*
X107313464Y-117575000D02*
X106859336Y-117575000D01*
G04 #@! TO.C,J3*
X91590000Y-102930000D02*
X91590000Y-101600000D01*
X92920000Y-102930000D02*
X91590000Y-102930000D01*
X94190000Y-100270000D02*
X99330000Y-100270000D01*
X94190000Y-102930000D02*
X94190000Y-100270000D01*
X94190000Y-102930000D02*
X99330000Y-102930000D01*
X99330000Y-102930000D02*
X99330000Y-100270000D01*
G04 #@! TO.C,C5*
X116761252Y-109765000D02*
X116238748Y-109765000D01*
X116761252Y-111235000D02*
X116238748Y-111235000D01*
G04 #@! TO.C,R21*
X69365864Y-127255600D02*
X68911736Y-127255600D01*
X69365864Y-128725600D02*
X68911736Y-128725600D01*
G04 #@! TO.C,R15*
X102265000Y-127227064D02*
X102265000Y-126772936D01*
X103735000Y-127227064D02*
X103735000Y-126772936D01*
G04 #@! TO.C,R1*
X112599736Y-109755000D02*
X113053864Y-109755000D01*
X112599736Y-111225000D02*
X113053864Y-111225000D01*
G04 #@! TO.C,D7*
X88540000Y-128877500D02*
X88540000Y-131562500D01*
X90460000Y-128877500D02*
X88540000Y-128877500D01*
X90460000Y-131562500D02*
X90460000Y-128877500D01*
G04 #@! TO.C,R29*
X112904600Y-103046264D02*
X112904600Y-102592136D01*
X114374600Y-103046264D02*
X114374600Y-102592136D01*
G04 #@! TO.C,C13*
X69261252Y-100765000D02*
X68738748Y-100765000D01*
X69261252Y-102235000D02*
X68738748Y-102235000D01*
G04 #@! TO.C,R22*
X65911464Y-127255600D02*
X65457336Y-127255600D01*
X65911464Y-128725600D02*
X65457336Y-128725600D01*
G04 #@! TO.C,C19*
X77751000Y-124147948D02*
X77751000Y-124670452D01*
X79221000Y-124147948D02*
X79221000Y-124670452D01*
G04 #@! TO.C,D4*
X72014200Y-128949500D02*
X72014200Y-131634500D01*
X73934200Y-128949500D02*
X72014200Y-128949500D01*
X73934200Y-131634500D02*
X73934200Y-128949500D01*
G04 #@! TO.C,R17*
X93314564Y-127265000D02*
X92860436Y-127265000D01*
X93314564Y-128735000D02*
X92860436Y-128735000D01*
G04 #@! TO.C,C17*
X63552400Y-124376548D02*
X63552400Y-124899052D01*
X65022400Y-124376548D02*
X65022400Y-124899052D01*
G04 #@! TO.C,D10*
X108514000Y-104814900D02*
X108514000Y-107499900D01*
X110434000Y-104814900D02*
X108514000Y-104814900D01*
X110434000Y-107499900D02*
X110434000Y-104814900D01*
G04 #@! TO.C,U3*
X68453000Y-123579800D02*
X67303000Y-123579800D01*
X68453000Y-123579800D02*
X69603000Y-123579800D01*
X68453000Y-125949800D02*
X67303000Y-125949800D01*
X68453000Y-125949800D02*
X69603000Y-125949800D01*
X66168000Y-124014800D02*
X65838000Y-124254800D01*
X65838000Y-123774800D01*
X66168000Y-124014800D01*
G36*
X66168000Y-124014800D02*
G01*
X65838000Y-124254800D01*
X65838000Y-123774800D01*
X66168000Y-124014800D01*
G37*
G04 #@! TO.C,Y2*
X72800000Y-116700000D02*
X73400000Y-116700000D01*
X72800000Y-120300000D02*
X72800000Y-116700000D01*
X73400000Y-120300000D02*
X72800000Y-120300000D01*
X75100000Y-116700000D02*
X78900000Y-116700000D01*
X78900000Y-120300000D02*
X75100000Y-120300000D01*
X81200000Y-116700000D02*
X80600000Y-116700000D01*
X81200000Y-116700000D02*
X81200000Y-118000000D01*
X81200000Y-119000000D02*
X81200000Y-120300000D01*
X81200000Y-120300000D02*
X80600000Y-120300000D01*
X81200000Y-119000000D02*
G75*
G02*
X81200000Y-118000000I0J500000D01*
G01*
G04 #@! TO.C,U1*
X83894689Y-112000000D02*
X84212887Y-112318198D01*
X84212887Y-111681802D02*
X83894689Y-112000000D01*
X88681802Y-107212887D02*
X89000000Y-106894689D01*
X89000000Y-106894689D02*
X89318198Y-107212887D01*
X89000000Y-117105311D02*
X88681802Y-116787113D01*
X89318198Y-116787113D02*
X89000000Y-117105311D01*
X93787113Y-112318198D02*
X94105311Y-112000000D01*
X94105311Y-112000000D02*
X93787113Y-111681802D01*
X83795694Y-112735391D02*
X83222938Y-112643467D01*
X83703770Y-112162635D01*
X83795694Y-112735391D01*
G36*
X83795694Y-112735391D02*
G01*
X83222938Y-112643467D01*
X83703770Y-112162635D01*
X83795694Y-112735391D01*
G37*
G04 #@! TO.C,C15*
X90120800Y-122979548D02*
X90120800Y-123502052D01*
X91590800Y-122979548D02*
X91590800Y-123502052D01*
G04 #@! TO.C,R20*
X73687000Y-127406764D02*
X73687000Y-126952636D01*
X75157000Y-127406764D02*
X75157000Y-126952636D01*
G04 #@! TO.C,R11*
X101677736Y-102363600D02*
X102131864Y-102363600D01*
X101677736Y-103833600D02*
X102131864Y-103833600D01*
G04 #@! TO.C,U5*
X95000000Y-123815000D02*
X93850000Y-123815000D01*
X95000000Y-123815000D02*
X96150000Y-123815000D01*
X95000000Y-126185000D02*
X93850000Y-126185000D01*
X95000000Y-126185000D02*
X96150000Y-126185000D01*
X92715000Y-124250000D02*
X92385000Y-124490000D01*
X92385000Y-124010000D01*
X92715000Y-124250000D01*
G36*
X92715000Y-124250000D02*
G01*
X92385000Y-124490000D01*
X92385000Y-124010000D01*
X92715000Y-124250000D01*
G37*
G04 #@! TD*
%LPC*%
D15*
G04 #@! TO.C,SW4*
X88240000Y-101540000D03*
D16*
X85700000Y-101540000D03*
X83160000Y-101540000D03*
G04 #@! TD*
D17*
G04 #@! TO.C,J4*
X67262500Y-108540000D03*
X67262500Y-109190000D03*
X67262500Y-109840000D03*
X67262500Y-110490000D03*
X67262500Y-111140000D03*
D18*
X64562500Y-106340000D03*
D19*
X64562500Y-106940000D03*
D20*
X67262500Y-107340000D03*
D21*
X64562500Y-108840000D03*
X64562500Y-110840000D03*
D20*
X67262500Y-112340000D03*
D19*
X64562500Y-112740000D03*
D18*
X64562500Y-113340000D03*
G04 #@! TD*
D22*
G04 #@! TO.C,R28*
X64187700Y-103505000D03*
X66012700Y-103505000D03*
G04 #@! TD*
D23*
G04 #@! TO.C,FB1*
X72000000Y-103625000D03*
X72000000Y-101500000D03*
G04 #@! TD*
D24*
G04 #@! TO.C,D8*
X64264300Y-101498400D03*
X66139300Y-101498400D03*
G04 #@! TD*
D25*
G04 #@! TO.C,C10*
X75550000Y-103900000D03*
X77450000Y-103900000D03*
G04 #@! TD*
D26*
G04 #@! TO.C,D9*
X113639600Y-105444200D03*
X113639600Y-107319200D03*
G04 #@! TD*
D27*
G04 #@! TO.C,C9*
X83247151Y-115682951D03*
X81903649Y-114339449D03*
G04 #@! TD*
D28*
G04 #@! TO.C,R23*
X87500000Y-127912500D03*
X87500000Y-126087500D03*
G04 #@! TD*
G04 #@! TO.C,R3*
X114500000Y-116500000D03*
X114500000Y-114675000D03*
G04 #@! TD*
D25*
G04 #@! TO.C,C18*
X72550000Y-122500000D03*
X74450000Y-122500000D03*
G04 #@! TD*
D26*
G04 #@! TO.C,D6*
X87500000Y-129562500D03*
X87500000Y-131437500D03*
G04 #@! TD*
D29*
G04 #@! TO.C,C2*
X91450000Y-104500000D03*
X89550000Y-104500000D03*
G04 #@! TD*
G04 #@! TO.C,C6*
X112450000Y-116500000D03*
X110550000Y-116500000D03*
G04 #@! TD*
D30*
G04 #@! TO.C,X1*
X102450000Y-106150000D03*
X96550000Y-106150000D03*
X96550000Y-108850000D03*
X102450000Y-108850000D03*
G04 #@! TD*
D31*
G04 #@! TO.C,U4*
X81600000Y-124250000D03*
X81600000Y-124750000D03*
X81600000Y-125250000D03*
X81600000Y-125750000D03*
X84400000Y-125750000D03*
X84400000Y-125250000D03*
X84400000Y-124750000D03*
X84400000Y-124250000D03*
G04 #@! TD*
D22*
G04 #@! TO.C,R32*
X70027500Y-114710000D03*
X71852500Y-114710000D03*
G04 #@! TD*
D28*
G04 #@! TO.C,R18*
X72517000Y-128064900D03*
X72517000Y-126239900D03*
G04 #@! TD*
D32*
G04 #@! TO.C,IC1*
X75525000Y-108837500D03*
X76475000Y-108837500D03*
X77425000Y-108837500D03*
X77425000Y-106562500D03*
X75525000Y-106562500D03*
G04 #@! TD*
D33*
G04 #@! TO.C,R16*
X97412500Y-128000000D03*
X95587500Y-128000000D03*
G04 #@! TD*
G04 #@! TO.C,R8*
X101912500Y-111500000D03*
X100087500Y-111500000D03*
G04 #@! TD*
D34*
G04 #@! TO.C,C4*
X84828249Y-117328249D03*
X86171751Y-118671751D03*
G04 #@! TD*
D35*
G04 #@! TO.C,C1*
X83247151Y-106948049D03*
X81903649Y-108291551D03*
G04 #@! TD*
D33*
G04 #@! TO.C,R2*
X117498500Y-112725200D03*
X115673500Y-112725200D03*
G04 #@! TD*
G04 #@! TO.C,R26*
X84912500Y-128000000D03*
X83087500Y-128000000D03*
G04 #@! TD*
D22*
G04 #@! TO.C,R19*
X72571600Y-124500000D03*
X74396600Y-124500000D03*
G04 #@! TD*
D33*
G04 #@! TO.C,R5*
X107950000Y-111988600D03*
X106125000Y-111988600D03*
G04 #@! TD*
D36*
G04 #@! TO.C,J8*
X121750000Y-129850000D03*
X106250000Y-129850000D03*
D37*
X120850000Y-120250000D03*
D38*
X106250000Y-120250000D03*
D39*
X107450000Y-119750000D03*
X108550000Y-119750000D03*
X109650000Y-119750000D03*
X110750000Y-119750000D03*
X111850000Y-119750000D03*
X112950000Y-119750000D03*
X114050000Y-119750000D03*
X115150000Y-119750000D03*
X116250000Y-119750000D03*
D40*
X117050000Y-130250000D03*
X109070000Y-130250000D03*
G04 #@! TD*
D22*
G04 #@! TO.C,R12*
X70007500Y-112510000D03*
X71832500Y-112510000D03*
G04 #@! TD*
D28*
G04 #@! TO.C,R4*
X116500000Y-116412500D03*
X116500000Y-114587500D03*
G04 #@! TD*
D25*
G04 #@! TO.C,C20*
X85050000Y-122000000D03*
X86950000Y-122000000D03*
G04 #@! TD*
D28*
G04 #@! TO.C,R14*
X101000000Y-127912500D03*
X101000000Y-126087500D03*
G04 #@! TD*
D22*
G04 #@! TO.C,R33*
X73617500Y-114550000D03*
X75442500Y-114550000D03*
G04 #@! TD*
D26*
G04 #@! TO.C,D3*
X103000000Y-129562500D03*
X103000000Y-131437500D03*
G04 #@! TD*
D28*
G04 #@! TO.C,R25*
X89500000Y-127912500D03*
X89500000Y-126087500D03*
G04 #@! TD*
D33*
G04 #@! TO.C,R6*
X107440100Y-114477800D03*
X105615100Y-114477800D03*
G04 #@! TD*
D28*
G04 #@! TO.C,R31*
X105500000Y-103850000D03*
X105500000Y-102025000D03*
G04 #@! TD*
D41*
G04 #@! TO.C,C7*
X93980000Y-106944200D03*
X93980000Y-105044200D03*
G04 #@! TD*
D33*
G04 #@! TO.C,R24*
X88912500Y-124000000D03*
X87087500Y-124000000D03*
G04 #@! TD*
D26*
G04 #@! TO.C,D5*
X74980800Y-129697000D03*
X74980800Y-131572000D03*
G04 #@! TD*
D15*
G04 #@! TO.C,J6*
X70027800Y-133172200D03*
D16*
X67487800Y-133172200D03*
X64947800Y-133172200D03*
G04 #@! TD*
D15*
G04 #@! TO.C,J7*
X84668600Y-133166000D03*
D16*
X82128600Y-133166000D03*
X79588600Y-133166000D03*
G04 #@! TD*
D29*
G04 #@! TO.C,C16*
X95250000Y-121710000D03*
X93350000Y-121710000D03*
G04 #@! TD*
D28*
G04 #@! TO.C,R30*
X109474000Y-103937400D03*
X109474000Y-102112400D03*
G04 #@! TD*
D29*
G04 #@! TO.C,C12*
X69950000Y-103784400D03*
X68050000Y-103784400D03*
G04 #@! TD*
D25*
G04 #@! TO.C,C11*
X75525000Y-112125000D03*
X77425000Y-112125000D03*
G04 #@! TD*
D15*
G04 #@! TO.C,J1*
X120950000Y-113250000D03*
D16*
X120950000Y-115790000D03*
G04 #@! TD*
D42*
G04 #@! TO.C,D12*
X65110000Y-117470000D03*
X65110000Y-119170000D03*
X65110000Y-120870000D03*
X69910000Y-120870000D03*
X69910000Y-119170000D03*
X69910000Y-117470000D03*
G04 #@! TD*
D34*
G04 #@! TO.C,C8*
X82589449Y-117895449D03*
X83932951Y-119238951D03*
G04 #@! TD*
D22*
G04 #@! TO.C,R13*
X99500000Y-124000000D03*
X101325000Y-124000000D03*
G04 #@! TD*
D33*
G04 #@! TO.C,R9*
X71825000Y-110500000D03*
X70000000Y-110500000D03*
G04 #@! TD*
D27*
G04 #@! TO.C,C3*
X98207751Y-113625551D03*
X96864249Y-112282049D03*
G04 #@! TD*
D26*
G04 #@! TO.C,D2*
X101000000Y-129562500D03*
X101000000Y-131437500D03*
G04 #@! TD*
D15*
G04 #@! TO.C,J5*
X98069400Y-133248400D03*
D16*
X95529400Y-133248400D03*
X92989400Y-133248400D03*
G04 #@! TD*
D43*
G04 #@! TO.C,SW5*
X120850000Y-101900000D03*
X120850000Y-108100000D03*
X117150000Y-101900000D03*
X117150000Y-108100000D03*
G04 #@! TD*
D33*
G04 #@! TO.C,R10*
X71825000Y-108500000D03*
X70000000Y-108500000D03*
G04 #@! TD*
G04 #@! TO.C,R27*
X81412500Y-128000000D03*
X79587500Y-128000000D03*
G04 #@! TD*
D26*
G04 #@! TO.C,D11*
X105500000Y-105562500D03*
X105500000Y-107437500D03*
G04 #@! TD*
D33*
G04 #@! TO.C,R7*
X107998900Y-116840000D03*
X106173900Y-116840000D03*
G04 #@! TD*
D15*
G04 #@! TO.C,J3*
X92920000Y-101600000D03*
D16*
X95460000Y-101600000D03*
X98000000Y-101600000D03*
G04 #@! TD*
D29*
G04 #@! TO.C,C5*
X117450000Y-110500000D03*
X115550000Y-110500000D03*
G04 #@! TD*
D33*
G04 #@! TO.C,R21*
X70051300Y-127990600D03*
X68226300Y-127990600D03*
G04 #@! TD*
D28*
G04 #@! TO.C,R15*
X103000000Y-127912500D03*
X103000000Y-126087500D03*
G04 #@! TD*
D22*
G04 #@! TO.C,R1*
X111914300Y-110490000D03*
X113739300Y-110490000D03*
G04 #@! TD*
D26*
G04 #@! TO.C,D7*
X89500000Y-129625000D03*
X89500000Y-131500000D03*
G04 #@! TD*
D28*
G04 #@! TO.C,R29*
X113639600Y-103731700D03*
X113639600Y-101906700D03*
G04 #@! TD*
D29*
G04 #@! TO.C,C13*
X69950000Y-101500000D03*
X68050000Y-101500000D03*
G04 #@! TD*
D33*
G04 #@! TO.C,R22*
X66596900Y-127990600D03*
X64771900Y-127990600D03*
G04 #@! TD*
D44*
G04 #@! TO.C,C19*
X78486000Y-123459200D03*
X78486000Y-125359200D03*
G04 #@! TD*
D26*
G04 #@! TO.C,D4*
X72974200Y-129697000D03*
X72974200Y-131572000D03*
G04 #@! TD*
D33*
G04 #@! TO.C,R17*
X94000000Y-128000000D03*
X92175000Y-128000000D03*
G04 #@! TD*
D44*
G04 #@! TO.C,C17*
X64287400Y-123687800D03*
X64287400Y-125587800D03*
G04 #@! TD*
D26*
G04 #@! TO.C,D10*
X109474000Y-105562400D03*
X109474000Y-107437400D03*
G04 #@! TD*
D31*
G04 #@! TO.C,U3*
X67053000Y-124014800D03*
X67053000Y-124514800D03*
X67053000Y-125014800D03*
X67053000Y-125514800D03*
X69853000Y-125514800D03*
X69853000Y-125014800D03*
X69853000Y-124514800D03*
X69853000Y-124014800D03*
G04 #@! TD*
D45*
G04 #@! TO.C,Y2*
X79750000Y-116900000D03*
X74250000Y-116900000D03*
X74250000Y-120100000D03*
X79750000Y-120100000D03*
G04 #@! TD*
D46*
G04 #@! TO.C,U1*
X84112124Y-112998788D03*
X84465678Y-113352342D03*
X84819231Y-113705895D03*
X85172785Y-114059449D03*
X85526338Y-114413002D03*
X85879891Y-114766555D03*
X86233445Y-115120109D03*
X86586998Y-115473662D03*
X86940551Y-115827215D03*
X87294105Y-116180769D03*
X87647658Y-116534322D03*
X88001212Y-116887876D03*
D47*
X89998788Y-116887876D03*
X90352342Y-116534322D03*
X90705895Y-116180769D03*
X91059449Y-115827215D03*
X91413002Y-115473662D03*
X91766555Y-115120109D03*
X92120109Y-114766555D03*
X92473662Y-114413002D03*
X92827215Y-114059449D03*
X93180769Y-113705895D03*
X93534322Y-113352342D03*
X93887876Y-112998788D03*
D46*
X93887876Y-111001212D03*
X93534322Y-110647658D03*
X93180769Y-110294105D03*
X92827215Y-109940551D03*
X92473662Y-109586998D03*
X92120109Y-109233445D03*
X91766555Y-108879891D03*
X91413002Y-108526338D03*
X91059449Y-108172785D03*
X90705895Y-107819231D03*
X90352342Y-107465678D03*
X89998788Y-107112124D03*
D47*
X88001212Y-107112124D03*
X87647658Y-107465678D03*
X87294105Y-107819231D03*
X86940551Y-108172785D03*
X86586998Y-108526338D03*
X86233445Y-108879891D03*
X85879891Y-109233445D03*
X85526338Y-109586998D03*
X85172785Y-109940551D03*
X84819231Y-110294105D03*
X84465678Y-110647658D03*
X84112124Y-111001212D03*
G04 #@! TD*
D44*
G04 #@! TO.C,C15*
X90855800Y-122290800D03*
X90855800Y-124190800D03*
G04 #@! TD*
D28*
G04 #@! TO.C,R20*
X74422000Y-128092200D03*
X74422000Y-126267200D03*
G04 #@! TD*
D22*
G04 #@! TO.C,R11*
X100992300Y-103098600D03*
X102817300Y-103098600D03*
G04 #@! TD*
D31*
G04 #@! TO.C,U5*
X93600000Y-124250000D03*
X93600000Y-124750000D03*
X93600000Y-125250000D03*
X93600000Y-125750000D03*
X96400000Y-125750000D03*
X96400000Y-125250000D03*
X96400000Y-124750000D03*
X96400000Y-124250000D03*
G04 #@! TD*
%LPD*%
M02*
