G04 #@! TF.GenerationSoftware,KiCad,Pcbnew,8.0.7*
G04 #@! TF.CreationDate,2025-03-03T01:54:19+02:00*
G04 #@! TF.ProjectId,slug_v1_0,736c7567-5f76-4315-9f30-2e6b69636164,rev?*
G04 #@! TF.SameCoordinates,Original*
G04 #@! TF.FileFunction,Paste,Top*
G04 #@! TF.FilePolarity,Positive*
%FSLAX46Y46*%
G04 Gerber Fmt 4.6, Leading zero omitted, Abs format (unit mm)*
G04 Created by KiCad (PCBNEW 8.0.7) date 2025-03-03 01:54:19*
%MOMM*%
%LPD*%
G01*
G04 APERTURE LIST*
G04 Aperture macros list*
%AMRoundRect*
0 Rectangle with rounded corners*
0 $1 Rounding radius*
0 $2 $3 $4 $5 $6 $7 $8 $9 X,Y pos of 4 corners*
0 Add a 4 corners polygon primitive as box body*
4,1,4,$2,$3,$4,$5,$6,$7,$8,$9,$2,$3,0*
0 Add four circle primitives for the rounded corners*
1,1,$1+$1,$2,$3*
1,1,$1+$1,$4,$5*
1,1,$1+$1,$6,$7*
1,1,$1+$1,$8,$9*
0 Add four rect primitives between the rounded corners*
20,1,$1+$1,$2,$3,$4,$5,0*
20,1,$1+$1,$4,$5,$6,$7,0*
20,1,$1+$1,$6,$7,$8,$9,0*
20,1,$1+$1,$8,$9,$2,$3,0*%
G04 Aperture macros list end*
%ADD10R,1.350000X0.400000*%
%ADD11R,1.900000X1.500000*%
%ADD12RoundRect,0.250000X-0.262500X-0.450000X0.262500X-0.450000X0.262500X0.450000X-0.262500X0.450000X0*%
%ADD13RoundRect,0.218750X0.381250X-0.218750X0.381250X0.218750X-0.381250X0.218750X-0.381250X-0.218750X0*%
%ADD14RoundRect,0.243750X-0.243750X-0.456250X0.243750X-0.456250X0.243750X0.456250X-0.243750X0.456250X0*%
%ADD15RoundRect,0.250000X-0.250000X-0.475000X0.250000X-0.475000X0.250000X0.475000X-0.250000X0.475000X0*%
%ADD16RoundRect,0.243750X-0.456250X0.243750X-0.456250X-0.243750X0.456250X-0.243750X0.456250X0.243750X0*%
%ADD17RoundRect,0.250000X0.512652X0.159099X0.159099X0.512652X-0.512652X-0.159099X-0.159099X-0.512652X0*%
%ADD18RoundRect,0.250000X0.450000X-0.262500X0.450000X0.262500X-0.450000X0.262500X-0.450000X-0.262500X0*%
%ADD19RoundRect,0.250000X0.250000X0.475000X-0.250000X0.475000X-0.250000X-0.475000X0.250000X-0.475000X0*%
%ADD20R,2.100000X1.700000*%
%ADD21RoundRect,0.087500X-0.537500X-0.087500X0.537500X-0.087500X0.537500X0.087500X-0.537500X0.087500X0*%
%ADD22RoundRect,0.150000X0.150000X-0.512500X0.150000X0.512500X-0.150000X0.512500X-0.150000X-0.512500X0*%
%ADD23RoundRect,0.250000X0.262500X0.450000X-0.262500X0.450000X-0.262500X-0.450000X0.262500X-0.450000X0*%
%ADD24RoundRect,0.250000X-0.512652X-0.159099X-0.159099X-0.512652X0.512652X0.159099X0.159099X0.512652X0*%
%ADD25RoundRect,0.250000X-0.159099X0.512652X-0.512652X0.159099X0.159099X-0.512652X0.512652X-0.159099X0*%
%ADD26R,1.200000X2.200000*%
%ADD27R,1.600000X1.400000*%
%ADD28R,1.200000X1.400000*%
%ADD29R,0.700000X1.600000*%
%ADD30RoundRect,0.250000X0.475000X-0.250000X0.475000X0.250000X-0.475000X0.250000X-0.475000X-0.250000X0*%
%ADD31R,2.000000X1.100000*%
%ADD32R,1.100000X1.800000*%
%ADD33RoundRect,0.250000X-0.475000X0.250000X-0.475000X-0.250000X0.475000X-0.250000X0.475000X0.250000X0*%
%ADD34R,1.300000X1.900000*%
%ADD35RoundRect,0.075000X-0.415425X-0.521491X0.521491X0.415425X0.415425X0.521491X-0.521491X-0.415425X0*%
%ADD36RoundRect,0.075000X0.415425X-0.521491X0.521491X-0.415425X-0.415425X0.521491X-0.521491X0.415425X0*%
G04 APERTURE END LIST*
D10*
G04 #@! TO.C,J4*
X67262500Y-108540000D03*
X67262500Y-109190000D03*
X67262500Y-109840000D03*
X67262500Y-110490000D03*
X67262500Y-111140000D03*
D11*
X64562500Y-108840000D03*
X64562500Y-110840000D03*
G04 #@! TD*
D12*
G04 #@! TO.C,R28*
X64187700Y-103505000D03*
X66012700Y-103505000D03*
G04 #@! TD*
D13*
G04 #@! TO.C,FB1*
X72000000Y-103625000D03*
X72000000Y-101500000D03*
G04 #@! TD*
D14*
G04 #@! TO.C,D8*
X64264300Y-101498400D03*
X66139300Y-101498400D03*
G04 #@! TD*
D15*
G04 #@! TO.C,C10*
X75550000Y-103900000D03*
X77450000Y-103900000D03*
G04 #@! TD*
D16*
G04 #@! TO.C,D9*
X113639600Y-105444200D03*
X113639600Y-107319200D03*
G04 #@! TD*
D17*
G04 #@! TO.C,C9*
X83247151Y-115682951D03*
X81903649Y-114339449D03*
G04 #@! TD*
D18*
G04 #@! TO.C,R23*
X87500000Y-127912500D03*
X87500000Y-126087500D03*
G04 #@! TD*
G04 #@! TO.C,R3*
X114500000Y-116500000D03*
X114500000Y-114675000D03*
G04 #@! TD*
D15*
G04 #@! TO.C,C18*
X72550000Y-122500000D03*
X74450000Y-122500000D03*
G04 #@! TD*
D16*
G04 #@! TO.C,D6*
X87500000Y-129562500D03*
X87500000Y-131437500D03*
G04 #@! TD*
D19*
G04 #@! TO.C,C2*
X91450000Y-104500000D03*
X89550000Y-104500000D03*
G04 #@! TD*
G04 #@! TO.C,C6*
X112450000Y-116500000D03*
X110550000Y-116500000D03*
G04 #@! TD*
D20*
G04 #@! TO.C,X1*
X102450000Y-106150000D03*
X96550000Y-106150000D03*
X96550000Y-108850000D03*
X102450000Y-108850000D03*
G04 #@! TD*
D21*
G04 #@! TO.C,U4*
X81600000Y-124250000D03*
X81600000Y-124750000D03*
X81600000Y-125250000D03*
X81600000Y-125750000D03*
X84400000Y-125750000D03*
X84400000Y-125250000D03*
X84400000Y-124750000D03*
X84400000Y-124250000D03*
G04 #@! TD*
D12*
G04 #@! TO.C,R32*
X70027500Y-114710000D03*
X71852500Y-114710000D03*
G04 #@! TD*
D18*
G04 #@! TO.C,R18*
X72517000Y-128064900D03*
X72517000Y-126239900D03*
G04 #@! TD*
D22*
G04 #@! TO.C,IC1*
X75525000Y-108837500D03*
X76475000Y-108837500D03*
X77425000Y-108837500D03*
X77425000Y-106562500D03*
X75525000Y-106562500D03*
G04 #@! TD*
D23*
G04 #@! TO.C,R16*
X97412500Y-128000000D03*
X95587500Y-128000000D03*
G04 #@! TD*
G04 #@! TO.C,R8*
X101912500Y-111500000D03*
X100087500Y-111500000D03*
G04 #@! TD*
D24*
G04 #@! TO.C,C4*
X84828249Y-117328249D03*
X86171751Y-118671751D03*
G04 #@! TD*
D25*
G04 #@! TO.C,C1*
X83247151Y-106948049D03*
X81903649Y-108291551D03*
G04 #@! TD*
D23*
G04 #@! TO.C,R2*
X117498500Y-112725200D03*
X115673500Y-112725200D03*
G04 #@! TD*
G04 #@! TO.C,R26*
X84912500Y-128000000D03*
X83087500Y-128000000D03*
G04 #@! TD*
D12*
G04 #@! TO.C,R19*
X72571600Y-124500000D03*
X74396600Y-124500000D03*
G04 #@! TD*
D23*
G04 #@! TO.C,R5*
X107950000Y-111988600D03*
X106125000Y-111988600D03*
G04 #@! TD*
D26*
G04 #@! TO.C,J8*
X121750000Y-129850000D03*
X106250000Y-129850000D03*
D27*
X120850000Y-120250000D03*
D28*
X106250000Y-120250000D03*
D29*
X107450000Y-119750000D03*
X108550000Y-119750000D03*
X109650000Y-119750000D03*
X110750000Y-119750000D03*
X111850000Y-119750000D03*
X112950000Y-119750000D03*
X114050000Y-119750000D03*
X115150000Y-119750000D03*
X116250000Y-119750000D03*
G04 #@! TD*
D12*
G04 #@! TO.C,R12*
X70007500Y-112510000D03*
X71832500Y-112510000D03*
G04 #@! TD*
D18*
G04 #@! TO.C,R4*
X116500000Y-116412500D03*
X116500000Y-114587500D03*
G04 #@! TD*
D15*
G04 #@! TO.C,C20*
X85050000Y-122000000D03*
X86950000Y-122000000D03*
G04 #@! TD*
D18*
G04 #@! TO.C,R14*
X101000000Y-127912500D03*
X101000000Y-126087500D03*
G04 #@! TD*
D12*
G04 #@! TO.C,R33*
X73617500Y-114550000D03*
X75442500Y-114550000D03*
G04 #@! TD*
D16*
G04 #@! TO.C,D3*
X103000000Y-129562500D03*
X103000000Y-131437500D03*
G04 #@! TD*
D18*
G04 #@! TO.C,R25*
X89500000Y-127912500D03*
X89500000Y-126087500D03*
G04 #@! TD*
D23*
G04 #@! TO.C,R6*
X107440100Y-114477800D03*
X105615100Y-114477800D03*
G04 #@! TD*
D18*
G04 #@! TO.C,R31*
X105500000Y-103850000D03*
X105500000Y-102025000D03*
G04 #@! TD*
D30*
G04 #@! TO.C,C7*
X93980000Y-106944200D03*
X93980000Y-105044200D03*
G04 #@! TD*
D23*
G04 #@! TO.C,R24*
X88912500Y-124000000D03*
X87087500Y-124000000D03*
G04 #@! TD*
D16*
G04 #@! TO.C,D5*
X74980800Y-129697000D03*
X74980800Y-131572000D03*
G04 #@! TD*
D19*
G04 #@! TO.C,C16*
X95250000Y-121710000D03*
X93350000Y-121710000D03*
G04 #@! TD*
D18*
G04 #@! TO.C,R30*
X109474000Y-103937400D03*
X109474000Y-102112400D03*
G04 #@! TD*
D19*
G04 #@! TO.C,C12*
X69950000Y-103784400D03*
X68050000Y-103784400D03*
G04 #@! TD*
D15*
G04 #@! TO.C,C11*
X75525000Y-112125000D03*
X77425000Y-112125000D03*
G04 #@! TD*
D31*
G04 #@! TO.C,D12*
X65110000Y-117470000D03*
X65110000Y-119170000D03*
X65110000Y-120870000D03*
X69910000Y-120870000D03*
X69910000Y-119170000D03*
X69910000Y-117470000D03*
G04 #@! TD*
D24*
G04 #@! TO.C,C8*
X82589449Y-117895449D03*
X83932951Y-119238951D03*
G04 #@! TD*
D12*
G04 #@! TO.C,R13*
X99500000Y-124000000D03*
X101325000Y-124000000D03*
G04 #@! TD*
D23*
G04 #@! TO.C,R9*
X71825000Y-110500000D03*
X70000000Y-110500000D03*
G04 #@! TD*
D17*
G04 #@! TO.C,C3*
X98207751Y-113625551D03*
X96864249Y-112282049D03*
G04 #@! TD*
D16*
G04 #@! TO.C,D2*
X101000000Y-129562500D03*
X101000000Y-131437500D03*
G04 #@! TD*
D32*
G04 #@! TO.C,SW5*
X120850000Y-101900000D03*
X120850000Y-108100000D03*
X117150000Y-101900000D03*
X117150000Y-108100000D03*
G04 #@! TD*
D23*
G04 #@! TO.C,R10*
X71825000Y-108500000D03*
X70000000Y-108500000D03*
G04 #@! TD*
G04 #@! TO.C,R27*
X81412500Y-128000000D03*
X79587500Y-128000000D03*
G04 #@! TD*
D16*
G04 #@! TO.C,D11*
X105500000Y-105562500D03*
X105500000Y-107437500D03*
G04 #@! TD*
D23*
G04 #@! TO.C,R7*
X107998900Y-116840000D03*
X106173900Y-116840000D03*
G04 #@! TD*
D19*
G04 #@! TO.C,C5*
X117450000Y-110500000D03*
X115550000Y-110500000D03*
G04 #@! TD*
D23*
G04 #@! TO.C,R21*
X70051300Y-127990600D03*
X68226300Y-127990600D03*
G04 #@! TD*
D18*
G04 #@! TO.C,R15*
X103000000Y-127912500D03*
X103000000Y-126087500D03*
G04 #@! TD*
D12*
G04 #@! TO.C,R1*
X111914300Y-110490000D03*
X113739300Y-110490000D03*
G04 #@! TD*
D16*
G04 #@! TO.C,D7*
X89500000Y-129625000D03*
X89500000Y-131500000D03*
G04 #@! TD*
D18*
G04 #@! TO.C,R29*
X113639600Y-103731700D03*
X113639600Y-101906700D03*
G04 #@! TD*
D19*
G04 #@! TO.C,C13*
X69950000Y-101500000D03*
X68050000Y-101500000D03*
G04 #@! TD*
D23*
G04 #@! TO.C,R22*
X66596900Y-127990600D03*
X64771900Y-127990600D03*
G04 #@! TD*
D33*
G04 #@! TO.C,C19*
X78486000Y-123459200D03*
X78486000Y-125359200D03*
G04 #@! TD*
D16*
G04 #@! TO.C,D4*
X72974200Y-129697000D03*
X72974200Y-131572000D03*
G04 #@! TD*
D23*
G04 #@! TO.C,R17*
X94000000Y-128000000D03*
X92175000Y-128000000D03*
G04 #@! TD*
D33*
G04 #@! TO.C,C17*
X64287400Y-123687800D03*
X64287400Y-125587800D03*
G04 #@! TD*
D16*
G04 #@! TO.C,D10*
X109474000Y-105562400D03*
X109474000Y-107437400D03*
G04 #@! TD*
D21*
G04 #@! TO.C,U3*
X67053000Y-124014800D03*
X67053000Y-124514800D03*
X67053000Y-125014800D03*
X67053000Y-125514800D03*
X69853000Y-125514800D03*
X69853000Y-125014800D03*
X69853000Y-124514800D03*
X69853000Y-124014800D03*
G04 #@! TD*
D34*
G04 #@! TO.C,Y2*
X79750000Y-116900000D03*
X74250000Y-116900000D03*
X74250000Y-120100000D03*
X79750000Y-120100000D03*
G04 #@! TD*
D35*
G04 #@! TO.C,U1*
X84112124Y-112998788D03*
X84465678Y-113352342D03*
X84819231Y-113705895D03*
X85172785Y-114059449D03*
X85526338Y-114413002D03*
X85879891Y-114766555D03*
X86233445Y-115120109D03*
X86586998Y-115473662D03*
X86940551Y-115827215D03*
X87294105Y-116180769D03*
X87647658Y-116534322D03*
X88001212Y-116887876D03*
D36*
X89998788Y-116887876D03*
X90352342Y-116534322D03*
X90705895Y-116180769D03*
X91059449Y-115827215D03*
X91413002Y-115473662D03*
X91766555Y-115120109D03*
X92120109Y-114766555D03*
X92473662Y-114413002D03*
X92827215Y-114059449D03*
X93180769Y-113705895D03*
X93534322Y-113352342D03*
X93887876Y-112998788D03*
D35*
X93887876Y-111001212D03*
X93534322Y-110647658D03*
X93180769Y-110294105D03*
X92827215Y-109940551D03*
X92473662Y-109586998D03*
X92120109Y-109233445D03*
X91766555Y-108879891D03*
X91413002Y-108526338D03*
X91059449Y-108172785D03*
X90705895Y-107819231D03*
X90352342Y-107465678D03*
X89998788Y-107112124D03*
D36*
X88001212Y-107112124D03*
X87647658Y-107465678D03*
X87294105Y-107819231D03*
X86940551Y-108172785D03*
X86586998Y-108526338D03*
X86233445Y-108879891D03*
X85879891Y-109233445D03*
X85526338Y-109586998D03*
X85172785Y-109940551D03*
X84819231Y-110294105D03*
X84465678Y-110647658D03*
X84112124Y-111001212D03*
G04 #@! TD*
D33*
G04 #@! TO.C,C15*
X90855800Y-122290800D03*
X90855800Y-124190800D03*
G04 #@! TD*
D18*
G04 #@! TO.C,R20*
X74422000Y-128092200D03*
X74422000Y-126267200D03*
G04 #@! TD*
D12*
G04 #@! TO.C,R11*
X100992300Y-103098600D03*
X102817300Y-103098600D03*
G04 #@! TD*
D21*
G04 #@! TO.C,U5*
X93600000Y-124250000D03*
X93600000Y-124750000D03*
X93600000Y-125250000D03*
X93600000Y-125750000D03*
X96400000Y-125750000D03*
X96400000Y-125250000D03*
X96400000Y-124750000D03*
X96400000Y-124250000D03*
G04 #@! TD*
M02*
