%TF.GenerationSoftware,KiCad,Pcbnew,8.0.7*%
%TF.CreationDate,2025-03-03T01:54:19+02:00*%
%TF.ProjectId,slug_v1_0,736c7567-5f76-4315-9f30-2e6b69636164,rev?*%
%TF.SameCoordinates,Original*%
%TF.FileFunction,Drillmap*%
%TF.FilePolarity,Positive*%
%FSLAX45Y45*%
G04 Gerber Fmt 4.5, Leading zero omitted, Abs format (unit mm)*
G04 Created by KiCad (PCBNEW 8.0.7) date 2025-03-03 01:54:19*
%MOMM*%
%LPD*%
G01*
G04 APERTURE LIST*
%ADD10C,0.050000*%
%ADD11C,0.200000*%
%ADD12C,0.100000*%
G04 APERTURE END LIST*
D10*
X6290000Y-9990000D02*
X12310000Y-9990000D01*
X12310000Y-13510000D01*
X6290000Y-13510000D01*
X6290000Y-9990000D01*
D11*
D12*
X6454380Y-12253200D02*
X6484380Y-12283200D01*
X6484380Y-12253200D02*
X6454380Y-12283200D01*
X6472160Y-12639280D02*
X6502160Y-12669280D01*
X6502160Y-12639280D02*
X6472160Y-12669280D01*
X6477240Y-12954240D02*
X6507240Y-12984240D01*
X6507240Y-12954240D02*
X6477240Y-12984240D01*
X6576620Y-12565620D02*
X6606620Y-12595620D01*
X6606620Y-12565620D02*
X6576620Y-12595620D01*
X6594000Y-11104000D02*
X6624000Y-11134000D01*
X6624000Y-11104000D02*
X6594000Y-11134000D01*
X6596000Y-11024000D02*
X6626000Y-11054000D01*
X6626000Y-11024000D02*
X6596000Y-11054000D01*
X6674000Y-12073000D02*
X6704000Y-12103000D01*
X6704000Y-12073000D02*
X6674000Y-12103000D01*
X6683000Y-11735000D02*
X6713000Y-11765000D01*
X6713000Y-11735000D02*
X6683000Y-11765000D01*
X6684000Y-11901000D02*
X6714000Y-11931000D01*
X6714000Y-11901000D02*
X6684000Y-11931000D01*
X6684500Y-10352500D02*
X6714500Y-10382500D01*
X6714500Y-10352500D02*
X6684500Y-10382500D01*
X6697033Y-10078800D02*
X6727033Y-10108800D01*
X6727033Y-10078800D02*
X6697033Y-10108800D01*
X6731240Y-12954240D02*
X6761240Y-12984240D01*
X6761240Y-12954240D02*
X6731240Y-12984240D01*
X6789660Y-10487900D02*
X6819660Y-10517900D01*
X6819660Y-10487900D02*
X6789660Y-10517900D01*
X6985240Y-12954240D02*
X7015240Y-12984240D01*
X7015240Y-12954240D02*
X6985240Y-12984240D01*
X7076680Y-12217640D02*
X7106680Y-12247640D01*
X7106680Y-12217640D02*
X7076680Y-12247640D01*
X7121000Y-12506000D02*
X7151000Y-12536000D01*
X7151000Y-12506000D02*
X7121000Y-12536000D01*
X7204000Y-13067000D02*
X7234000Y-13097000D01*
X7234000Y-13067000D02*
X7204000Y-13097000D01*
X7258477Y-10918125D02*
X7288477Y-10948125D01*
X7288477Y-10918125D02*
X7258477Y-10948125D01*
X7266300Y-10835000D02*
X7296300Y-10865000D01*
X7296300Y-10835000D02*
X7266300Y-10865000D01*
X7268000Y-10491000D02*
X7298000Y-10521000D01*
X7298000Y-10491000D02*
X7268000Y-10521000D01*
X7302000Y-11104000D02*
X7332000Y-11134000D01*
X7332000Y-11104000D02*
X7302000Y-11134000D01*
X7394000Y-11253000D02*
X7424000Y-11283000D01*
X7424000Y-11253000D02*
X7394000Y-11283000D01*
X7417500Y-10897500D02*
X7447500Y-10927500D01*
X7447500Y-10897500D02*
X7417500Y-10927500D01*
X7430000Y-10375000D02*
X7460000Y-10405000D01*
X7460000Y-10375000D02*
X7430000Y-10405000D01*
X7445000Y-10630000D02*
X7475000Y-10660000D01*
X7475000Y-10630000D02*
X7445000Y-10660000D01*
X7523720Y-13266660D02*
X7553720Y-13296660D01*
X7553720Y-13266660D02*
X7523720Y-13296660D01*
X7544040Y-12235420D02*
X7574040Y-12265420D01*
X7574040Y-12235420D02*
X7544040Y-12265420D01*
X7544040Y-12433540D02*
X7574040Y-12463540D01*
X7574040Y-12433540D02*
X7544040Y-12463540D01*
X7561820Y-12552920D02*
X7591820Y-12582920D01*
X7591820Y-12552920D02*
X7561820Y-12582920D01*
X7569440Y-11719800D02*
X7599440Y-11749800D01*
X7599440Y-11719800D02*
X7569440Y-11749800D01*
X7571980Y-11950940D02*
X7601980Y-11980940D01*
X7601980Y-11950940D02*
X7571980Y-11980940D01*
X7683740Y-12143980D02*
X7713740Y-12173980D01*
X7713740Y-12143980D02*
X7683740Y-12173980D01*
X7727500Y-11327500D02*
X7757500Y-11357500D01*
X7757500Y-11327500D02*
X7727500Y-11357500D01*
X7820000Y-10850000D02*
X7850000Y-10880000D01*
X7850000Y-10850000D02*
X7820000Y-10880000D01*
X7842500Y-11200000D02*
X7872500Y-11230000D01*
X7872500Y-11200000D02*
X7842500Y-11230000D01*
X7847500Y-10375000D02*
X7877500Y-10405000D01*
X7877500Y-10375000D02*
X7847500Y-10405000D01*
X7925040Y-12641820D02*
X7955040Y-12671820D01*
X7955040Y-12641820D02*
X7925040Y-12671820D01*
X7945360Y-12969480D02*
X7975360Y-12999480D01*
X7975360Y-12969480D02*
X7945360Y-12999480D01*
X7950440Y-12407940D02*
X7980440Y-12437940D01*
X7980440Y-12407940D02*
X7950440Y-12437940D01*
X7957000Y-12522000D02*
X7987000Y-12552000D01*
X7987000Y-12522000D02*
X7957000Y-12552000D01*
X8072360Y-10973040D02*
X8102360Y-11003040D01*
X8102360Y-10973040D02*
X8072360Y-11003040D01*
X8082520Y-11511520D02*
X8112520Y-11541520D01*
X8112520Y-11511520D02*
X8082520Y-11541520D01*
X8135860Y-11950940D02*
X8165860Y-11980940D01*
X8165860Y-11950940D02*
X8135860Y-11980940D01*
X8189200Y-12029680D02*
X8219200Y-12059680D01*
X8219200Y-12029680D02*
X8189200Y-12059680D01*
X8199360Y-12974560D02*
X8229360Y-13004560D01*
X8229360Y-12974560D02*
X8199360Y-13004560D01*
X8201900Y-11653760D02*
X8231900Y-11683760D01*
X8231900Y-11653760D02*
X8201900Y-11683760D01*
X8295880Y-10985740D02*
X8325880Y-11015740D01*
X8325880Y-10985740D02*
X8295880Y-11015740D01*
X8298000Y-10305000D02*
X8328000Y-10335000D01*
X8328000Y-10305000D02*
X8298000Y-10335000D01*
X8298420Y-11249900D02*
X8328420Y-11279900D01*
X8328420Y-11249900D02*
X8298420Y-11279900D01*
X8374620Y-10856200D02*
X8404620Y-10886200D01*
X8404620Y-10856200D02*
X8374620Y-10886200D01*
X8453360Y-12969480D02*
X8483360Y-12999480D01*
X8483360Y-12969480D02*
X8453360Y-12999480D01*
X8490707Y-11983206D02*
X8520707Y-12013206D01*
X8520707Y-11983206D02*
X8490707Y-12013206D01*
X8504325Y-10574591D02*
X8534325Y-10604591D01*
X8534325Y-10574591D02*
X8504325Y-10604591D01*
X8538096Y-11623828D02*
X8568096Y-11653828D01*
X8568096Y-11623828D02*
X8538096Y-11653828D01*
X8543193Y-10734789D02*
X8573193Y-10764789D01*
X8573193Y-10734789D02*
X8543193Y-10764789D01*
X8553000Y-10638080D02*
X8583000Y-10668080D01*
X8583000Y-10638080D02*
X8553000Y-10668080D01*
X8557000Y-10296000D02*
X8587000Y-10326000D01*
X8587000Y-10296000D02*
X8557000Y-10326000D01*
X8573519Y-10515591D02*
X8603519Y-10545591D01*
X8603519Y-10515591D02*
X8573519Y-10545591D01*
X8590000Y-12520000D02*
X8620000Y-12550000D01*
X8620000Y-12520000D02*
X8590000Y-12550000D01*
X8634970Y-11329910D02*
X8664970Y-11359910D01*
X8664970Y-11329910D02*
X8634970Y-11359910D01*
X8641000Y-11031000D02*
X8671000Y-11061000D01*
X8671000Y-11031000D02*
X8641000Y-11061000D01*
X8685404Y-13039975D02*
X8715404Y-13069975D01*
X8715404Y-13039975D02*
X8685404Y-13069975D01*
X8705610Y-10970255D02*
X8735610Y-11000255D01*
X8735610Y-10970255D02*
X8705610Y-11000255D01*
X8712440Y-11351500D02*
X8742440Y-11381500D01*
X8742440Y-11351500D02*
X8712440Y-11381500D01*
X8732760Y-11442940D02*
X8762760Y-11472940D01*
X8762760Y-11442940D02*
X8732760Y-11472940D01*
X8745460Y-11816320D02*
X8775460Y-11846320D01*
X8775460Y-11816320D02*
X8745460Y-11846320D01*
X8760700Y-12507200D02*
X8790700Y-12537200D01*
X8790700Y-12507200D02*
X8760700Y-12537200D01*
X8811000Y-10376000D02*
X8841000Y-10406000D01*
X8841000Y-10376000D02*
X8811000Y-10406000D01*
X8811500Y-12192240D02*
X8841500Y-12222240D01*
X8841500Y-12192240D02*
X8811500Y-12222240D01*
X8825000Y-10476000D02*
X8855000Y-10506000D01*
X8855000Y-10476000D02*
X8825000Y-10506000D01*
X8885160Y-12502120D02*
X8915160Y-12532120D01*
X8915160Y-12502120D02*
X8885160Y-12532120D01*
X8892780Y-10866360D02*
X8922780Y-10896360D01*
X8922780Y-10866360D02*
X8892780Y-10896360D01*
X8894618Y-10780960D02*
X8924618Y-10810960D01*
X8924618Y-10780960D02*
X8894618Y-10810960D01*
X8920720Y-12232880D02*
X8950720Y-12262880D01*
X8950720Y-12232880D02*
X8920720Y-12262880D01*
X8963900Y-10305020D02*
X8993900Y-10335020D01*
X8993900Y-10305020D02*
X8963900Y-10335020D01*
X8976600Y-13299680D02*
X9006600Y-13329680D01*
X9006600Y-13299680D02*
X8976600Y-13329680D01*
X9007080Y-11381980D02*
X9037080Y-11411980D01*
X9037080Y-11381980D02*
X9007080Y-11411980D01*
X9030068Y-11305354D02*
X9060068Y-11335354D01*
X9060068Y-11305354D02*
X9030068Y-11335354D01*
X9052800Y-11910300D02*
X9082800Y-11940300D01*
X9082800Y-11910300D02*
X9052800Y-11940300D01*
X9065000Y-10145000D02*
X9095000Y-10175000D01*
X9095000Y-10145000D02*
X9065000Y-10175000D01*
X9126460Y-12611340D02*
X9156460Y-12641340D01*
X9156460Y-12611340D02*
X9126460Y-12641340D01*
X9134000Y-10318000D02*
X9164000Y-10348000D01*
X9164000Y-10318000D02*
X9134000Y-10348000D01*
X9154400Y-12512280D02*
X9184400Y-12542280D01*
X9184400Y-12512280D02*
X9154400Y-12542280D01*
X9164771Y-12320090D02*
X9194771Y-12350090D01*
X9194771Y-12320090D02*
X9164771Y-12350090D01*
X9188636Y-11259786D02*
X9218636Y-11289786D01*
X9218636Y-11259786D02*
X9188636Y-11289786D01*
X9220440Y-12214080D02*
X9250440Y-12244080D01*
X9250440Y-12214080D02*
X9220440Y-12244080D01*
X9228060Y-10698720D02*
X9258060Y-10728720D01*
X9258060Y-10698720D02*
X9228060Y-10728720D01*
X9276320Y-12994880D02*
X9306320Y-13024880D01*
X9306320Y-12994880D02*
X9276320Y-13024880D01*
X9283872Y-11199786D02*
X9313872Y-11229786D01*
X9313872Y-11199786D02*
X9283872Y-11229786D01*
X9324580Y-10818100D02*
X9354580Y-10848100D01*
X9354580Y-10818100D02*
X9324580Y-10848100D01*
X9428770Y-10828989D02*
X9458770Y-10858989D01*
X9458770Y-10828989D02*
X9428770Y-10858989D01*
X9446500Y-10907000D02*
X9476500Y-10937000D01*
X9476500Y-10907000D02*
X9446500Y-10937000D01*
X9499840Y-10489420D02*
X9529840Y-10519420D01*
X9529840Y-10489420D02*
X9499840Y-10519420D01*
X9526744Y-11496280D02*
X9556744Y-11526280D01*
X9556744Y-11496280D02*
X9526744Y-11526280D01*
X9528000Y-10277000D02*
X9558000Y-10307000D01*
X9558000Y-10277000D02*
X9528000Y-10307000D01*
X9533500Y-13008220D02*
X9563500Y-13038220D01*
X9563500Y-13008220D02*
X9533500Y-13038220D01*
X9581120Y-11125440D02*
X9611120Y-11155440D01*
X9611120Y-11125440D02*
X9581120Y-11155440D01*
X9627329Y-11621447D02*
X9657329Y-11651447D01*
X9657329Y-11621447D02*
X9627329Y-11651447D01*
X9630160Y-11743302D02*
X9660160Y-11773302D01*
X9660160Y-11743302D02*
X9630160Y-11773302D01*
X9667480Y-11889980D02*
X9697480Y-11919980D01*
X9697480Y-11889980D02*
X9667480Y-11919980D01*
X9784320Y-12989800D02*
X9814320Y-13019800D01*
X9814320Y-12989800D02*
X9784320Y-13019800D01*
X9811000Y-12531000D02*
X9841000Y-12561000D01*
X9841000Y-12531000D02*
X9811000Y-12561000D01*
X9835120Y-10724120D02*
X9865120Y-10754120D01*
X9865120Y-10724120D02*
X9835120Y-10754120D01*
X9865600Y-11135600D02*
X9895600Y-11165600D01*
X9895600Y-11135600D02*
X9865600Y-11165600D01*
X9880840Y-11422620D02*
X9910840Y-11452620D01*
X9910840Y-11422620D02*
X9880840Y-11452620D01*
X9914750Y-12593750D02*
X9944750Y-12623750D01*
X9944750Y-12593750D02*
X9914750Y-12623750D01*
X9959580Y-10825720D02*
X9989580Y-10855720D01*
X9989580Y-10825720D02*
X9959580Y-10855720D01*
X9969740Y-13060000D02*
X9999740Y-13090000D01*
X9999740Y-13060000D02*
X9969740Y-13090000D01*
X10010380Y-11326100D02*
X10040380Y-11356100D01*
X10040380Y-11326100D02*
X10010380Y-11356100D01*
X10188000Y-13227000D02*
X10218000Y-13257000D01*
X10218000Y-13227000D02*
X10188000Y-13257000D01*
X10223740Y-12387820D02*
X10253740Y-12417820D01*
X10253740Y-12387820D02*
X10223740Y-12417820D01*
X10285000Y-12489420D02*
X10315000Y-12519420D01*
X10315000Y-12489420D02*
X10285000Y-12519420D01*
X10307560Y-11663920D02*
X10337560Y-11693920D01*
X10337560Y-11663920D02*
X10307560Y-11693920D01*
X10414240Y-10868900D02*
X10444240Y-10898900D01*
X10444240Y-10868900D02*
X10414240Y-10898900D01*
X10495520Y-11671540D02*
X10525520Y-11701540D01*
X10525520Y-11671540D02*
X10495520Y-11701540D01*
X10536160Y-10091660D02*
X10566160Y-10121660D01*
X10566160Y-10091660D02*
X10536160Y-10121660D01*
X10676000Y-12164000D02*
X10706000Y-12194000D01*
X10706000Y-12164000D02*
X10676000Y-12194000D01*
X10714000Y-13171000D02*
X10744000Y-13201000D01*
X10744000Y-13171000D02*
X10714000Y-13201000D01*
X10932400Y-11635980D02*
X10962400Y-11665980D01*
X10962400Y-11635980D02*
X10932400Y-11665980D01*
X10937140Y-10089110D02*
X10967140Y-10119110D01*
X10967140Y-10089110D02*
X10937140Y-10119110D01*
X11036540Y-11000980D02*
X11066540Y-11030980D01*
X11066540Y-11000980D02*
X11036540Y-11030980D01*
X11196560Y-11206720D02*
X11226560Y-11236720D01*
X11226560Y-11206720D02*
X11196560Y-11236720D01*
X11227040Y-11501360D02*
X11257040Y-11531360D01*
X11257040Y-11501360D02*
X11227040Y-11531360D01*
X11350640Y-10074750D02*
X11380640Y-10104750D01*
X11380640Y-10074750D02*
X11350640Y-10104750D01*
X11356580Y-11333720D02*
X11386580Y-11363720D01*
X11386580Y-11333720D02*
X11356580Y-11363720D01*
X11425160Y-11239740D02*
X11455160Y-11269740D01*
X11455160Y-11239740D02*
X11425160Y-11269740D01*
X11432780Y-11757900D02*
X11462780Y-11787900D01*
X11462780Y-11757900D02*
X11432780Y-11787900D01*
X11851880Y-11036540D02*
X11881880Y-11066540D01*
X11881880Y-11036540D02*
X11851880Y-11066540D01*
X11884900Y-12080480D02*
X11914900Y-12110480D01*
X11914900Y-12080480D02*
X11884900Y-12110480D01*
X11902680Y-11564000D02*
X11932680Y-11594000D01*
X11932680Y-11564000D02*
X11902680Y-11594000D01*
X11923000Y-11242280D02*
X11953000Y-11272280D01*
X11953000Y-11242280D02*
X11923000Y-11272280D01*
X11986500Y-12913600D02*
X12016500Y-12943600D01*
X12016500Y-12913600D02*
X11986500Y-12943600D01*
X12025000Y-10490440D02*
X12055000Y-10520440D01*
X12055000Y-10490440D02*
X12025000Y-10520440D01*
X6486250Y-10634000D02*
G75*
G02*
X6426250Y-10634000I-30000J0D01*
G01*
X6426250Y-10634000D02*
G75*
G02*
X6486250Y-10634000I30000J0D01*
G01*
X6421250Y-10664000D02*
X6491250Y-10664000D01*
X6491250Y-10604000D02*
G75*
G02*
X6491250Y-10664000I0J-30000D01*
G01*
X6491250Y-10604000D02*
X6421250Y-10604000D01*
X6421250Y-10604000D02*
G75*
G03*
X6421250Y-10664000I0J-30000D01*
G01*
X6486250Y-11334000D02*
G75*
G02*
X6426250Y-11334000I-30000J0D01*
G01*
X6426250Y-11334000D02*
G75*
G02*
X6486250Y-11334000I30000J0D01*
G01*
X6491250Y-11304000D02*
X6421250Y-11304000D01*
X6421250Y-11364000D02*
G75*
G02*
X6421250Y-11304000I0J30000D01*
G01*
X6421250Y-11364000D02*
X6491250Y-11364000D01*
X6491250Y-11364000D02*
G75*
G03*
X6491250Y-11304000I0J30000D01*
G01*
X6726250Y-10691500D02*
X6726250Y-10776500D01*
X6683750Y-10734000D02*
X6768750Y-10734000D01*
X6726250Y-11191500D02*
X6726250Y-11276500D01*
X6683750Y-11234000D02*
X6768750Y-11234000D01*
X6530136Y-13352576D02*
X6530136Y-13281864D01*
X6459424Y-13281864D01*
X6459424Y-13352576D01*
X6530136Y-13352576D01*
X6784136Y-13352576D02*
X6784136Y-13281864D01*
X6713424Y-13281864D01*
X6713424Y-13352576D01*
X6784136Y-13352576D01*
X7038136Y-13352576D02*
X7038136Y-13281864D01*
X6967424Y-13281864D01*
X6967424Y-13352576D01*
X7038136Y-13352576D01*
X7994216Y-13351956D02*
X7994216Y-13281244D01*
X7923504Y-13281244D01*
X7923504Y-13351956D01*
X7994216Y-13351956D01*
X8248216Y-13351956D02*
X8248216Y-13281244D01*
X8177504Y-13281244D01*
X8177504Y-13351956D01*
X8248216Y-13351956D01*
X8351356Y-10189356D02*
X8351356Y-10118644D01*
X8280644Y-10118644D01*
X8280644Y-10189356D01*
X8351356Y-10189356D01*
X8502216Y-13351956D02*
X8502216Y-13281244D01*
X8431504Y-13281244D01*
X8431504Y-13351956D01*
X8502216Y-13351956D01*
X8605356Y-10189356D02*
X8605356Y-10118644D01*
X8534644Y-10118644D01*
X8534644Y-10189356D01*
X8605356Y-10189356D01*
X8859356Y-10189356D02*
X8859356Y-10118644D01*
X8788644Y-10118644D01*
X8788644Y-10189356D01*
X8859356Y-10189356D01*
X9327356Y-10195356D02*
X9327356Y-10124644D01*
X9256644Y-10124644D01*
X9256644Y-10195356D01*
X9327356Y-10195356D01*
X9334296Y-13360196D02*
X9334296Y-13289484D01*
X9263584Y-13289484D01*
X9263584Y-13360196D01*
X9334296Y-13360196D01*
X9581356Y-10195356D02*
X9581356Y-10124644D01*
X9510644Y-10124644D01*
X9510644Y-10195356D01*
X9581356Y-10195356D01*
X9588296Y-13360196D02*
X9588296Y-13289484D01*
X9517584Y-13289484D01*
X9517584Y-13360196D01*
X9588296Y-13360196D01*
X9835356Y-10195356D02*
X9835356Y-10124644D01*
X9764644Y-10124644D01*
X9764644Y-10195356D01*
X9835356Y-10195356D01*
X9842296Y-13360196D02*
X9842296Y-13289484D01*
X9771584Y-13289484D01*
X9771584Y-13360196D01*
X9842296Y-13360196D01*
X12130356Y-11360356D02*
X12130356Y-11289644D01*
X12059644Y-11289644D01*
X12059644Y-11360356D01*
X12130356Y-11360356D01*
X12130356Y-11614356D02*
X12130356Y-11543644D01*
X12059644Y-11543644D01*
X12059644Y-11614356D01*
X12130356Y-11614356D01*
D11*
X6548277Y-13823984D02*
X6548277Y-13623984D01*
X6548277Y-13623984D02*
X6595896Y-13623984D01*
X6595896Y-13623984D02*
X6624467Y-13633508D01*
X6624467Y-13633508D02*
X6643515Y-13652555D01*
X6643515Y-13652555D02*
X6653039Y-13671603D01*
X6653039Y-13671603D02*
X6662562Y-13709698D01*
X6662562Y-13709698D02*
X6662562Y-13738269D01*
X6662562Y-13738269D02*
X6653039Y-13776365D01*
X6653039Y-13776365D02*
X6643515Y-13795412D01*
X6643515Y-13795412D02*
X6624467Y-13814460D01*
X6624467Y-13814460D02*
X6595896Y-13823984D01*
X6595896Y-13823984D02*
X6548277Y-13823984D01*
X6748277Y-13823984D02*
X6748277Y-13690650D01*
X6748277Y-13728746D02*
X6757801Y-13709698D01*
X6757801Y-13709698D02*
X6767324Y-13700174D01*
X6767324Y-13700174D02*
X6786372Y-13690650D01*
X6786372Y-13690650D02*
X6805420Y-13690650D01*
X6872086Y-13823984D02*
X6872086Y-13690650D01*
X6872086Y-13623984D02*
X6862562Y-13633508D01*
X6862562Y-13633508D02*
X6872086Y-13643031D01*
X6872086Y-13643031D02*
X6881610Y-13633508D01*
X6881610Y-13633508D02*
X6872086Y-13623984D01*
X6872086Y-13623984D02*
X6872086Y-13643031D01*
X6995896Y-13823984D02*
X6976848Y-13814460D01*
X6976848Y-13814460D02*
X6967324Y-13795412D01*
X6967324Y-13795412D02*
X6967324Y-13623984D01*
X7100658Y-13823984D02*
X7081610Y-13814460D01*
X7081610Y-13814460D02*
X7072086Y-13795412D01*
X7072086Y-13795412D02*
X7072086Y-13623984D01*
X7329229Y-13823984D02*
X7329229Y-13623984D01*
X7329229Y-13623984D02*
X7395896Y-13766841D01*
X7395896Y-13766841D02*
X7462562Y-13623984D01*
X7462562Y-13623984D02*
X7462562Y-13823984D01*
X7643515Y-13823984D02*
X7643515Y-13719222D01*
X7643515Y-13719222D02*
X7633991Y-13700174D01*
X7633991Y-13700174D02*
X7614943Y-13690650D01*
X7614943Y-13690650D02*
X7576848Y-13690650D01*
X7576848Y-13690650D02*
X7557801Y-13700174D01*
X7643515Y-13814460D02*
X7624467Y-13823984D01*
X7624467Y-13823984D02*
X7576848Y-13823984D01*
X7576848Y-13823984D02*
X7557801Y-13814460D01*
X7557801Y-13814460D02*
X7548277Y-13795412D01*
X7548277Y-13795412D02*
X7548277Y-13776365D01*
X7548277Y-13776365D02*
X7557801Y-13757317D01*
X7557801Y-13757317D02*
X7576848Y-13747793D01*
X7576848Y-13747793D02*
X7624467Y-13747793D01*
X7624467Y-13747793D02*
X7643515Y-13738269D01*
X7738753Y-13690650D02*
X7738753Y-13890650D01*
X7738753Y-13700174D02*
X7757801Y-13690650D01*
X7757801Y-13690650D02*
X7795896Y-13690650D01*
X7795896Y-13690650D02*
X7814943Y-13700174D01*
X7814943Y-13700174D02*
X7824467Y-13709698D01*
X7824467Y-13709698D02*
X7833991Y-13728746D01*
X7833991Y-13728746D02*
X7833991Y-13785888D01*
X7833991Y-13785888D02*
X7824467Y-13804936D01*
X7824467Y-13804936D02*
X7814943Y-13814460D01*
X7814943Y-13814460D02*
X7795896Y-13823984D01*
X7795896Y-13823984D02*
X7757801Y-13823984D01*
X7757801Y-13823984D02*
X7738753Y-13814460D01*
X7919705Y-13804936D02*
X7929229Y-13814460D01*
X7929229Y-13814460D02*
X7919705Y-13823984D01*
X7919705Y-13823984D02*
X7910182Y-13814460D01*
X7910182Y-13814460D02*
X7919705Y-13804936D01*
X7919705Y-13804936D02*
X7919705Y-13823984D01*
X7919705Y-13700174D02*
X7929229Y-13709698D01*
X7929229Y-13709698D02*
X7919705Y-13719222D01*
X7919705Y-13719222D02*
X7910182Y-13709698D01*
X7910182Y-13709698D02*
X7919705Y-13700174D01*
X7919705Y-13700174D02*
X7919705Y-13719222D01*
D12*
X6257500Y-14137500D02*
X6287500Y-14167500D01*
X6287500Y-14137500D02*
X6257500Y-14167500D01*
D11*
X6586372Y-14043984D02*
X6605420Y-14043984D01*
X6605420Y-14043984D02*
X6624467Y-14053508D01*
X6624467Y-14053508D02*
X6633991Y-14063031D01*
X6633991Y-14063031D02*
X6643515Y-14082079D01*
X6643515Y-14082079D02*
X6653039Y-14120174D01*
X6653039Y-14120174D02*
X6653039Y-14167793D01*
X6653039Y-14167793D02*
X6643515Y-14205888D01*
X6643515Y-14205888D02*
X6633991Y-14224936D01*
X6633991Y-14224936D02*
X6624467Y-14234460D01*
X6624467Y-14234460D02*
X6605420Y-14243984D01*
X6605420Y-14243984D02*
X6586372Y-14243984D01*
X6586372Y-14243984D02*
X6567324Y-14234460D01*
X6567324Y-14234460D02*
X6557801Y-14224936D01*
X6557801Y-14224936D02*
X6548277Y-14205888D01*
X6548277Y-14205888D02*
X6538753Y-14167793D01*
X6538753Y-14167793D02*
X6538753Y-14120174D01*
X6538753Y-14120174D02*
X6548277Y-14082079D01*
X6548277Y-14082079D02*
X6557801Y-14063031D01*
X6557801Y-14063031D02*
X6567324Y-14053508D01*
X6567324Y-14053508D02*
X6586372Y-14043984D01*
X6738753Y-14224936D02*
X6748277Y-14234460D01*
X6748277Y-14234460D02*
X6738753Y-14243984D01*
X6738753Y-14243984D02*
X6729229Y-14234460D01*
X6729229Y-14234460D02*
X6738753Y-14224936D01*
X6738753Y-14224936D02*
X6738753Y-14243984D01*
X6814943Y-14043984D02*
X6938753Y-14043984D01*
X6938753Y-14043984D02*
X6872086Y-14120174D01*
X6872086Y-14120174D02*
X6900658Y-14120174D01*
X6900658Y-14120174D02*
X6919705Y-14129698D01*
X6919705Y-14129698D02*
X6929229Y-14139222D01*
X6929229Y-14139222D02*
X6938753Y-14158269D01*
X6938753Y-14158269D02*
X6938753Y-14205888D01*
X6938753Y-14205888D02*
X6929229Y-14224936D01*
X6929229Y-14224936D02*
X6919705Y-14234460D01*
X6919705Y-14234460D02*
X6900658Y-14243984D01*
X6900658Y-14243984D02*
X6843515Y-14243984D01*
X6843515Y-14243984D02*
X6824467Y-14234460D01*
X6824467Y-14234460D02*
X6814943Y-14224936D01*
X7062562Y-14043984D02*
X7081610Y-14043984D01*
X7081610Y-14043984D02*
X7100658Y-14053508D01*
X7100658Y-14053508D02*
X7110182Y-14063031D01*
X7110182Y-14063031D02*
X7119705Y-14082079D01*
X7119705Y-14082079D02*
X7129229Y-14120174D01*
X7129229Y-14120174D02*
X7129229Y-14167793D01*
X7129229Y-14167793D02*
X7119705Y-14205888D01*
X7119705Y-14205888D02*
X7110182Y-14224936D01*
X7110182Y-14224936D02*
X7100658Y-14234460D01*
X7100658Y-14234460D02*
X7081610Y-14243984D01*
X7081610Y-14243984D02*
X7062562Y-14243984D01*
X7062562Y-14243984D02*
X7043515Y-14234460D01*
X7043515Y-14234460D02*
X7033991Y-14224936D01*
X7033991Y-14224936D02*
X7024467Y-14205888D01*
X7024467Y-14205888D02*
X7014943Y-14167793D01*
X7014943Y-14167793D02*
X7014943Y-14120174D01*
X7014943Y-14120174D02*
X7024467Y-14082079D01*
X7024467Y-14082079D02*
X7033991Y-14063031D01*
X7033991Y-14063031D02*
X7043515Y-14053508D01*
X7043515Y-14053508D02*
X7062562Y-14043984D01*
X7253039Y-14043984D02*
X7272086Y-14043984D01*
X7272086Y-14043984D02*
X7291134Y-14053508D01*
X7291134Y-14053508D02*
X7300658Y-14063031D01*
X7300658Y-14063031D02*
X7310182Y-14082079D01*
X7310182Y-14082079D02*
X7319705Y-14120174D01*
X7319705Y-14120174D02*
X7319705Y-14167793D01*
X7319705Y-14167793D02*
X7310182Y-14205888D01*
X7310182Y-14205888D02*
X7300658Y-14224936D01*
X7300658Y-14224936D02*
X7291134Y-14234460D01*
X7291134Y-14234460D02*
X7272086Y-14243984D01*
X7272086Y-14243984D02*
X7253039Y-14243984D01*
X7253039Y-14243984D02*
X7233991Y-14234460D01*
X7233991Y-14234460D02*
X7224467Y-14224936D01*
X7224467Y-14224936D02*
X7214943Y-14205888D01*
X7214943Y-14205888D02*
X7205420Y-14167793D01*
X7205420Y-14167793D02*
X7205420Y-14120174D01*
X7205420Y-14120174D02*
X7214943Y-14082079D01*
X7214943Y-14082079D02*
X7224467Y-14063031D01*
X7224467Y-14063031D02*
X7233991Y-14053508D01*
X7233991Y-14053508D02*
X7253039Y-14043984D01*
X7405420Y-14243984D02*
X7405420Y-14110650D01*
X7405420Y-14129698D02*
X7414943Y-14120174D01*
X7414943Y-14120174D02*
X7433991Y-14110650D01*
X7433991Y-14110650D02*
X7462563Y-14110650D01*
X7462563Y-14110650D02*
X7481610Y-14120174D01*
X7481610Y-14120174D02*
X7491134Y-14139222D01*
X7491134Y-14139222D02*
X7491134Y-14243984D01*
X7491134Y-14139222D02*
X7500658Y-14120174D01*
X7500658Y-14120174D02*
X7519705Y-14110650D01*
X7519705Y-14110650D02*
X7548277Y-14110650D01*
X7548277Y-14110650D02*
X7567324Y-14120174D01*
X7567324Y-14120174D02*
X7576848Y-14139222D01*
X7576848Y-14139222D02*
X7576848Y-14243984D01*
X7672086Y-14243984D02*
X7672086Y-14110650D01*
X7672086Y-14129698D02*
X7681610Y-14120174D01*
X7681610Y-14120174D02*
X7700658Y-14110650D01*
X7700658Y-14110650D02*
X7729229Y-14110650D01*
X7729229Y-14110650D02*
X7748277Y-14120174D01*
X7748277Y-14120174D02*
X7757801Y-14139222D01*
X7757801Y-14139222D02*
X7757801Y-14243984D01*
X7757801Y-14139222D02*
X7767324Y-14120174D01*
X7767324Y-14120174D02*
X7786372Y-14110650D01*
X7786372Y-14110650D02*
X7814943Y-14110650D01*
X7814943Y-14110650D02*
X7833991Y-14120174D01*
X7833991Y-14120174D02*
X7843515Y-14139222D01*
X7843515Y-14139222D02*
X7843515Y-14243984D01*
X8233991Y-14034460D02*
X8062563Y-14291603D01*
X8491134Y-14043984D02*
X8510182Y-14043984D01*
X8510182Y-14043984D02*
X8529229Y-14053508D01*
X8529229Y-14053508D02*
X8538753Y-14063031D01*
X8538753Y-14063031D02*
X8548277Y-14082079D01*
X8548277Y-14082079D02*
X8557801Y-14120174D01*
X8557801Y-14120174D02*
X8557801Y-14167793D01*
X8557801Y-14167793D02*
X8548277Y-14205888D01*
X8548277Y-14205888D02*
X8538753Y-14224936D01*
X8538753Y-14224936D02*
X8529229Y-14234460D01*
X8529229Y-14234460D02*
X8510182Y-14243984D01*
X8510182Y-14243984D02*
X8491134Y-14243984D01*
X8491134Y-14243984D02*
X8472087Y-14234460D01*
X8472087Y-14234460D02*
X8462563Y-14224936D01*
X8462563Y-14224936D02*
X8453039Y-14205888D01*
X8453039Y-14205888D02*
X8443515Y-14167793D01*
X8443515Y-14167793D02*
X8443515Y-14120174D01*
X8443515Y-14120174D02*
X8453039Y-14082079D01*
X8453039Y-14082079D02*
X8462563Y-14063031D01*
X8462563Y-14063031D02*
X8472087Y-14053508D01*
X8472087Y-14053508D02*
X8491134Y-14043984D01*
X8643515Y-14224936D02*
X8653039Y-14234460D01*
X8653039Y-14234460D02*
X8643515Y-14243984D01*
X8643515Y-14243984D02*
X8633991Y-14234460D01*
X8633991Y-14234460D02*
X8643515Y-14224936D01*
X8643515Y-14224936D02*
X8643515Y-14243984D01*
X8776848Y-14043984D02*
X8795896Y-14043984D01*
X8795896Y-14043984D02*
X8814944Y-14053508D01*
X8814944Y-14053508D02*
X8824468Y-14063031D01*
X8824468Y-14063031D02*
X8833991Y-14082079D01*
X8833991Y-14082079D02*
X8843515Y-14120174D01*
X8843515Y-14120174D02*
X8843515Y-14167793D01*
X8843515Y-14167793D02*
X8833991Y-14205888D01*
X8833991Y-14205888D02*
X8824468Y-14224936D01*
X8824468Y-14224936D02*
X8814944Y-14234460D01*
X8814944Y-14234460D02*
X8795896Y-14243984D01*
X8795896Y-14243984D02*
X8776848Y-14243984D01*
X8776848Y-14243984D02*
X8757801Y-14234460D01*
X8757801Y-14234460D02*
X8748277Y-14224936D01*
X8748277Y-14224936D02*
X8738753Y-14205888D01*
X8738753Y-14205888D02*
X8729229Y-14167793D01*
X8729229Y-14167793D02*
X8729229Y-14120174D01*
X8729229Y-14120174D02*
X8738753Y-14082079D01*
X8738753Y-14082079D02*
X8748277Y-14063031D01*
X8748277Y-14063031D02*
X8757801Y-14053508D01*
X8757801Y-14053508D02*
X8776848Y-14043984D01*
X9033991Y-14243984D02*
X8919706Y-14243984D01*
X8976848Y-14243984D02*
X8976848Y-14043984D01*
X8976848Y-14043984D02*
X8957801Y-14072555D01*
X8957801Y-14072555D02*
X8938753Y-14091603D01*
X8938753Y-14091603D02*
X8919706Y-14101127D01*
X9224468Y-14243984D02*
X9110182Y-14243984D01*
X9167325Y-14243984D02*
X9167325Y-14043984D01*
X9167325Y-14043984D02*
X9148277Y-14072555D01*
X9148277Y-14072555D02*
X9129229Y-14091603D01*
X9129229Y-14091603D02*
X9110182Y-14101127D01*
X9338753Y-14129698D02*
X9319706Y-14120174D01*
X9319706Y-14120174D02*
X9310182Y-14110650D01*
X9310182Y-14110650D02*
X9300658Y-14091603D01*
X9300658Y-14091603D02*
X9300658Y-14082079D01*
X9300658Y-14082079D02*
X9310182Y-14063031D01*
X9310182Y-14063031D02*
X9319706Y-14053508D01*
X9319706Y-14053508D02*
X9338753Y-14043984D01*
X9338753Y-14043984D02*
X9376849Y-14043984D01*
X9376849Y-14043984D02*
X9395896Y-14053508D01*
X9395896Y-14053508D02*
X9405420Y-14063031D01*
X9405420Y-14063031D02*
X9414944Y-14082079D01*
X9414944Y-14082079D02*
X9414944Y-14091603D01*
X9414944Y-14091603D02*
X9405420Y-14110650D01*
X9405420Y-14110650D02*
X9395896Y-14120174D01*
X9395896Y-14120174D02*
X9376849Y-14129698D01*
X9376849Y-14129698D02*
X9338753Y-14129698D01*
X9338753Y-14129698D02*
X9319706Y-14139222D01*
X9319706Y-14139222D02*
X9310182Y-14148746D01*
X9310182Y-14148746D02*
X9300658Y-14167793D01*
X9300658Y-14167793D02*
X9300658Y-14205888D01*
X9300658Y-14205888D02*
X9310182Y-14224936D01*
X9310182Y-14224936D02*
X9319706Y-14234460D01*
X9319706Y-14234460D02*
X9338753Y-14243984D01*
X9338753Y-14243984D02*
X9376849Y-14243984D01*
X9376849Y-14243984D02*
X9395896Y-14234460D01*
X9395896Y-14234460D02*
X9405420Y-14224936D01*
X9405420Y-14224936D02*
X9414944Y-14205888D01*
X9414944Y-14205888D02*
X9414944Y-14167793D01*
X9414944Y-14167793D02*
X9405420Y-14148746D01*
X9405420Y-14148746D02*
X9395896Y-14139222D01*
X9395896Y-14139222D02*
X9376849Y-14129698D01*
X9491134Y-14043984D02*
X9491134Y-14082079D01*
X9567325Y-14043984D02*
X9567325Y-14082079D01*
X9862563Y-14320174D02*
X9853039Y-14310650D01*
X9853039Y-14310650D02*
X9833991Y-14282079D01*
X9833991Y-14282079D02*
X9824468Y-14263031D01*
X9824468Y-14263031D02*
X9814944Y-14234460D01*
X9814944Y-14234460D02*
X9805420Y-14186841D01*
X9805420Y-14186841D02*
X9805420Y-14148746D01*
X9805420Y-14148746D02*
X9814944Y-14101127D01*
X9814944Y-14101127D02*
X9824468Y-14072555D01*
X9824468Y-14072555D02*
X9833991Y-14053508D01*
X9833991Y-14053508D02*
X9853039Y-14024936D01*
X9853039Y-14024936D02*
X9862563Y-14015412D01*
X10043515Y-14243984D02*
X9929230Y-14243984D01*
X9986372Y-14243984D02*
X9986372Y-14043984D01*
X9986372Y-14043984D02*
X9967325Y-14072555D01*
X9967325Y-14072555D02*
X9948277Y-14091603D01*
X9948277Y-14091603D02*
X9929230Y-14101127D01*
X10110182Y-14043984D02*
X10233991Y-14043984D01*
X10233991Y-14043984D02*
X10167325Y-14120174D01*
X10167325Y-14120174D02*
X10195896Y-14120174D01*
X10195896Y-14120174D02*
X10214944Y-14129698D01*
X10214944Y-14129698D02*
X10224468Y-14139222D01*
X10224468Y-14139222D02*
X10233991Y-14158269D01*
X10233991Y-14158269D02*
X10233991Y-14205888D01*
X10233991Y-14205888D02*
X10224468Y-14224936D01*
X10224468Y-14224936D02*
X10214944Y-14234460D01*
X10214944Y-14234460D02*
X10195896Y-14243984D01*
X10195896Y-14243984D02*
X10138753Y-14243984D01*
X10138753Y-14243984D02*
X10119706Y-14234460D01*
X10119706Y-14234460D02*
X10110182Y-14224936D01*
X10300658Y-14043984D02*
X10424468Y-14043984D01*
X10424468Y-14043984D02*
X10357801Y-14120174D01*
X10357801Y-14120174D02*
X10386372Y-14120174D01*
X10386372Y-14120174D02*
X10405420Y-14129698D01*
X10405420Y-14129698D02*
X10414944Y-14139222D01*
X10414944Y-14139222D02*
X10424468Y-14158269D01*
X10424468Y-14158269D02*
X10424468Y-14205888D01*
X10424468Y-14205888D02*
X10414944Y-14224936D01*
X10414944Y-14224936D02*
X10405420Y-14234460D01*
X10405420Y-14234460D02*
X10386372Y-14243984D01*
X10386372Y-14243984D02*
X10329230Y-14243984D01*
X10329230Y-14243984D02*
X10310182Y-14234460D01*
X10310182Y-14234460D02*
X10300658Y-14224936D01*
X10662563Y-14243984D02*
X10662563Y-14043984D01*
X10748277Y-14243984D02*
X10748277Y-14139222D01*
X10748277Y-14139222D02*
X10738753Y-14120174D01*
X10738753Y-14120174D02*
X10719706Y-14110650D01*
X10719706Y-14110650D02*
X10691134Y-14110650D01*
X10691134Y-14110650D02*
X10672087Y-14120174D01*
X10672087Y-14120174D02*
X10662563Y-14129698D01*
X10872087Y-14243984D02*
X10853039Y-14234460D01*
X10853039Y-14234460D02*
X10843515Y-14224936D01*
X10843515Y-14224936D02*
X10833992Y-14205888D01*
X10833992Y-14205888D02*
X10833992Y-14148746D01*
X10833992Y-14148746D02*
X10843515Y-14129698D01*
X10843515Y-14129698D02*
X10853039Y-14120174D01*
X10853039Y-14120174D02*
X10872087Y-14110650D01*
X10872087Y-14110650D02*
X10900658Y-14110650D01*
X10900658Y-14110650D02*
X10919706Y-14120174D01*
X10919706Y-14120174D02*
X10929230Y-14129698D01*
X10929230Y-14129698D02*
X10938753Y-14148746D01*
X10938753Y-14148746D02*
X10938753Y-14205888D01*
X10938753Y-14205888D02*
X10929230Y-14224936D01*
X10929230Y-14224936D02*
X10919706Y-14234460D01*
X10919706Y-14234460D02*
X10900658Y-14243984D01*
X10900658Y-14243984D02*
X10872087Y-14243984D01*
X11053039Y-14243984D02*
X11033992Y-14234460D01*
X11033992Y-14234460D02*
X11024468Y-14215412D01*
X11024468Y-14215412D02*
X11024468Y-14043984D01*
X11205420Y-14234460D02*
X11186372Y-14243984D01*
X11186372Y-14243984D02*
X11148277Y-14243984D01*
X11148277Y-14243984D02*
X11129230Y-14234460D01*
X11129230Y-14234460D02*
X11119706Y-14215412D01*
X11119706Y-14215412D02*
X11119706Y-14139222D01*
X11119706Y-14139222D02*
X11129230Y-14120174D01*
X11129230Y-14120174D02*
X11148277Y-14110650D01*
X11148277Y-14110650D02*
X11186372Y-14110650D01*
X11186372Y-14110650D02*
X11205420Y-14120174D01*
X11205420Y-14120174D02*
X11214944Y-14139222D01*
X11214944Y-14139222D02*
X11214944Y-14158269D01*
X11214944Y-14158269D02*
X11119706Y-14177317D01*
X11291134Y-14234460D02*
X11310182Y-14243984D01*
X11310182Y-14243984D02*
X11348277Y-14243984D01*
X11348277Y-14243984D02*
X11367325Y-14234460D01*
X11367325Y-14234460D02*
X11376849Y-14215412D01*
X11376849Y-14215412D02*
X11376849Y-14205888D01*
X11376849Y-14205888D02*
X11367325Y-14186841D01*
X11367325Y-14186841D02*
X11348277Y-14177317D01*
X11348277Y-14177317D02*
X11319706Y-14177317D01*
X11319706Y-14177317D02*
X11300658Y-14167793D01*
X11300658Y-14167793D02*
X11291134Y-14148746D01*
X11291134Y-14148746D02*
X11291134Y-14139222D01*
X11291134Y-14139222D02*
X11300658Y-14120174D01*
X11300658Y-14120174D02*
X11319706Y-14110650D01*
X11319706Y-14110650D02*
X11348277Y-14110650D01*
X11348277Y-14110650D02*
X11367325Y-14120174D01*
X11443515Y-14320174D02*
X11453039Y-14310650D01*
X11453039Y-14310650D02*
X11472087Y-14282079D01*
X11472087Y-14282079D02*
X11481611Y-14263031D01*
X11481611Y-14263031D02*
X11491134Y-14234460D01*
X11491134Y-14234460D02*
X11500658Y-14186841D01*
X11500658Y-14186841D02*
X11500658Y-14148746D01*
X11500658Y-14148746D02*
X11491134Y-14101127D01*
X11491134Y-14101127D02*
X11481611Y-14072555D01*
X11481611Y-14072555D02*
X11472087Y-14053508D01*
X11472087Y-14053508D02*
X11453039Y-14024936D01*
X11453039Y-14024936D02*
X11443515Y-14015412D01*
D12*
X6287500Y-14416500D02*
G75*
G02*
X6227500Y-14416500I-30000J0D01*
G01*
X6227500Y-14416500D02*
G75*
G02*
X6287500Y-14416500I30000J0D01*
G01*
D11*
X6586372Y-14307984D02*
X6605420Y-14307984D01*
X6605420Y-14307984D02*
X6624467Y-14317508D01*
X6624467Y-14317508D02*
X6633991Y-14327031D01*
X6633991Y-14327031D02*
X6643515Y-14346079D01*
X6643515Y-14346079D02*
X6653039Y-14384174D01*
X6653039Y-14384174D02*
X6653039Y-14431793D01*
X6653039Y-14431793D02*
X6643515Y-14469888D01*
X6643515Y-14469888D02*
X6633991Y-14488936D01*
X6633991Y-14488936D02*
X6624467Y-14498460D01*
X6624467Y-14498460D02*
X6605420Y-14507984D01*
X6605420Y-14507984D02*
X6586372Y-14507984D01*
X6586372Y-14507984D02*
X6567324Y-14498460D01*
X6567324Y-14498460D02*
X6557801Y-14488936D01*
X6557801Y-14488936D02*
X6548277Y-14469888D01*
X6548277Y-14469888D02*
X6538753Y-14431793D01*
X6538753Y-14431793D02*
X6538753Y-14384174D01*
X6538753Y-14384174D02*
X6548277Y-14346079D01*
X6548277Y-14346079D02*
X6557801Y-14327031D01*
X6557801Y-14327031D02*
X6567324Y-14317508D01*
X6567324Y-14317508D02*
X6586372Y-14307984D01*
X6738753Y-14488936D02*
X6748277Y-14498460D01*
X6748277Y-14498460D02*
X6738753Y-14507984D01*
X6738753Y-14507984D02*
X6729229Y-14498460D01*
X6729229Y-14498460D02*
X6738753Y-14488936D01*
X6738753Y-14488936D02*
X6738753Y-14507984D01*
X6919705Y-14307984D02*
X6881610Y-14307984D01*
X6881610Y-14307984D02*
X6862562Y-14317508D01*
X6862562Y-14317508D02*
X6853039Y-14327031D01*
X6853039Y-14327031D02*
X6833991Y-14355603D01*
X6833991Y-14355603D02*
X6824467Y-14393698D01*
X6824467Y-14393698D02*
X6824467Y-14469888D01*
X6824467Y-14469888D02*
X6833991Y-14488936D01*
X6833991Y-14488936D02*
X6843515Y-14498460D01*
X6843515Y-14498460D02*
X6862562Y-14507984D01*
X6862562Y-14507984D02*
X6900658Y-14507984D01*
X6900658Y-14507984D02*
X6919705Y-14498460D01*
X6919705Y-14498460D02*
X6929229Y-14488936D01*
X6929229Y-14488936D02*
X6938753Y-14469888D01*
X6938753Y-14469888D02*
X6938753Y-14422269D01*
X6938753Y-14422269D02*
X6929229Y-14403222D01*
X6929229Y-14403222D02*
X6919705Y-14393698D01*
X6919705Y-14393698D02*
X6900658Y-14384174D01*
X6900658Y-14384174D02*
X6862562Y-14384174D01*
X6862562Y-14384174D02*
X6843515Y-14393698D01*
X6843515Y-14393698D02*
X6833991Y-14403222D01*
X6833991Y-14403222D02*
X6824467Y-14422269D01*
X7062562Y-14307984D02*
X7081610Y-14307984D01*
X7081610Y-14307984D02*
X7100658Y-14317508D01*
X7100658Y-14317508D02*
X7110182Y-14327031D01*
X7110182Y-14327031D02*
X7119705Y-14346079D01*
X7119705Y-14346079D02*
X7129229Y-14384174D01*
X7129229Y-14384174D02*
X7129229Y-14431793D01*
X7129229Y-14431793D02*
X7119705Y-14469888D01*
X7119705Y-14469888D02*
X7110182Y-14488936D01*
X7110182Y-14488936D02*
X7100658Y-14498460D01*
X7100658Y-14498460D02*
X7081610Y-14507984D01*
X7081610Y-14507984D02*
X7062562Y-14507984D01*
X7062562Y-14507984D02*
X7043515Y-14498460D01*
X7043515Y-14498460D02*
X7033991Y-14488936D01*
X7033991Y-14488936D02*
X7024467Y-14469888D01*
X7024467Y-14469888D02*
X7014943Y-14431793D01*
X7014943Y-14431793D02*
X7014943Y-14384174D01*
X7014943Y-14384174D02*
X7024467Y-14346079D01*
X7024467Y-14346079D02*
X7033991Y-14327031D01*
X7033991Y-14327031D02*
X7043515Y-14317508D01*
X7043515Y-14317508D02*
X7062562Y-14307984D01*
X7253039Y-14307984D02*
X7272086Y-14307984D01*
X7272086Y-14307984D02*
X7291134Y-14317508D01*
X7291134Y-14317508D02*
X7300658Y-14327031D01*
X7300658Y-14327031D02*
X7310182Y-14346079D01*
X7310182Y-14346079D02*
X7319705Y-14384174D01*
X7319705Y-14384174D02*
X7319705Y-14431793D01*
X7319705Y-14431793D02*
X7310182Y-14469888D01*
X7310182Y-14469888D02*
X7300658Y-14488936D01*
X7300658Y-14488936D02*
X7291134Y-14498460D01*
X7291134Y-14498460D02*
X7272086Y-14507984D01*
X7272086Y-14507984D02*
X7253039Y-14507984D01*
X7253039Y-14507984D02*
X7233991Y-14498460D01*
X7233991Y-14498460D02*
X7224467Y-14488936D01*
X7224467Y-14488936D02*
X7214943Y-14469888D01*
X7214943Y-14469888D02*
X7205420Y-14431793D01*
X7205420Y-14431793D02*
X7205420Y-14384174D01*
X7205420Y-14384174D02*
X7214943Y-14346079D01*
X7214943Y-14346079D02*
X7224467Y-14327031D01*
X7224467Y-14327031D02*
X7233991Y-14317508D01*
X7233991Y-14317508D02*
X7253039Y-14307984D01*
X7405420Y-14507984D02*
X7405420Y-14374650D01*
X7405420Y-14393698D02*
X7414943Y-14384174D01*
X7414943Y-14384174D02*
X7433991Y-14374650D01*
X7433991Y-14374650D02*
X7462563Y-14374650D01*
X7462563Y-14374650D02*
X7481610Y-14384174D01*
X7481610Y-14384174D02*
X7491134Y-14403222D01*
X7491134Y-14403222D02*
X7491134Y-14507984D01*
X7491134Y-14403222D02*
X7500658Y-14384174D01*
X7500658Y-14384174D02*
X7519705Y-14374650D01*
X7519705Y-14374650D02*
X7548277Y-14374650D01*
X7548277Y-14374650D02*
X7567324Y-14384174D01*
X7567324Y-14384174D02*
X7576848Y-14403222D01*
X7576848Y-14403222D02*
X7576848Y-14507984D01*
X7672086Y-14507984D02*
X7672086Y-14374650D01*
X7672086Y-14393698D02*
X7681610Y-14384174D01*
X7681610Y-14384174D02*
X7700658Y-14374650D01*
X7700658Y-14374650D02*
X7729229Y-14374650D01*
X7729229Y-14374650D02*
X7748277Y-14384174D01*
X7748277Y-14384174D02*
X7757801Y-14403222D01*
X7757801Y-14403222D02*
X7757801Y-14507984D01*
X7757801Y-14403222D02*
X7767324Y-14384174D01*
X7767324Y-14384174D02*
X7786372Y-14374650D01*
X7786372Y-14374650D02*
X7814943Y-14374650D01*
X7814943Y-14374650D02*
X7833991Y-14384174D01*
X7833991Y-14384174D02*
X7843515Y-14403222D01*
X7843515Y-14403222D02*
X7843515Y-14507984D01*
X8233991Y-14298460D02*
X8062563Y-14555603D01*
X8491134Y-14307984D02*
X8510182Y-14307984D01*
X8510182Y-14307984D02*
X8529229Y-14317508D01*
X8529229Y-14317508D02*
X8538753Y-14327031D01*
X8538753Y-14327031D02*
X8548277Y-14346079D01*
X8548277Y-14346079D02*
X8557801Y-14384174D01*
X8557801Y-14384174D02*
X8557801Y-14431793D01*
X8557801Y-14431793D02*
X8548277Y-14469888D01*
X8548277Y-14469888D02*
X8538753Y-14488936D01*
X8538753Y-14488936D02*
X8529229Y-14498460D01*
X8529229Y-14498460D02*
X8510182Y-14507984D01*
X8510182Y-14507984D02*
X8491134Y-14507984D01*
X8491134Y-14507984D02*
X8472087Y-14498460D01*
X8472087Y-14498460D02*
X8462563Y-14488936D01*
X8462563Y-14488936D02*
X8453039Y-14469888D01*
X8453039Y-14469888D02*
X8443515Y-14431793D01*
X8443515Y-14431793D02*
X8443515Y-14384174D01*
X8443515Y-14384174D02*
X8453039Y-14346079D01*
X8453039Y-14346079D02*
X8462563Y-14327031D01*
X8462563Y-14327031D02*
X8472087Y-14317508D01*
X8472087Y-14317508D02*
X8491134Y-14307984D01*
X8643515Y-14488936D02*
X8653039Y-14498460D01*
X8653039Y-14498460D02*
X8643515Y-14507984D01*
X8643515Y-14507984D02*
X8633991Y-14498460D01*
X8633991Y-14498460D02*
X8643515Y-14488936D01*
X8643515Y-14488936D02*
X8643515Y-14507984D01*
X8776848Y-14307984D02*
X8795896Y-14307984D01*
X8795896Y-14307984D02*
X8814944Y-14317508D01*
X8814944Y-14317508D02*
X8824468Y-14327031D01*
X8824468Y-14327031D02*
X8833991Y-14346079D01*
X8833991Y-14346079D02*
X8843515Y-14384174D01*
X8843515Y-14384174D02*
X8843515Y-14431793D01*
X8843515Y-14431793D02*
X8833991Y-14469888D01*
X8833991Y-14469888D02*
X8824468Y-14488936D01*
X8824468Y-14488936D02*
X8814944Y-14498460D01*
X8814944Y-14498460D02*
X8795896Y-14507984D01*
X8795896Y-14507984D02*
X8776848Y-14507984D01*
X8776848Y-14507984D02*
X8757801Y-14498460D01*
X8757801Y-14498460D02*
X8748277Y-14488936D01*
X8748277Y-14488936D02*
X8738753Y-14469888D01*
X8738753Y-14469888D02*
X8729229Y-14431793D01*
X8729229Y-14431793D02*
X8729229Y-14384174D01*
X8729229Y-14384174D02*
X8738753Y-14346079D01*
X8738753Y-14346079D02*
X8748277Y-14327031D01*
X8748277Y-14327031D02*
X8757801Y-14317508D01*
X8757801Y-14317508D02*
X8776848Y-14307984D01*
X8919706Y-14327031D02*
X8929229Y-14317508D01*
X8929229Y-14317508D02*
X8948277Y-14307984D01*
X8948277Y-14307984D02*
X8995896Y-14307984D01*
X8995896Y-14307984D02*
X9014944Y-14317508D01*
X9014944Y-14317508D02*
X9024468Y-14327031D01*
X9024468Y-14327031D02*
X9033991Y-14346079D01*
X9033991Y-14346079D02*
X9033991Y-14365127D01*
X9033991Y-14365127D02*
X9024468Y-14393698D01*
X9024468Y-14393698D02*
X8910182Y-14507984D01*
X8910182Y-14507984D02*
X9033991Y-14507984D01*
X9100658Y-14307984D02*
X9224468Y-14307984D01*
X9224468Y-14307984D02*
X9157801Y-14384174D01*
X9157801Y-14384174D02*
X9186372Y-14384174D01*
X9186372Y-14384174D02*
X9205420Y-14393698D01*
X9205420Y-14393698D02*
X9214944Y-14403222D01*
X9214944Y-14403222D02*
X9224468Y-14422269D01*
X9224468Y-14422269D02*
X9224468Y-14469888D01*
X9224468Y-14469888D02*
X9214944Y-14488936D01*
X9214944Y-14488936D02*
X9205420Y-14498460D01*
X9205420Y-14498460D02*
X9186372Y-14507984D01*
X9186372Y-14507984D02*
X9129229Y-14507984D01*
X9129229Y-14507984D02*
X9110182Y-14498460D01*
X9110182Y-14498460D02*
X9100658Y-14488936D01*
X9395896Y-14307984D02*
X9357801Y-14307984D01*
X9357801Y-14307984D02*
X9338753Y-14317508D01*
X9338753Y-14317508D02*
X9329229Y-14327031D01*
X9329229Y-14327031D02*
X9310182Y-14355603D01*
X9310182Y-14355603D02*
X9300658Y-14393698D01*
X9300658Y-14393698D02*
X9300658Y-14469888D01*
X9300658Y-14469888D02*
X9310182Y-14488936D01*
X9310182Y-14488936D02*
X9319706Y-14498460D01*
X9319706Y-14498460D02*
X9338753Y-14507984D01*
X9338753Y-14507984D02*
X9376849Y-14507984D01*
X9376849Y-14507984D02*
X9395896Y-14498460D01*
X9395896Y-14498460D02*
X9405420Y-14488936D01*
X9405420Y-14488936D02*
X9414944Y-14469888D01*
X9414944Y-14469888D02*
X9414944Y-14422269D01*
X9414944Y-14422269D02*
X9405420Y-14403222D01*
X9405420Y-14403222D02*
X9395896Y-14393698D01*
X9395896Y-14393698D02*
X9376849Y-14384174D01*
X9376849Y-14384174D02*
X9338753Y-14384174D01*
X9338753Y-14384174D02*
X9319706Y-14393698D01*
X9319706Y-14393698D02*
X9310182Y-14403222D01*
X9310182Y-14403222D02*
X9300658Y-14422269D01*
X9491134Y-14307984D02*
X9491134Y-14346079D01*
X9567325Y-14307984D02*
X9567325Y-14346079D01*
X9862563Y-14584174D02*
X9853039Y-14574650D01*
X9853039Y-14574650D02*
X9833991Y-14546079D01*
X9833991Y-14546079D02*
X9824468Y-14527031D01*
X9824468Y-14527031D02*
X9814944Y-14498460D01*
X9814944Y-14498460D02*
X9805420Y-14450841D01*
X9805420Y-14450841D02*
X9805420Y-14412746D01*
X9805420Y-14412746D02*
X9814944Y-14365127D01*
X9814944Y-14365127D02*
X9824468Y-14336555D01*
X9824468Y-14336555D02*
X9833991Y-14317508D01*
X9833991Y-14317508D02*
X9853039Y-14288936D01*
X9853039Y-14288936D02*
X9862563Y-14279412D01*
X9976849Y-14307984D02*
X9995896Y-14307984D01*
X9995896Y-14307984D02*
X10014944Y-14317508D01*
X10014944Y-14317508D02*
X10024468Y-14327031D01*
X10024468Y-14327031D02*
X10033991Y-14346079D01*
X10033991Y-14346079D02*
X10043515Y-14384174D01*
X10043515Y-14384174D02*
X10043515Y-14431793D01*
X10043515Y-14431793D02*
X10033991Y-14469888D01*
X10033991Y-14469888D02*
X10024468Y-14488936D01*
X10024468Y-14488936D02*
X10014944Y-14498460D01*
X10014944Y-14498460D02*
X9995896Y-14507984D01*
X9995896Y-14507984D02*
X9976849Y-14507984D01*
X9976849Y-14507984D02*
X9957801Y-14498460D01*
X9957801Y-14498460D02*
X9948277Y-14488936D01*
X9948277Y-14488936D02*
X9938753Y-14469888D01*
X9938753Y-14469888D02*
X9929230Y-14431793D01*
X9929230Y-14431793D02*
X9929230Y-14384174D01*
X9929230Y-14384174D02*
X9938753Y-14346079D01*
X9938753Y-14346079D02*
X9948277Y-14327031D01*
X9948277Y-14327031D02*
X9957801Y-14317508D01*
X9957801Y-14317508D02*
X9976849Y-14307984D01*
X10281611Y-14507984D02*
X10281611Y-14307984D01*
X10367325Y-14507984D02*
X10367325Y-14403222D01*
X10367325Y-14403222D02*
X10357801Y-14384174D01*
X10357801Y-14384174D02*
X10338753Y-14374650D01*
X10338753Y-14374650D02*
X10310182Y-14374650D01*
X10310182Y-14374650D02*
X10291134Y-14384174D01*
X10291134Y-14384174D02*
X10281611Y-14393698D01*
X10491134Y-14507984D02*
X10472087Y-14498460D01*
X10472087Y-14498460D02*
X10462563Y-14488936D01*
X10462563Y-14488936D02*
X10453039Y-14469888D01*
X10453039Y-14469888D02*
X10453039Y-14412746D01*
X10453039Y-14412746D02*
X10462563Y-14393698D01*
X10462563Y-14393698D02*
X10472087Y-14384174D01*
X10472087Y-14384174D02*
X10491134Y-14374650D01*
X10491134Y-14374650D02*
X10519706Y-14374650D01*
X10519706Y-14374650D02*
X10538753Y-14384174D01*
X10538753Y-14384174D02*
X10548277Y-14393698D01*
X10548277Y-14393698D02*
X10557801Y-14412746D01*
X10557801Y-14412746D02*
X10557801Y-14469888D01*
X10557801Y-14469888D02*
X10548277Y-14488936D01*
X10548277Y-14488936D02*
X10538753Y-14498460D01*
X10538753Y-14498460D02*
X10519706Y-14507984D01*
X10519706Y-14507984D02*
X10491134Y-14507984D01*
X10672087Y-14507984D02*
X10653039Y-14498460D01*
X10653039Y-14498460D02*
X10643515Y-14479412D01*
X10643515Y-14479412D02*
X10643515Y-14307984D01*
X10824468Y-14498460D02*
X10805420Y-14507984D01*
X10805420Y-14507984D02*
X10767325Y-14507984D01*
X10767325Y-14507984D02*
X10748277Y-14498460D01*
X10748277Y-14498460D02*
X10738753Y-14479412D01*
X10738753Y-14479412D02*
X10738753Y-14403222D01*
X10738753Y-14403222D02*
X10748277Y-14384174D01*
X10748277Y-14384174D02*
X10767325Y-14374650D01*
X10767325Y-14374650D02*
X10805420Y-14374650D01*
X10805420Y-14374650D02*
X10824468Y-14384174D01*
X10824468Y-14384174D02*
X10833992Y-14403222D01*
X10833992Y-14403222D02*
X10833992Y-14422269D01*
X10833992Y-14422269D02*
X10738753Y-14441317D01*
X10910182Y-14498460D02*
X10929230Y-14507984D01*
X10929230Y-14507984D02*
X10967325Y-14507984D01*
X10967325Y-14507984D02*
X10986373Y-14498460D01*
X10986373Y-14498460D02*
X10995896Y-14479412D01*
X10995896Y-14479412D02*
X10995896Y-14469888D01*
X10995896Y-14469888D02*
X10986373Y-14450841D01*
X10986373Y-14450841D02*
X10967325Y-14441317D01*
X10967325Y-14441317D02*
X10938753Y-14441317D01*
X10938753Y-14441317D02*
X10919706Y-14431793D01*
X10919706Y-14431793D02*
X10910182Y-14412746D01*
X10910182Y-14412746D02*
X10910182Y-14403222D01*
X10910182Y-14403222D02*
X10919706Y-14384174D01*
X10919706Y-14384174D02*
X10938753Y-14374650D01*
X10938753Y-14374650D02*
X10967325Y-14374650D01*
X10967325Y-14374650D02*
X10986373Y-14384174D01*
X11233992Y-14431793D02*
X11386373Y-14431793D01*
X11310182Y-14507984D02*
X11310182Y-14355603D01*
X11624468Y-14327031D02*
X11633992Y-14317508D01*
X11633992Y-14317508D02*
X11653039Y-14307984D01*
X11653039Y-14307984D02*
X11700658Y-14307984D01*
X11700658Y-14307984D02*
X11719706Y-14317508D01*
X11719706Y-14317508D02*
X11729230Y-14327031D01*
X11729230Y-14327031D02*
X11738753Y-14346079D01*
X11738753Y-14346079D02*
X11738753Y-14365127D01*
X11738753Y-14365127D02*
X11729230Y-14393698D01*
X11729230Y-14393698D02*
X11614944Y-14507984D01*
X11614944Y-14507984D02*
X11738753Y-14507984D01*
X11967325Y-14498460D02*
X11986373Y-14507984D01*
X11986373Y-14507984D02*
X12024468Y-14507984D01*
X12024468Y-14507984D02*
X12043515Y-14498460D01*
X12043515Y-14498460D02*
X12053039Y-14479412D01*
X12053039Y-14479412D02*
X12053039Y-14469888D01*
X12053039Y-14469888D02*
X12043515Y-14450841D01*
X12043515Y-14450841D02*
X12024468Y-14441317D01*
X12024468Y-14441317D02*
X11995896Y-14441317D01*
X11995896Y-14441317D02*
X11976849Y-14431793D01*
X11976849Y-14431793D02*
X11967325Y-14412746D01*
X11967325Y-14412746D02*
X11967325Y-14403222D01*
X11967325Y-14403222D02*
X11976849Y-14384174D01*
X11976849Y-14384174D02*
X11995896Y-14374650D01*
X11995896Y-14374650D02*
X12024468Y-14374650D01*
X12024468Y-14374650D02*
X12043515Y-14384174D01*
X12167325Y-14507984D02*
X12148277Y-14498460D01*
X12148277Y-14498460D02*
X12138754Y-14479412D01*
X12138754Y-14479412D02*
X12138754Y-14307984D01*
X12272087Y-14507984D02*
X12253039Y-14498460D01*
X12253039Y-14498460D02*
X12243515Y-14488936D01*
X12243515Y-14488936D02*
X12233992Y-14469888D01*
X12233992Y-14469888D02*
X12233992Y-14412746D01*
X12233992Y-14412746D02*
X12243515Y-14393698D01*
X12243515Y-14393698D02*
X12253039Y-14384174D01*
X12253039Y-14384174D02*
X12272087Y-14374650D01*
X12272087Y-14374650D02*
X12300658Y-14374650D01*
X12300658Y-14374650D02*
X12319706Y-14384174D01*
X12319706Y-14384174D02*
X12329230Y-14393698D01*
X12329230Y-14393698D02*
X12338754Y-14412746D01*
X12338754Y-14412746D02*
X12338754Y-14469888D01*
X12338754Y-14469888D02*
X12329230Y-14488936D01*
X12329230Y-14488936D02*
X12319706Y-14498460D01*
X12319706Y-14498460D02*
X12300658Y-14507984D01*
X12300658Y-14507984D02*
X12272087Y-14507984D01*
X12395896Y-14374650D02*
X12472087Y-14374650D01*
X12424468Y-14307984D02*
X12424468Y-14479412D01*
X12424468Y-14479412D02*
X12433992Y-14498460D01*
X12433992Y-14498460D02*
X12453039Y-14507984D01*
X12453039Y-14507984D02*
X12472087Y-14507984D01*
X12529230Y-14498460D02*
X12548277Y-14507984D01*
X12548277Y-14507984D02*
X12586373Y-14507984D01*
X12586373Y-14507984D02*
X12605420Y-14498460D01*
X12605420Y-14498460D02*
X12614944Y-14479412D01*
X12614944Y-14479412D02*
X12614944Y-14469888D01*
X12614944Y-14469888D02*
X12605420Y-14450841D01*
X12605420Y-14450841D02*
X12586373Y-14441317D01*
X12586373Y-14441317D02*
X12557801Y-14441317D01*
X12557801Y-14441317D02*
X12538754Y-14431793D01*
X12538754Y-14431793D02*
X12529230Y-14412746D01*
X12529230Y-14412746D02*
X12529230Y-14403222D01*
X12529230Y-14403222D02*
X12538754Y-14384174D01*
X12538754Y-14384174D02*
X12557801Y-14374650D01*
X12557801Y-14374650D02*
X12586373Y-14374650D01*
X12586373Y-14374650D02*
X12605420Y-14384174D01*
X12681611Y-14584174D02*
X12691135Y-14574650D01*
X12691135Y-14574650D02*
X12710182Y-14546079D01*
X12710182Y-14546079D02*
X12719706Y-14527031D01*
X12719706Y-14527031D02*
X12729230Y-14498460D01*
X12729230Y-14498460D02*
X12738754Y-14450841D01*
X12738754Y-14450841D02*
X12738754Y-14412746D01*
X12738754Y-14412746D02*
X12729230Y-14365127D01*
X12729230Y-14365127D02*
X12719706Y-14336555D01*
X12719706Y-14336555D02*
X12710182Y-14317508D01*
X12710182Y-14317508D02*
X12691135Y-14288936D01*
X12691135Y-14288936D02*
X12681611Y-14279412D01*
D12*
X6245000Y-14638000D02*
X6245000Y-14723000D01*
X6202500Y-14680500D02*
X6287500Y-14680500D01*
D11*
X6586372Y-14571984D02*
X6605420Y-14571984D01*
X6605420Y-14571984D02*
X6624467Y-14581508D01*
X6624467Y-14581508D02*
X6633991Y-14591031D01*
X6633991Y-14591031D02*
X6643515Y-14610079D01*
X6643515Y-14610079D02*
X6653039Y-14648174D01*
X6653039Y-14648174D02*
X6653039Y-14695793D01*
X6653039Y-14695793D02*
X6643515Y-14733888D01*
X6643515Y-14733888D02*
X6633991Y-14752936D01*
X6633991Y-14752936D02*
X6624467Y-14762460D01*
X6624467Y-14762460D02*
X6605420Y-14771984D01*
X6605420Y-14771984D02*
X6586372Y-14771984D01*
X6586372Y-14771984D02*
X6567324Y-14762460D01*
X6567324Y-14762460D02*
X6557801Y-14752936D01*
X6557801Y-14752936D02*
X6548277Y-14733888D01*
X6548277Y-14733888D02*
X6538753Y-14695793D01*
X6538753Y-14695793D02*
X6538753Y-14648174D01*
X6538753Y-14648174D02*
X6548277Y-14610079D01*
X6548277Y-14610079D02*
X6557801Y-14591031D01*
X6557801Y-14591031D02*
X6567324Y-14581508D01*
X6567324Y-14581508D02*
X6586372Y-14571984D01*
X6738753Y-14752936D02*
X6748277Y-14762460D01*
X6748277Y-14762460D02*
X6738753Y-14771984D01*
X6738753Y-14771984D02*
X6729229Y-14762460D01*
X6729229Y-14762460D02*
X6738753Y-14752936D01*
X6738753Y-14752936D02*
X6738753Y-14771984D01*
X6862562Y-14657698D02*
X6843515Y-14648174D01*
X6843515Y-14648174D02*
X6833991Y-14638650D01*
X6833991Y-14638650D02*
X6824467Y-14619603D01*
X6824467Y-14619603D02*
X6824467Y-14610079D01*
X6824467Y-14610079D02*
X6833991Y-14591031D01*
X6833991Y-14591031D02*
X6843515Y-14581508D01*
X6843515Y-14581508D02*
X6862562Y-14571984D01*
X6862562Y-14571984D02*
X6900658Y-14571984D01*
X6900658Y-14571984D02*
X6919705Y-14581508D01*
X6919705Y-14581508D02*
X6929229Y-14591031D01*
X6929229Y-14591031D02*
X6938753Y-14610079D01*
X6938753Y-14610079D02*
X6938753Y-14619603D01*
X6938753Y-14619603D02*
X6929229Y-14638650D01*
X6929229Y-14638650D02*
X6919705Y-14648174D01*
X6919705Y-14648174D02*
X6900658Y-14657698D01*
X6900658Y-14657698D02*
X6862562Y-14657698D01*
X6862562Y-14657698D02*
X6843515Y-14667222D01*
X6843515Y-14667222D02*
X6833991Y-14676746D01*
X6833991Y-14676746D02*
X6824467Y-14695793D01*
X6824467Y-14695793D02*
X6824467Y-14733888D01*
X6824467Y-14733888D02*
X6833991Y-14752936D01*
X6833991Y-14752936D02*
X6843515Y-14762460D01*
X6843515Y-14762460D02*
X6862562Y-14771984D01*
X6862562Y-14771984D02*
X6900658Y-14771984D01*
X6900658Y-14771984D02*
X6919705Y-14762460D01*
X6919705Y-14762460D02*
X6929229Y-14752936D01*
X6929229Y-14752936D02*
X6938753Y-14733888D01*
X6938753Y-14733888D02*
X6938753Y-14695793D01*
X6938753Y-14695793D02*
X6929229Y-14676746D01*
X6929229Y-14676746D02*
X6919705Y-14667222D01*
X6919705Y-14667222D02*
X6900658Y-14657698D01*
X7119705Y-14571984D02*
X7024467Y-14571984D01*
X7024467Y-14571984D02*
X7014943Y-14667222D01*
X7014943Y-14667222D02*
X7024467Y-14657698D01*
X7024467Y-14657698D02*
X7043515Y-14648174D01*
X7043515Y-14648174D02*
X7091134Y-14648174D01*
X7091134Y-14648174D02*
X7110182Y-14657698D01*
X7110182Y-14657698D02*
X7119705Y-14667222D01*
X7119705Y-14667222D02*
X7129229Y-14686269D01*
X7129229Y-14686269D02*
X7129229Y-14733888D01*
X7129229Y-14733888D02*
X7119705Y-14752936D01*
X7119705Y-14752936D02*
X7110182Y-14762460D01*
X7110182Y-14762460D02*
X7091134Y-14771984D01*
X7091134Y-14771984D02*
X7043515Y-14771984D01*
X7043515Y-14771984D02*
X7024467Y-14762460D01*
X7024467Y-14762460D02*
X7014943Y-14752936D01*
X7253039Y-14571984D02*
X7272086Y-14571984D01*
X7272086Y-14571984D02*
X7291134Y-14581508D01*
X7291134Y-14581508D02*
X7300658Y-14591031D01*
X7300658Y-14591031D02*
X7310182Y-14610079D01*
X7310182Y-14610079D02*
X7319705Y-14648174D01*
X7319705Y-14648174D02*
X7319705Y-14695793D01*
X7319705Y-14695793D02*
X7310182Y-14733888D01*
X7310182Y-14733888D02*
X7300658Y-14752936D01*
X7300658Y-14752936D02*
X7291134Y-14762460D01*
X7291134Y-14762460D02*
X7272086Y-14771984D01*
X7272086Y-14771984D02*
X7253039Y-14771984D01*
X7253039Y-14771984D02*
X7233991Y-14762460D01*
X7233991Y-14762460D02*
X7224467Y-14752936D01*
X7224467Y-14752936D02*
X7214943Y-14733888D01*
X7214943Y-14733888D02*
X7205420Y-14695793D01*
X7205420Y-14695793D02*
X7205420Y-14648174D01*
X7205420Y-14648174D02*
X7214943Y-14610079D01*
X7214943Y-14610079D02*
X7224467Y-14591031D01*
X7224467Y-14591031D02*
X7233991Y-14581508D01*
X7233991Y-14581508D02*
X7253039Y-14571984D01*
X7405420Y-14771984D02*
X7405420Y-14638650D01*
X7405420Y-14657698D02*
X7414943Y-14648174D01*
X7414943Y-14648174D02*
X7433991Y-14638650D01*
X7433991Y-14638650D02*
X7462563Y-14638650D01*
X7462563Y-14638650D02*
X7481610Y-14648174D01*
X7481610Y-14648174D02*
X7491134Y-14667222D01*
X7491134Y-14667222D02*
X7491134Y-14771984D01*
X7491134Y-14667222D02*
X7500658Y-14648174D01*
X7500658Y-14648174D02*
X7519705Y-14638650D01*
X7519705Y-14638650D02*
X7548277Y-14638650D01*
X7548277Y-14638650D02*
X7567324Y-14648174D01*
X7567324Y-14648174D02*
X7576848Y-14667222D01*
X7576848Y-14667222D02*
X7576848Y-14771984D01*
X7672086Y-14771984D02*
X7672086Y-14638650D01*
X7672086Y-14657698D02*
X7681610Y-14648174D01*
X7681610Y-14648174D02*
X7700658Y-14638650D01*
X7700658Y-14638650D02*
X7729229Y-14638650D01*
X7729229Y-14638650D02*
X7748277Y-14648174D01*
X7748277Y-14648174D02*
X7757801Y-14667222D01*
X7757801Y-14667222D02*
X7757801Y-14771984D01*
X7757801Y-14667222D02*
X7767324Y-14648174D01*
X7767324Y-14648174D02*
X7786372Y-14638650D01*
X7786372Y-14638650D02*
X7814943Y-14638650D01*
X7814943Y-14638650D02*
X7833991Y-14648174D01*
X7833991Y-14648174D02*
X7843515Y-14667222D01*
X7843515Y-14667222D02*
X7843515Y-14771984D01*
X8233991Y-14562460D02*
X8062563Y-14819603D01*
X8491134Y-14571984D02*
X8510182Y-14571984D01*
X8510182Y-14571984D02*
X8529229Y-14581508D01*
X8529229Y-14581508D02*
X8538753Y-14591031D01*
X8538753Y-14591031D02*
X8548277Y-14610079D01*
X8548277Y-14610079D02*
X8557801Y-14648174D01*
X8557801Y-14648174D02*
X8557801Y-14695793D01*
X8557801Y-14695793D02*
X8548277Y-14733888D01*
X8548277Y-14733888D02*
X8538753Y-14752936D01*
X8538753Y-14752936D02*
X8529229Y-14762460D01*
X8529229Y-14762460D02*
X8510182Y-14771984D01*
X8510182Y-14771984D02*
X8491134Y-14771984D01*
X8491134Y-14771984D02*
X8472087Y-14762460D01*
X8472087Y-14762460D02*
X8462563Y-14752936D01*
X8462563Y-14752936D02*
X8453039Y-14733888D01*
X8453039Y-14733888D02*
X8443515Y-14695793D01*
X8443515Y-14695793D02*
X8443515Y-14648174D01*
X8443515Y-14648174D02*
X8453039Y-14610079D01*
X8453039Y-14610079D02*
X8462563Y-14591031D01*
X8462563Y-14591031D02*
X8472087Y-14581508D01*
X8472087Y-14581508D02*
X8491134Y-14571984D01*
X8643515Y-14752936D02*
X8653039Y-14762460D01*
X8653039Y-14762460D02*
X8643515Y-14771984D01*
X8643515Y-14771984D02*
X8633991Y-14762460D01*
X8633991Y-14762460D02*
X8643515Y-14752936D01*
X8643515Y-14752936D02*
X8643515Y-14771984D01*
X8776848Y-14571984D02*
X8795896Y-14571984D01*
X8795896Y-14571984D02*
X8814944Y-14581508D01*
X8814944Y-14581508D02*
X8824468Y-14591031D01*
X8824468Y-14591031D02*
X8833991Y-14610079D01*
X8833991Y-14610079D02*
X8843515Y-14648174D01*
X8843515Y-14648174D02*
X8843515Y-14695793D01*
X8843515Y-14695793D02*
X8833991Y-14733888D01*
X8833991Y-14733888D02*
X8824468Y-14752936D01*
X8824468Y-14752936D02*
X8814944Y-14762460D01*
X8814944Y-14762460D02*
X8795896Y-14771984D01*
X8795896Y-14771984D02*
X8776848Y-14771984D01*
X8776848Y-14771984D02*
X8757801Y-14762460D01*
X8757801Y-14762460D02*
X8748277Y-14752936D01*
X8748277Y-14752936D02*
X8738753Y-14733888D01*
X8738753Y-14733888D02*
X8729229Y-14695793D01*
X8729229Y-14695793D02*
X8729229Y-14648174D01*
X8729229Y-14648174D02*
X8738753Y-14610079D01*
X8738753Y-14610079D02*
X8748277Y-14591031D01*
X8748277Y-14591031D02*
X8757801Y-14581508D01*
X8757801Y-14581508D02*
X8776848Y-14571984D01*
X8910182Y-14571984D02*
X9033991Y-14571984D01*
X9033991Y-14571984D02*
X8967325Y-14648174D01*
X8967325Y-14648174D02*
X8995896Y-14648174D01*
X8995896Y-14648174D02*
X9014944Y-14657698D01*
X9014944Y-14657698D02*
X9024468Y-14667222D01*
X9024468Y-14667222D02*
X9033991Y-14686269D01*
X9033991Y-14686269D02*
X9033991Y-14733888D01*
X9033991Y-14733888D02*
X9024468Y-14752936D01*
X9024468Y-14752936D02*
X9014944Y-14762460D01*
X9014944Y-14762460D02*
X8995896Y-14771984D01*
X8995896Y-14771984D02*
X8938753Y-14771984D01*
X8938753Y-14771984D02*
X8919706Y-14762460D01*
X8919706Y-14762460D02*
X8910182Y-14752936D01*
X9100658Y-14571984D02*
X9224468Y-14571984D01*
X9224468Y-14571984D02*
X9157801Y-14648174D01*
X9157801Y-14648174D02*
X9186372Y-14648174D01*
X9186372Y-14648174D02*
X9205420Y-14657698D01*
X9205420Y-14657698D02*
X9214944Y-14667222D01*
X9214944Y-14667222D02*
X9224468Y-14686269D01*
X9224468Y-14686269D02*
X9224468Y-14733888D01*
X9224468Y-14733888D02*
X9214944Y-14752936D01*
X9214944Y-14752936D02*
X9205420Y-14762460D01*
X9205420Y-14762460D02*
X9186372Y-14771984D01*
X9186372Y-14771984D02*
X9129229Y-14771984D01*
X9129229Y-14771984D02*
X9110182Y-14762460D01*
X9110182Y-14762460D02*
X9100658Y-14752936D01*
X9405420Y-14571984D02*
X9310182Y-14571984D01*
X9310182Y-14571984D02*
X9300658Y-14667222D01*
X9300658Y-14667222D02*
X9310182Y-14657698D01*
X9310182Y-14657698D02*
X9329229Y-14648174D01*
X9329229Y-14648174D02*
X9376849Y-14648174D01*
X9376849Y-14648174D02*
X9395896Y-14657698D01*
X9395896Y-14657698D02*
X9405420Y-14667222D01*
X9405420Y-14667222D02*
X9414944Y-14686269D01*
X9414944Y-14686269D02*
X9414944Y-14733888D01*
X9414944Y-14733888D02*
X9405420Y-14752936D01*
X9405420Y-14752936D02*
X9395896Y-14762460D01*
X9395896Y-14762460D02*
X9376849Y-14771984D01*
X9376849Y-14771984D02*
X9329229Y-14771984D01*
X9329229Y-14771984D02*
X9310182Y-14762460D01*
X9310182Y-14762460D02*
X9300658Y-14752936D01*
X9491134Y-14571984D02*
X9491134Y-14610079D01*
X9567325Y-14571984D02*
X9567325Y-14610079D01*
X9862563Y-14848174D02*
X9853039Y-14838650D01*
X9853039Y-14838650D02*
X9833991Y-14810079D01*
X9833991Y-14810079D02*
X9824468Y-14791031D01*
X9824468Y-14791031D02*
X9814944Y-14762460D01*
X9814944Y-14762460D02*
X9805420Y-14714841D01*
X9805420Y-14714841D02*
X9805420Y-14676746D01*
X9805420Y-14676746D02*
X9814944Y-14629127D01*
X9814944Y-14629127D02*
X9824468Y-14600555D01*
X9824468Y-14600555D02*
X9833991Y-14581508D01*
X9833991Y-14581508D02*
X9853039Y-14552936D01*
X9853039Y-14552936D02*
X9862563Y-14543412D01*
X9929230Y-14591031D02*
X9938753Y-14581508D01*
X9938753Y-14581508D02*
X9957801Y-14571984D01*
X9957801Y-14571984D02*
X10005420Y-14571984D01*
X10005420Y-14571984D02*
X10024468Y-14581508D01*
X10024468Y-14581508D02*
X10033991Y-14591031D01*
X10033991Y-14591031D02*
X10043515Y-14610079D01*
X10043515Y-14610079D02*
X10043515Y-14629127D01*
X10043515Y-14629127D02*
X10033991Y-14657698D01*
X10033991Y-14657698D02*
X9919706Y-14771984D01*
X9919706Y-14771984D02*
X10043515Y-14771984D01*
X10281611Y-14771984D02*
X10281611Y-14571984D01*
X10367325Y-14771984D02*
X10367325Y-14667222D01*
X10367325Y-14667222D02*
X10357801Y-14648174D01*
X10357801Y-14648174D02*
X10338753Y-14638650D01*
X10338753Y-14638650D02*
X10310182Y-14638650D01*
X10310182Y-14638650D02*
X10291134Y-14648174D01*
X10291134Y-14648174D02*
X10281611Y-14657698D01*
X10491134Y-14771984D02*
X10472087Y-14762460D01*
X10472087Y-14762460D02*
X10462563Y-14752936D01*
X10462563Y-14752936D02*
X10453039Y-14733888D01*
X10453039Y-14733888D02*
X10453039Y-14676746D01*
X10453039Y-14676746D02*
X10462563Y-14657698D01*
X10462563Y-14657698D02*
X10472087Y-14648174D01*
X10472087Y-14648174D02*
X10491134Y-14638650D01*
X10491134Y-14638650D02*
X10519706Y-14638650D01*
X10519706Y-14638650D02*
X10538753Y-14648174D01*
X10538753Y-14648174D02*
X10548277Y-14657698D01*
X10548277Y-14657698D02*
X10557801Y-14676746D01*
X10557801Y-14676746D02*
X10557801Y-14733888D01*
X10557801Y-14733888D02*
X10548277Y-14752936D01*
X10548277Y-14752936D02*
X10538753Y-14762460D01*
X10538753Y-14762460D02*
X10519706Y-14771984D01*
X10519706Y-14771984D02*
X10491134Y-14771984D01*
X10672087Y-14771984D02*
X10653039Y-14762460D01*
X10653039Y-14762460D02*
X10643515Y-14743412D01*
X10643515Y-14743412D02*
X10643515Y-14571984D01*
X10824468Y-14762460D02*
X10805420Y-14771984D01*
X10805420Y-14771984D02*
X10767325Y-14771984D01*
X10767325Y-14771984D02*
X10748277Y-14762460D01*
X10748277Y-14762460D02*
X10738753Y-14743412D01*
X10738753Y-14743412D02*
X10738753Y-14667222D01*
X10738753Y-14667222D02*
X10748277Y-14648174D01*
X10748277Y-14648174D02*
X10767325Y-14638650D01*
X10767325Y-14638650D02*
X10805420Y-14638650D01*
X10805420Y-14638650D02*
X10824468Y-14648174D01*
X10824468Y-14648174D02*
X10833992Y-14667222D01*
X10833992Y-14667222D02*
X10833992Y-14686269D01*
X10833992Y-14686269D02*
X10738753Y-14705317D01*
X10910182Y-14762460D02*
X10929230Y-14771984D01*
X10929230Y-14771984D02*
X10967325Y-14771984D01*
X10967325Y-14771984D02*
X10986373Y-14762460D01*
X10986373Y-14762460D02*
X10995896Y-14743412D01*
X10995896Y-14743412D02*
X10995896Y-14733888D01*
X10995896Y-14733888D02*
X10986373Y-14714841D01*
X10986373Y-14714841D02*
X10967325Y-14705317D01*
X10967325Y-14705317D02*
X10938753Y-14705317D01*
X10938753Y-14705317D02*
X10919706Y-14695793D01*
X10919706Y-14695793D02*
X10910182Y-14676746D01*
X10910182Y-14676746D02*
X10910182Y-14667222D01*
X10910182Y-14667222D02*
X10919706Y-14648174D01*
X10919706Y-14648174D02*
X10938753Y-14638650D01*
X10938753Y-14638650D02*
X10967325Y-14638650D01*
X10967325Y-14638650D02*
X10986373Y-14648174D01*
X11062563Y-14848174D02*
X11072087Y-14838650D01*
X11072087Y-14838650D02*
X11091134Y-14810079D01*
X11091134Y-14810079D02*
X11100658Y-14791031D01*
X11100658Y-14791031D02*
X11110182Y-14762460D01*
X11110182Y-14762460D02*
X11119706Y-14714841D01*
X11119706Y-14714841D02*
X11119706Y-14676746D01*
X11119706Y-14676746D02*
X11110182Y-14629127D01*
X11110182Y-14629127D02*
X11100658Y-14600555D01*
X11100658Y-14600555D02*
X11091134Y-14581508D01*
X11091134Y-14581508D02*
X11072087Y-14552936D01*
X11072087Y-14552936D02*
X11062563Y-14543412D01*
D12*
X6272856Y-14979856D02*
X6272856Y-14909144D01*
X6202144Y-14909144D01*
X6202144Y-14979856D01*
X6272856Y-14979856D01*
D11*
X6653039Y-15035984D02*
X6538753Y-15035984D01*
X6595896Y-15035984D02*
X6595896Y-14835984D01*
X6595896Y-14835984D02*
X6576848Y-14864555D01*
X6576848Y-14864555D02*
X6557801Y-14883603D01*
X6557801Y-14883603D02*
X6538753Y-14893127D01*
X6738753Y-15016936D02*
X6748277Y-15026460D01*
X6748277Y-15026460D02*
X6738753Y-15035984D01*
X6738753Y-15035984D02*
X6729229Y-15026460D01*
X6729229Y-15026460D02*
X6738753Y-15016936D01*
X6738753Y-15016936D02*
X6738753Y-15035984D01*
X6872086Y-14835984D02*
X6891134Y-14835984D01*
X6891134Y-14835984D02*
X6910182Y-14845508D01*
X6910182Y-14845508D02*
X6919705Y-14855031D01*
X6919705Y-14855031D02*
X6929229Y-14874079D01*
X6929229Y-14874079D02*
X6938753Y-14912174D01*
X6938753Y-14912174D02*
X6938753Y-14959793D01*
X6938753Y-14959793D02*
X6929229Y-14997888D01*
X6929229Y-14997888D02*
X6919705Y-15016936D01*
X6919705Y-15016936D02*
X6910182Y-15026460D01*
X6910182Y-15026460D02*
X6891134Y-15035984D01*
X6891134Y-15035984D02*
X6872086Y-15035984D01*
X6872086Y-15035984D02*
X6853039Y-15026460D01*
X6853039Y-15026460D02*
X6843515Y-15016936D01*
X6843515Y-15016936D02*
X6833991Y-14997888D01*
X6833991Y-14997888D02*
X6824467Y-14959793D01*
X6824467Y-14959793D02*
X6824467Y-14912174D01*
X6824467Y-14912174D02*
X6833991Y-14874079D01*
X6833991Y-14874079D02*
X6843515Y-14855031D01*
X6843515Y-14855031D02*
X6853039Y-14845508D01*
X6853039Y-14845508D02*
X6872086Y-14835984D01*
X7062562Y-14835984D02*
X7081610Y-14835984D01*
X7081610Y-14835984D02*
X7100658Y-14845508D01*
X7100658Y-14845508D02*
X7110182Y-14855031D01*
X7110182Y-14855031D02*
X7119705Y-14874079D01*
X7119705Y-14874079D02*
X7129229Y-14912174D01*
X7129229Y-14912174D02*
X7129229Y-14959793D01*
X7129229Y-14959793D02*
X7119705Y-14997888D01*
X7119705Y-14997888D02*
X7110182Y-15016936D01*
X7110182Y-15016936D02*
X7100658Y-15026460D01*
X7100658Y-15026460D02*
X7081610Y-15035984D01*
X7081610Y-15035984D02*
X7062562Y-15035984D01*
X7062562Y-15035984D02*
X7043515Y-15026460D01*
X7043515Y-15026460D02*
X7033991Y-15016936D01*
X7033991Y-15016936D02*
X7024467Y-14997888D01*
X7024467Y-14997888D02*
X7014943Y-14959793D01*
X7014943Y-14959793D02*
X7014943Y-14912174D01*
X7014943Y-14912174D02*
X7024467Y-14874079D01*
X7024467Y-14874079D02*
X7033991Y-14855031D01*
X7033991Y-14855031D02*
X7043515Y-14845508D01*
X7043515Y-14845508D02*
X7062562Y-14835984D01*
X7253039Y-14835984D02*
X7272086Y-14835984D01*
X7272086Y-14835984D02*
X7291134Y-14845508D01*
X7291134Y-14845508D02*
X7300658Y-14855031D01*
X7300658Y-14855031D02*
X7310182Y-14874079D01*
X7310182Y-14874079D02*
X7319705Y-14912174D01*
X7319705Y-14912174D02*
X7319705Y-14959793D01*
X7319705Y-14959793D02*
X7310182Y-14997888D01*
X7310182Y-14997888D02*
X7300658Y-15016936D01*
X7300658Y-15016936D02*
X7291134Y-15026460D01*
X7291134Y-15026460D02*
X7272086Y-15035984D01*
X7272086Y-15035984D02*
X7253039Y-15035984D01*
X7253039Y-15035984D02*
X7233991Y-15026460D01*
X7233991Y-15026460D02*
X7224467Y-15016936D01*
X7224467Y-15016936D02*
X7214943Y-14997888D01*
X7214943Y-14997888D02*
X7205420Y-14959793D01*
X7205420Y-14959793D02*
X7205420Y-14912174D01*
X7205420Y-14912174D02*
X7214943Y-14874079D01*
X7214943Y-14874079D02*
X7224467Y-14855031D01*
X7224467Y-14855031D02*
X7233991Y-14845508D01*
X7233991Y-14845508D02*
X7253039Y-14835984D01*
X7405420Y-15035984D02*
X7405420Y-14902650D01*
X7405420Y-14921698D02*
X7414943Y-14912174D01*
X7414943Y-14912174D02*
X7433991Y-14902650D01*
X7433991Y-14902650D02*
X7462563Y-14902650D01*
X7462563Y-14902650D02*
X7481610Y-14912174D01*
X7481610Y-14912174D02*
X7491134Y-14931222D01*
X7491134Y-14931222D02*
X7491134Y-15035984D01*
X7491134Y-14931222D02*
X7500658Y-14912174D01*
X7500658Y-14912174D02*
X7519705Y-14902650D01*
X7519705Y-14902650D02*
X7548277Y-14902650D01*
X7548277Y-14902650D02*
X7567324Y-14912174D01*
X7567324Y-14912174D02*
X7576848Y-14931222D01*
X7576848Y-14931222D02*
X7576848Y-15035984D01*
X7672086Y-15035984D02*
X7672086Y-14902650D01*
X7672086Y-14921698D02*
X7681610Y-14912174D01*
X7681610Y-14912174D02*
X7700658Y-14902650D01*
X7700658Y-14902650D02*
X7729229Y-14902650D01*
X7729229Y-14902650D02*
X7748277Y-14912174D01*
X7748277Y-14912174D02*
X7757801Y-14931222D01*
X7757801Y-14931222D02*
X7757801Y-15035984D01*
X7757801Y-14931222D02*
X7767324Y-14912174D01*
X7767324Y-14912174D02*
X7786372Y-14902650D01*
X7786372Y-14902650D02*
X7814943Y-14902650D01*
X7814943Y-14902650D02*
X7833991Y-14912174D01*
X7833991Y-14912174D02*
X7843515Y-14931222D01*
X7843515Y-14931222D02*
X7843515Y-15035984D01*
X8233991Y-14826460D02*
X8062563Y-15083603D01*
X8491134Y-14835984D02*
X8510182Y-14835984D01*
X8510182Y-14835984D02*
X8529229Y-14845508D01*
X8529229Y-14845508D02*
X8538753Y-14855031D01*
X8538753Y-14855031D02*
X8548277Y-14874079D01*
X8548277Y-14874079D02*
X8557801Y-14912174D01*
X8557801Y-14912174D02*
X8557801Y-14959793D01*
X8557801Y-14959793D02*
X8548277Y-14997888D01*
X8548277Y-14997888D02*
X8538753Y-15016936D01*
X8538753Y-15016936D02*
X8529229Y-15026460D01*
X8529229Y-15026460D02*
X8510182Y-15035984D01*
X8510182Y-15035984D02*
X8491134Y-15035984D01*
X8491134Y-15035984D02*
X8472087Y-15026460D01*
X8472087Y-15026460D02*
X8462563Y-15016936D01*
X8462563Y-15016936D02*
X8453039Y-14997888D01*
X8453039Y-14997888D02*
X8443515Y-14959793D01*
X8443515Y-14959793D02*
X8443515Y-14912174D01*
X8443515Y-14912174D02*
X8453039Y-14874079D01*
X8453039Y-14874079D02*
X8462563Y-14855031D01*
X8462563Y-14855031D02*
X8472087Y-14845508D01*
X8472087Y-14845508D02*
X8491134Y-14835984D01*
X8643515Y-15016936D02*
X8653039Y-15026460D01*
X8653039Y-15026460D02*
X8643515Y-15035984D01*
X8643515Y-15035984D02*
X8633991Y-15026460D01*
X8633991Y-15026460D02*
X8643515Y-15016936D01*
X8643515Y-15016936D02*
X8643515Y-15035984D01*
X8776848Y-14835984D02*
X8795896Y-14835984D01*
X8795896Y-14835984D02*
X8814944Y-14845508D01*
X8814944Y-14845508D02*
X8824468Y-14855031D01*
X8824468Y-14855031D02*
X8833991Y-14874079D01*
X8833991Y-14874079D02*
X8843515Y-14912174D01*
X8843515Y-14912174D02*
X8843515Y-14959793D01*
X8843515Y-14959793D02*
X8833991Y-14997888D01*
X8833991Y-14997888D02*
X8824468Y-15016936D01*
X8824468Y-15016936D02*
X8814944Y-15026460D01*
X8814944Y-15026460D02*
X8795896Y-15035984D01*
X8795896Y-15035984D02*
X8776848Y-15035984D01*
X8776848Y-15035984D02*
X8757801Y-15026460D01*
X8757801Y-15026460D02*
X8748277Y-15016936D01*
X8748277Y-15016936D02*
X8738753Y-14997888D01*
X8738753Y-14997888D02*
X8729229Y-14959793D01*
X8729229Y-14959793D02*
X8729229Y-14912174D01*
X8729229Y-14912174D02*
X8738753Y-14874079D01*
X8738753Y-14874079D02*
X8748277Y-14855031D01*
X8748277Y-14855031D02*
X8757801Y-14845508D01*
X8757801Y-14845508D02*
X8776848Y-14835984D01*
X8910182Y-14835984D02*
X9033991Y-14835984D01*
X9033991Y-14835984D02*
X8967325Y-14912174D01*
X8967325Y-14912174D02*
X8995896Y-14912174D01*
X8995896Y-14912174D02*
X9014944Y-14921698D01*
X9014944Y-14921698D02*
X9024468Y-14931222D01*
X9024468Y-14931222D02*
X9033991Y-14950269D01*
X9033991Y-14950269D02*
X9033991Y-14997888D01*
X9033991Y-14997888D02*
X9024468Y-15016936D01*
X9024468Y-15016936D02*
X9014944Y-15026460D01*
X9014944Y-15026460D02*
X8995896Y-15035984D01*
X8995896Y-15035984D02*
X8938753Y-15035984D01*
X8938753Y-15035984D02*
X8919706Y-15026460D01*
X8919706Y-15026460D02*
X8910182Y-15016936D01*
X9129229Y-15035984D02*
X9167325Y-15035984D01*
X9167325Y-15035984D02*
X9186372Y-15026460D01*
X9186372Y-15026460D02*
X9195896Y-15016936D01*
X9195896Y-15016936D02*
X9214944Y-14988365D01*
X9214944Y-14988365D02*
X9224468Y-14950269D01*
X9224468Y-14950269D02*
X9224468Y-14874079D01*
X9224468Y-14874079D02*
X9214944Y-14855031D01*
X9214944Y-14855031D02*
X9205420Y-14845508D01*
X9205420Y-14845508D02*
X9186372Y-14835984D01*
X9186372Y-14835984D02*
X9148277Y-14835984D01*
X9148277Y-14835984D02*
X9129229Y-14845508D01*
X9129229Y-14845508D02*
X9119706Y-14855031D01*
X9119706Y-14855031D02*
X9110182Y-14874079D01*
X9110182Y-14874079D02*
X9110182Y-14921698D01*
X9110182Y-14921698D02*
X9119706Y-14940746D01*
X9119706Y-14940746D02*
X9129229Y-14950269D01*
X9129229Y-14950269D02*
X9148277Y-14959793D01*
X9148277Y-14959793D02*
X9186372Y-14959793D01*
X9186372Y-14959793D02*
X9205420Y-14950269D01*
X9205420Y-14950269D02*
X9214944Y-14940746D01*
X9214944Y-14940746D02*
X9224468Y-14921698D01*
X9395896Y-14902650D02*
X9395896Y-15035984D01*
X9348277Y-14826460D02*
X9300658Y-14969317D01*
X9300658Y-14969317D02*
X9424468Y-14969317D01*
X9491134Y-14835984D02*
X9491134Y-14874079D01*
X9567325Y-14835984D02*
X9567325Y-14874079D01*
X9862563Y-15112174D02*
X9853039Y-15102650D01*
X9853039Y-15102650D02*
X9833991Y-15074079D01*
X9833991Y-15074079D02*
X9824468Y-15055031D01*
X9824468Y-15055031D02*
X9814944Y-15026460D01*
X9814944Y-15026460D02*
X9805420Y-14978841D01*
X9805420Y-14978841D02*
X9805420Y-14940746D01*
X9805420Y-14940746D02*
X9814944Y-14893127D01*
X9814944Y-14893127D02*
X9824468Y-14864555D01*
X9824468Y-14864555D02*
X9833991Y-14845508D01*
X9833991Y-14845508D02*
X9853039Y-14816936D01*
X9853039Y-14816936D02*
X9862563Y-14807412D01*
X10043515Y-15035984D02*
X9929230Y-15035984D01*
X9986372Y-15035984D02*
X9986372Y-14835984D01*
X9986372Y-14835984D02*
X9967325Y-14864555D01*
X9967325Y-14864555D02*
X9948277Y-14883603D01*
X9948277Y-14883603D02*
X9929230Y-14893127D01*
X10110182Y-14835984D02*
X10243515Y-14835984D01*
X10243515Y-14835984D02*
X10157801Y-15035984D01*
X10472087Y-15035984D02*
X10472087Y-14835984D01*
X10557801Y-15035984D02*
X10557801Y-14931222D01*
X10557801Y-14931222D02*
X10548277Y-14912174D01*
X10548277Y-14912174D02*
X10529230Y-14902650D01*
X10529230Y-14902650D02*
X10500658Y-14902650D01*
X10500658Y-14902650D02*
X10481611Y-14912174D01*
X10481611Y-14912174D02*
X10472087Y-14921698D01*
X10681611Y-15035984D02*
X10662563Y-15026460D01*
X10662563Y-15026460D02*
X10653039Y-15016936D01*
X10653039Y-15016936D02*
X10643515Y-14997888D01*
X10643515Y-14997888D02*
X10643515Y-14940746D01*
X10643515Y-14940746D02*
X10653039Y-14921698D01*
X10653039Y-14921698D02*
X10662563Y-14912174D01*
X10662563Y-14912174D02*
X10681611Y-14902650D01*
X10681611Y-14902650D02*
X10710182Y-14902650D01*
X10710182Y-14902650D02*
X10729230Y-14912174D01*
X10729230Y-14912174D02*
X10738753Y-14921698D01*
X10738753Y-14921698D02*
X10748277Y-14940746D01*
X10748277Y-14940746D02*
X10748277Y-14997888D01*
X10748277Y-14997888D02*
X10738753Y-15016936D01*
X10738753Y-15016936D02*
X10729230Y-15026460D01*
X10729230Y-15026460D02*
X10710182Y-15035984D01*
X10710182Y-15035984D02*
X10681611Y-15035984D01*
X10862563Y-15035984D02*
X10843515Y-15026460D01*
X10843515Y-15026460D02*
X10833992Y-15007412D01*
X10833992Y-15007412D02*
X10833992Y-14835984D01*
X11014944Y-15026460D02*
X10995896Y-15035984D01*
X10995896Y-15035984D02*
X10957801Y-15035984D01*
X10957801Y-15035984D02*
X10938753Y-15026460D01*
X10938753Y-15026460D02*
X10929230Y-15007412D01*
X10929230Y-15007412D02*
X10929230Y-14931222D01*
X10929230Y-14931222D02*
X10938753Y-14912174D01*
X10938753Y-14912174D02*
X10957801Y-14902650D01*
X10957801Y-14902650D02*
X10995896Y-14902650D01*
X10995896Y-14902650D02*
X11014944Y-14912174D01*
X11014944Y-14912174D02*
X11024468Y-14931222D01*
X11024468Y-14931222D02*
X11024468Y-14950269D01*
X11024468Y-14950269D02*
X10929230Y-14969317D01*
X11100658Y-15026460D02*
X11119706Y-15035984D01*
X11119706Y-15035984D02*
X11157801Y-15035984D01*
X11157801Y-15035984D02*
X11176849Y-15026460D01*
X11176849Y-15026460D02*
X11186372Y-15007412D01*
X11186372Y-15007412D02*
X11186372Y-14997888D01*
X11186372Y-14997888D02*
X11176849Y-14978841D01*
X11176849Y-14978841D02*
X11157801Y-14969317D01*
X11157801Y-14969317D02*
X11129230Y-14969317D01*
X11129230Y-14969317D02*
X11110182Y-14959793D01*
X11110182Y-14959793D02*
X11100658Y-14940746D01*
X11100658Y-14940746D02*
X11100658Y-14931222D01*
X11100658Y-14931222D02*
X11110182Y-14912174D01*
X11110182Y-14912174D02*
X11129230Y-14902650D01*
X11129230Y-14902650D02*
X11157801Y-14902650D01*
X11157801Y-14902650D02*
X11176849Y-14912174D01*
X11253039Y-15112174D02*
X11262563Y-15102650D01*
X11262563Y-15102650D02*
X11281611Y-15074079D01*
X11281611Y-15074079D02*
X11291134Y-15055031D01*
X11291134Y-15055031D02*
X11300658Y-15026460D01*
X11300658Y-15026460D02*
X11310182Y-14978841D01*
X11310182Y-14978841D02*
X11310182Y-14940746D01*
X11310182Y-14940746D02*
X11300658Y-14893127D01*
X11300658Y-14893127D02*
X11291134Y-14864555D01*
X11291134Y-14864555D02*
X11281611Y-14845508D01*
X11281611Y-14845508D02*
X11262563Y-14816936D01*
X11262563Y-14816936D02*
X11253039Y-14807412D01*
M02*
